<svg width="472" height="355" viewBox="0 0 472 355" fill="none" xmlns="http://www.w3.org/2000/svg">
<path d="M305.209 161.479C305.209 161.479 328.202 198.329 350.176 218.63C372.15 238.931 397.728 259.728 382.237 297.92C366.747 336.111 321.091 351.751 239.448 349.755C157.804 347.759 128.977 347.325 111.072 306.822C93.1664 266.32 152.759 257.236 193.465 244.923C234.172 232.609 305.209 161.479 305.209 161.479Z" fill="#E3E5FC"/>
<path opacity="0.49" d="M309.136 241.923C309.136 241.923 320.334 285.148 280.409 295.408C240.483 305.672 165.985 304.161 137.938 284.191C109.892 264.22 309.136 241.923 309.136 241.923Z" fill="url(#paint0_linear_3_68)"/>
<path d="M413.072 316.752C417.025 314.318 418.91 308.984 417.364 304.607C414.833 297.454 408.292 299.866 403.642 296.108C398.166 291.686 404.788 284.729 404.423 279.507C404.023 273.761 398.851 268.212 397.293 262.659C393.72 249.895 408.23 259.421 412.368 257.932C414.099 257.309 415.233 255.571 415.633 253.771C416.648 249.184 414.718 245.476 417.229 241.135C419.656 236.943 423.24 235.051 422.205 229.359C421.621 226.137 419.633 223.183 419.683 219.907C419.698 218.968 419.963 217.915 420.782 217.457C421.405 217.107 422.182 217.203 422.855 217.438C425.09 218.222 426.559 220.307 428.358 221.849C430.158 223.391 433.05 224.344 434.777 222.722C435.927 221.641 436.038 219.895 436.273 218.334C436.692 215.519 438.669 213.565 441.122 215.192C443.795 216.965 442.772 223.945 442.368 226.448C441.73 230.417 440.761 234.539 441.941 238.385C443.891 244.746 449.221 237.62 451.544 235.512C453.447 233.786 456.628 232.751 458.454 234.555C462.092 238.143 456.243 242.938 455.474 246.338C455.105 247.957 455.582 249.895 457.02 250.726C461.231 253.164 464.788 248.818 465.427 255.306C465.865 259.751 461.842 263.989 464.338 268.435C466.519 272.319 473.776 273.969 470.907 279.418C469.145 282.764 461.562 282.614 461.962 287.375C462.223 290.478 466.888 291.886 466.892 295.001C466.896 297.347 464.165 298.731 461.823 298.85C459.481 298.97 457.012 298.423 454.855 299.339C452.405 300.377 450.986 303.388 451.744 305.942C452.405 308.161 454.47 310.18 453.82 312.402C453.04 315.075 449.336 315.171 446.587 314.744C435.35 312.987 423.317 311.814 413.072 316.752Z" fill="#FDC510"/>
<path d="M434.292 315.644C433.892 315.644 433.573 315.321 433.573 314.925V264.789C433.573 264.393 433.896 264.07 434.292 264.07C434.692 264.07 435.011 264.393 435.011 264.789V314.921C435.011 315.321 434.692 315.644 434.292 315.644Z" fill="white"/>
<path d="M434.292 296.131C434.131 296.131 433.973 296.078 433.839 295.97C433.531 295.72 433.481 295.266 433.735 294.955L446.883 278.745C447.137 278.434 447.591 278.391 447.898 278.641C448.206 278.891 448.256 279.345 448.002 279.657L434.854 295.866C434.708 296.039 434.504 296.131 434.292 296.131Z" fill="white"/>
<path d="M434.292 282.441C434.127 282.441 433.961 282.387 433.827 282.272L418.156 269.085C417.852 268.827 417.813 268.373 418.067 268.07C418.325 267.766 418.779 267.727 419.082 267.981L434.754 281.168C435.057 281.425 435.096 281.879 434.842 282.183C434.7 282.356 434.496 282.441 434.292 282.441Z" fill="white"/>
<path d="M410.88 309.726C412.941 323.428 414.798 337.761 418.267 350.982C418.556 352.082 418.894 353.236 419.594 353.943C420.421 354.778 421.544 354.793 422.578 354.77C428.562 354.632 434.557 355.016 440.541 354.982C446.198 354.951 450.871 355.408 451.463 346.013C451.667 342.756 452.182 309.722 455.186 309.722C455.174 309.726 410.88 309.726 410.88 309.726Z" fill="#978CFF"/>
<path d="M451.14 317.913H414.926C410.422 317.913 406.734 314.229 406.734 309.722C406.734 305.219 410.419 301.531 414.926 301.531H451.14C455.644 301.531 459.332 305.215 459.332 309.722C459.332 314.229 455.644 317.913 451.14 317.913Z" fill="#A7ADFF"/>
<path d="M276.57 17.1055C276.57 17.1055 281.315 27.6503 273.901 34.1418C266.487 40.6333 256.407 35.4955 246.624 41.4409C236.84 47.3863 237.894 54.4315 242.382 70.118C247.72 88.7771 253.55 88.2195 258.791 89.5694C264.033 90.923 265.598 105.525 266.19 112.286C266.783 119.046 267.671 123.642 248.993 132.837C230.314 142.032 240.505 156.095 242.378 174.324C244.451 194.487 220.527 206.116 216.378 210.985C212.228 215.853 202.441 216.665 197.103 206.389C191.765 196.113 218.889 188.549 216.52 172.055C214.147 155.561 199.664 144.462 220.123 128.237C240.582 112.013 236.54 99.0374 229.722 85.7891C222.904 72.5408 219.642 67.403 225.273 50.3667C230.903 33.3304 224.976 38.4682 232.387 24.9468C239.805 11.4293 266.786 -3.44569 276.57 17.1055Z" fill="#4B369D"/>
<path d="M263.668 97.1375L265.156 124.899L286.888 133.279C286.888 133.279 273.821 114.158 276.036 97.1337C278.251 80.1128 263.668 97.1375 263.668 97.1375Z" fill="#D4A79A"/>
<path d="M314.031 187.199C314.031 187.199 312.588 184.557 308.266 170.99C303.943 157.422 302.382 152.377 296.379 139.248C290.376 126.118 277.885 117.916 277.885 117.916L262.276 117.073C262.276 117.073 260.353 117.193 251.35 124.638C242.344 132.083 233.699 153.338 233.699 153.338L229.857 195.606L256.876 215.538L275.974 222.422C275.055 221.195 274.313 219.895 273.851 218.518C270.651 209.008 281.373 156.338 281.735 151.654C282.096 146.97 291.168 191.641 291.168 191.641L299.025 189.36L304.416 206.539L307.789 188.999L314.031 187.199Z" fill="#F44E4E"/>
<path d="M305.505 210.016L304.412 206.539L302.67 215.599L305.505 210.016Z" fill="url(#paint1_linear_3_68)"/>
<path d="M291.161 191.641C291.161 191.641 282.089 146.97 281.728 151.654C281.366 156.338 270.644 209.008 273.844 218.518C274.305 219.895 275.048 221.195 275.967 222.422L295.614 229.501L302.671 215.595L304.413 206.535L299.021 189.357L291.161 191.641Z" fill="#FDC510"/>
<path d="M291.161 191.641C291.161 191.641 282.089 146.97 281.728 151.654C281.366 156.338 270.644 209.008 273.844 218.518C274.305 219.895 275.048 221.195 275.967 222.422L295.614 229.501L302.671 215.595L304.413 206.535L299.021 189.357L291.161 191.641Z" fill="#D7384E"/>
<path d="M131.943 174.843L242.259 180.165L263.668 200.901L160.627 198.305L131.943 174.843Z" fill="black"/>
<path d="M235.968 183.511L136.373 176.785C133.681 176.993 131.347 175.181 131.158 172.732L111.088 118.885C110.899 116.439 112.926 114.285 115.614 114.078L215.209 120.808C217.901 120.6 220.235 122.411 220.424 124.861L240.494 178.708C240.686 181.15 238.656 183.304 235.968 183.511Z" fill="#E3E5FC"/>
<path d="M186.003 153.313C187.186 147.869 182.997 142.337 176.646 140.956C170.295 139.576 164.187 142.87 163.004 148.314C161.821 153.758 166.01 159.29 172.361 160.671C178.712 162.051 184.819 158.757 186.003 153.313Z" fill="#A7ADFF"/>
<path d="M86.56 270.462L58.3982 311.707L71.2196 322.54L98.047 277.761C98.047 277.757 91.8978 270.839 86.56 270.462Z" fill="#D4A79A"/>
<path d="M1.36292 334.711C1.36292 334.711 12.1961 338.411 32.955 339.949C53.7139 341.491 76.884 342.26 81.095 339.18C85.306 336.1 88.0134 309.907 81.095 309.907C74.1767 309.907 71.4847 319.921 59.2824 310.983C48.8299 303.327 40.4772 317.763 22.2756 321.613C4.07411 325.462 -3.29803 327.008 1.36292 334.711Z" fill="#F3AA02"/>
<path d="M261.856 225.864C259.368 221.183 245.901 223.821 229.76 217.818C213.616 211.815 203.191 199.205 184.851 184.676C166.511 170.148 167.764 172.666 159.85 172.067C151.936 171.467 142.137 192.841 136.607 204.132C124.966 227.906 110.233 249.149 88.2246 262.97C81.537 267.17 52.0715 283.145 47.1491 289.836C36.7812 303.919 87.7554 304.038 101.084 305.665C114.279 307.272 121.678 299.777 127.016 287.933C133.107 274.423 139.772 261.201 146.429 247.98C149.759 241.365 153.105 234.755 156.37 228.106C157.777 225.241 160.823 214.842 164.219 213.546C174.664 209.569 188.45 241.408 191.381 248.561C197.284 262.97 218.893 279.784 234.594 281.464C250.296 283.145 262.106 272.7 267.256 257.448C272.409 242.196 261.856 225.864 261.856 225.864Z" fill="#4B369D"/>
<path d="M140.279 273.588L112.117 314.833L124.939 325.666L151.766 280.887C151.762 280.884 145.617 273.965 140.279 273.588Z" fill="#EAC2AB"/>
<path d="M55.0834 337.838C55.0834 337.838 65.9166 341.537 86.6755 343.075C107.434 344.617 130.604 345.387 134.815 342.306C139.026 339.226 141.734 313.033 134.815 313.033C127.897 313.033 125.205 323.047 113.003 314.11C102.55 306.453 94.1976 320.89 75.9961 324.739C57.7946 328.589 50.4186 330.135 55.0834 337.838Z" fill="#FDC510"/>
<path d="M302.621 225.864C300.245 221.183 287.369 223.821 271.941 217.818C256.512 211.815 246.544 199.205 229.012 184.676C211.479 170.148 212.679 172.666 205.115 172.067C197.55 171.467 188.182 192.841 182.898 204.132C166.643 238.862 133.189 262.17 102.743 283.614C100.851 284.944 98.7281 286.794 99.1204 289.075C99.3204 290.236 100.151 291.174 101.001 291.994C112.296 302.896 133.454 307.799 148.66 307.088C163.97 306.372 172.28 293.597 178.064 280.964C188.409 258.363 198.515 235.074 211.083 213.623C215.805 205.57 230.857 238.081 232.165 241.108C239.96 259.182 255.435 279.099 276.567 281.464C291.577 283.145 302.864 272.7 307.79 257.448C312.708 242.196 302.621 225.864 302.621 225.864Z" fill="#5A54FF"/>
<path d="M244.251 38.0413C244.251 38.0413 232.645 46.6017 237.264 65.8301C241.882 85.0584 256.246 101.479 262.041 100.322C278.066 97.1222 283.685 85.7967 289.242 76.0787C296.056 64.161 282.527 35.0878 282.527 35.0878L269.748 28.1964L244.251 38.0413Z" fill="#EAC2AB"/>
<path d="M267.379 29.5462C267.379 29.5462 275.443 32.2497 282.531 43.6059C289.618 54.9621 284.969 56.8158 284.969 72.0407C284.969 76.4902 284.134 80.8742 281.723 84.666C279.973 87.4195 277.478 89.5885 275.666 92.2881C273.378 95.6954 272.647 99.5411 272.832 103.606C273.22 112.201 274.593 119.339 282.227 124.192C290.48 129.437 294.329 136.444 296.498 145.912C299.094 157.249 317.784 163.664 324.306 159.337C330.828 155.011 311.373 157.899 315.23 139.244C319.084 120.585 320.407 112.666 309.139 107.482C297.871 102.298 303.255 100.929 309.185 89.5731C315.115 78.2169 299.829 78.3553 305.862 58.5886C312.827 35.7723 306.516 10.3448 272.417 17.3746C238.317 24.4045 267.379 29.5462 267.379 29.5462Z" fill="#4B369D"/>
<path d="M259.076 51.2588C268.86 45.3096 266.491 40.6294 273.905 34.1418C281.316 27.6503 276.574 17.1055 276.574 17.1055C266.791 -3.44573 239.81 11.4254 232.395 24.9468C224.981 38.4681 230.915 33.3303 225.281 50.3666C221.397 62.1074 221.743 68.199 224.565 75.1904L240.513 81.6472C234.056 57.1504 251.716 55.7313 259.076 51.2588Z" fill="#4B369D"/>
<path d="M298.779 209.293C298.779 209.293 298.779 215.896 296.256 214.696C293.734 213.496 270.079 198.725 266.956 195.244C263.834 191.76 256.508 179.154 256.15 176.631C255.788 174.109 256.992 173.989 252.066 174.709C247.143 175.428 238.256 178.193 239.579 179.75C240.898 181.312 244.621 180.231 244.621 180.231C244.621 180.231 240.26 182.992 242.379 183.354C244.498 183.715 250.743 182.511 250.743 184.434C250.743 186.357 250.381 192.841 251.824 196.083C253.266 199.325 255.065 200.405 259.749 201.486C264.434 202.567 265.26 202.205 269.11 206.17C272.959 210.135 294.453 229.225 297.214 230.186C299.975 231.148 301.175 232.828 304.54 226.702C307.905 220.576 310.305 215.896 310.543 206.289C310.781 196.683 309.701 187.438 309.701 187.438L299.014 189.361C299.021 189.361 299.979 200.167 298.779 209.293Z" fill="#EAC2AB"/>
<path d="M333.35 87.3118C335.265 78.536 339.542 69.7871 342.68 61.3612C344.349 56.8849 348.014 50.8472 348.387 46.0516C348.51 44.4788 350.01 43.3135 351.736 43.4481L415.705 39.1256C417.432 39.2602 418.735 40.6408 418.612 42.2137L405.722 76.7977C405.599 78.3706 404.099 79.5358 402.372 79.4012L350.783 82.697C347.621 84.616 342.607 86.5349 339.442 88.4462C335.931 90.5652 331.593 95.3646 333.35 87.3118Z" fill="#E3E5FC"/>
<path d="M379.645 65.2914L400.431 64.3877C401.831 64.3262 402.923 63.134 402.862 61.7342C402.8 60.3344 401.608 59.2422 400.208 59.3037L379.422 60.2075C378.023 60.269 376.93 61.4612 376.992 62.861C377.054 64.257 378.246 65.3491 379.645 65.2914Z" fill="white"/>
<path d="M364.697 56.6812L402.353 55.0468C403.753 54.9852 404.845 53.7931 404.784 52.3933C404.722 50.9934 403.53 49.9013 402.13 49.9628L364.473 51.5972C363.074 51.6587 361.981 52.8509 362.043 54.2507C362.105 55.6467 363.297 56.7427 364.697 56.6812Z" fill="white"/>
<path d="M146.082 95.1724C143.867 85.0122 138.918 74.8866 135.28 65.134C133.349 59.9539 129.104 52.9663 128.673 47.4132C128.531 45.5942 126.796 44.2443 124.797 44.402L50.7522 39.3988C48.7524 39.5526 47.2449 41.1524 47.3872 42.9714L62.3084 83.0048C62.4507 84.8238 64.1851 86.1736 66.1848 86.0159L125.9 89.8347C129.561 92.0536 135.361 94.2803 139.029 96.4915C143.094 98.9412 148.117 104.498 146.082 95.1724Z" fill="#E3E5FC"/>
<path d="M92.4952 69.6831L68.4368 68.6371C66.8177 68.5679 65.5525 67.1835 65.6217 65.5644C65.691 63.9454 67.0754 62.6802 68.6944 62.7494L92.7529 63.7954C94.3719 63.8647 95.6371 65.2491 95.5679 66.8681C95.4948 68.4871 94.1142 69.7524 92.4952 69.6831Z" fill="white"/>
<path d="M109.797 59.7193L66.2068 57.8272C64.5877 57.758 63.3225 56.3735 63.3917 54.7545C63.461 53.1355 64.8454 51.8703 66.4644 51.9395L110.055 53.8315C111.674 53.9008 112.939 55.2852 112.87 56.9042C112.797 58.5233 111.416 59.7885 109.797 59.7193Z" fill="white"/>
<g opacity="0.72">
<path d="M186.735 35.907C185.308 29.3655 182.12 22.8471 179.782 16.5671C178.54 13.2329 175.806 8.7335 175.529 5.15703C175.436 3.98411 174.321 3.11883 173.033 3.21882L125.358 0C124.07 0.0999872 123.101 1.13062 123.189 2.29971L132.796 28.0733C132.888 29.2463 134.003 30.1115 135.291 30.0116L173.74 32.4689C176.098 33.8995 179.832 35.3301 182.193 36.753C184.812 38.3336 188.042 41.91 186.735 35.907Z" fill="#E3E5FC"/>
<path d="M152.231 19.4936L136.741 18.8206C135.698 18.7745 134.883 17.8861 134.929 16.8439C134.976 15.8018 135.864 14.9865 136.906 15.0326L152.396 15.7056C153.439 15.7518 154.254 16.6401 154.208 17.6823C154.162 18.7245 153.273 19.5397 152.231 19.4936Z" fill="white"/>
<path d="M163.372 13.079L135.307 11.8599C134.265 11.8138 133.449 10.9254 133.496 9.88324C133.542 8.84107 134.43 8.02579 135.472 8.07193L163.538 9.29101C164.58 9.33716 165.395 10.2255 165.349 11.2677C165.303 12.3099 164.415 13.1251 163.372 13.079Z" fill="white"/>
</g>
<path d="M189.638 73.1983L165.58 72.1523C163.961 72.083 162.696 70.6986 162.765 69.0796C162.834 67.4606 164.219 66.1953 165.838 66.2646L189.896 67.3106C191.515 67.3798 192.78 68.7642 192.711 70.3833C192.638 72.0023 191.254 73.2675 189.638 73.1983Z" fill="#E3E5FC"/>
<path d="M192.038 84.9545L167.98 83.9085C166.361 83.8393 165.095 82.4548 165.165 80.8358C165.234 79.2168 166.618 77.9516 168.237 78.0208L192.296 79.0668C193.915 79.136 195.18 80.5205 195.111 82.1395C195.038 83.7585 193.657 85.0276 192.038 84.9545Z" fill="#E3E5FC"/>
<path d="M196.302 97.0259L172.244 95.9799C170.625 95.9107 169.36 94.5262 169.429 92.9072C169.498 91.2882 170.883 90.023 172.502 90.0922L196.56 91.1382C198.179 91.2074 199.444 92.5919 199.375 94.2109C199.306 95.8299 197.921 97.0951 196.302 97.0259Z" fill="#E3E5FC"/>
<defs>
<linearGradient id="paint0_linear_3_68" x1="323.108" y1="291.601" x2="321.086" y2="228.629" gradientUnits="userSpaceOnUse">
<stop stop-color="#A7ADFF"/>
<stop offset="1" stop-color="#E3E5FC"/>
</linearGradient>
<linearGradient id="paint1_linear_3_68" x1="317.24" y1="172.705" x2="268.508" y2="155.473" gradientUnits="userSpaceOnUse">
<stop stop-color="#A7ADFF"/>
<stop offset="1" stop-color="#E3E5FC"/>
</linearGradient>
</defs>
</svg>
