<svg width="599" height="374" viewBox="0 0 599 374" fill="none" xmlns="http://www.w3.org/2000/svg">
<path d="M25.3859 338.576C35.7331 345.141 46.069 351.707 56.3069 358.446C46.0991 355.41 35.8122 352.343 26.433 347.3C17.0539 342.26 8.52976 335.039 3.74602 325.524C-1.03396 316.01 -1.5613 304.005 4.04359 294.95C11.9725 282.139 30.987 275.83 44.4756 283.273C50.0805 286.362 55.482 291.432 61.8139 290.479C74.4512 288.569 83.2654 275.77 95.2059 271.419C108.103 266.722 122.488 266.048 135.74 269.713C141.062 271.186 156.89 277.141 157.526 266.522C157.715 263.339 156.317 260.258 156.231 257.072C155.801 241.711 198.32 256.051 207.296 248.623C214.766 242.442 216.495 232.192 223.425 225.409C231.603 217.404 242.146 212.236 251.19 205.328C262.091 196.996 273.029 182.457 267.632 168.064C265.206 161.596 259.838 155.524 261.239 148.759C262.064 144.763 265.127 141.663 268.046 138.815C276.129 130.92 284.213 123.029 292.296 115.134C294.134 113.341 296.353 111.409 298.903 111.725C301.845 112.09 303.608 115.435 303.464 118.396C303.321 121.356 301.845 124.057 300.707 126.796C295.31 139.783 297.517 155.773 306.806 166.437C312.429 172.893 320.599 177.997 322.426 186.363C324.347 195.154 319.643 207.309 327.613 211.483C331.756 213.653 336.97 211.716 341.414 213.17C350.439 216.127 349.773 228.964 353.988 237.477C359.547 248.706 373.725 251.855 384.272 258.62C395.666 265.927 403.094 277.887 412.617 287.507C424.847 299.865 440.852 308.435 457.919 311.757C465.234 313.181 474.512 312.744 477.917 306.118C481.488 299.172 476.143 289.428 481.122 283.409C486.829 276.515 497.575 282.516 505.35 286.946C517.204 293.703 531.054 295.786 544.497 298.144C557.937 300.502 571.787 303.451 582.782 311.531C593.777 319.614 601.13 334.226 596.731 347.142C591.807 361.602 575.125 368.126 560.073 370.733C504.009 380.439 447.466 361.075 390.826 355.681C332.924 350.17 275.109 359.316 217.512 364.167C158.11 369.173 100.702 363.598 41.6657 356.984" fill="#E3E5FC"/>
<path opacity="0.27" d="M271.862 223.416C271.756 228.437 272.427 233.511 271.504 238.449C270.581 243.383 267.575 248.378 262.739 249.734C255.925 251.644 247.355 246.08 242.169 250.89C238.213 254.559 239.939 261.215 237.784 266.161C233.411 276.203 216.928 273.773 210.325 282.512C207.982 285.612 207.089 289.929 203.838 292.061C199.902 294.637 194.745 292.716 190.188 291.548C171.674 286.81 152.686 296.23 136.489 306.378C125.649 313.173 115.102 320.432 104.886 328.135C102.739 329.754 100.506 331.525 99.5791 334.048C98.1063 338.045 100.4 342.418 103.063 345.74C115.509 361.255 141.13 345.277 160.977 346.565C195.348 348.791 221.075 342.727 255.503 341.627C279.764 340.851 301.879 345.318 325.752 340.923C348.209 336.787 375.707 343.68 398.54 343.477C409.031 343.382 420.361 345.356 429.371 339.985C430.58 339.265 431.748 338.388 432.452 337.171C434.483 333.664 431.899 329.329 429.171 326.338C418.301 314.428 383.428 318.797 374.102 305.64C349.219 270.534 337.614 272.048 310.045 262.481C306.463 261.238 302.722 259.983 300.033 257.313C297.344 254.642 296.1 250.081 298.334 247.018C300.402 244.186 304.519 243.636 306.915 241.071C311.985 235.635 306.018 227.1 306.06 219.668C306.079 216.606 307.182 213.66 307.612 210.632C309.013 200.763 299.035 185.496 287.78 189.014C276.898 192.404 272.061 214.041 271.862 223.416Z" fill="#A7ADFF"/>
<path d="M269.187 146.518C266.106 148.82 262.935 151.223 261.085 154.594C258.558 159.197 262.339 162.986 263.88 167.096C264.803 169.548 265.266 171.284 264.754 173.895C264.321 176.098 261.507 178.426 263.183 180.776C265.537 184.05 269.771 182.136 272.054 186.717C273.922 190.464 273.191 194.864 275.594 198.431C278.084 202.13 282.322 205.027 283.881 209.306C285.524 213.803 281.889 220.425 286.906 223.578C289.58 225.261 293.324 223.834 295.242 221.321C299.272 216.037 299.212 206.179 300.218 199.893C300.685 196.973 302.722 193.116 305.416 194.337C307.107 195.105 309.408 207.298 312.942 200.989C313.635 199.749 313.54 198.239 313.427 196.826C313.266 194.834 312.595 192.589 312.9 190.589C314.008 183.327 315.748 179.42 313.492 171.778C313.25 170.957 313.07 169.917 313.736 169.378C314.087 169.096 314.569 169.054 315.017 169.028C317.827 168.851 321.078 169.036 322.584 166.086C324.208 162.907 320.403 160.496 319.326 157.833C319.541 158.368 327.071 160.527 328.291 161.197C325.986 155.69 320.434 151.437 314.78 149.803" fill="#F44E4E"/>
<path d="M272.931 172.874C273.741 175.481 274.954 177.838 276.619 179.744C277.926 181.24 279.519 182.532 280.371 184.355C281.101 185.918 281.207 187.726 281.877 189.319C284.469 195.478 289.309 188.905 291.012 185.854C293.121 182.084 295.208 180.972 299.178 181.029C299.622 181.036 300.12 181.018 300.425 180.679C300.711 180.358 300.715 179.865 300.651 179.428C300.3 177.002 297.69 173.624 300.244 171.556C301.253 170.738 302.568 170.493 303.781 170.068C309.864 167.924 309.717 156.749 309.488 151.385C309.401 149.366 308.602 147.441 307.514 145.772C301.442 136.45 285.776 136.416 278.408 144.311C272.427 150.714 270.005 163.438 272.931 172.874Z" fill="#D7384E"/>
<path d="M348.767 154.274C345.528 156.854 321.982 139.12 299.012 118.678L325.055 97.9312C339.753 124.961 351.716 151.923 348.767 154.274Z" fill="#5A54FF"/>
<path d="M234.62 154.274C237.859 156.854 261.405 139.12 284.375 118.678L258.332 97.9312C243.634 124.961 231.671 151.923 234.62 154.274Z" fill="#5A54FF"/>
<path d="M255.502 101.751C255.502 132.721 271.229 149.709 290.627 149.709C310.026 149.709 325.752 132.721 325.752 101.751C325.752 89.3806 321.691 70.66 316.203 52.6324H264.78C259.409 70.66 255.502 89.3806 255.502 101.751Z" fill="#A7ADFF"/>
<path d="M290.627 0C284.231 0 272.852 25.5309 264.776 52.6325H316.199C307.947 25.5309 296.451 0 290.627 0Z" fill="#5A54FF"/>
<path d="M316.671 146.01H264.584C260.49 146.01 257.141 142.661 257.141 138.567C257.141 134.472 260.49 131.124 264.584 131.124H316.671C320.765 131.124 324.114 134.472 324.114 138.567C324.114 142.661 320.765 146.01 316.671 146.01Z" fill="#978CFF"/>
<path d="M314.309 150.07H266.946C265.831 150.07 264.916 149.155 264.916 148.04C264.916 146.925 265.831 146.01 266.946 146.01H314.309C315.424 146.01 316.339 146.925 316.339 148.04C316.339 149.155 315.428 150.07 314.309 150.07Z" fill="#5A54FF"/>
<path d="M290.627 73.6094C280.442 73.6094 272.189 81.866 272.189 92.0475C272.189 92.6125 272.223 93.1662 272.272 93.7162C283.09 89.3204 293.829 84.7777 304.353 79.7642C300.978 75.9937 296.085 73.6094 290.627 73.6094Z" fill="white"/>
<path d="M272.272 93.7161C273.116 103.118 281.007 110.486 290.627 110.486C300.812 110.486 309.065 102.229 309.065 92.0475C309.065 87.324 307.272 83.0261 304.353 79.7642C293.829 84.7777 283.09 89.3203 272.272 93.7161Z" fill="#E3E5FC"/>
</svg>
