<svg width="446" height="744" viewBox="0 0 446 744" fill="none" xmlns="http://www.w3.org/2000/svg">
<path fill-rule="evenodd" clip-rule="evenodd" d="M220.302 68.2637C211.677 58.1398 205.84 45.7329 206.815 31.8306C209.626 -8.2258 265.386 0.586099 276.232 20.8031C287.078 41.0202 285.79 92.3024 271.771 95.9157C266.181 97.3567 254.272 93.8268 242.151 86.5211L249.759 140.345H204.837L220.302 68.2637Z" fill="#B28B67"/>
<path fill-rule="evenodd" clip-rule="evenodd" d="M244.397 36.2542C246.117 60.2073 250.665 72.1839 258.043 72.1839C269.11 72.1839 278.5 65.158 283.356 65.158C286.896 65.158 286.106 69.5879 283.759 72.8723C281.824 75.5821 272.396 78.194 272.396 82.395C272.396 86.5961 279.845 83.3459 279.845 85.8375C279.845 89.9588 281.154 97.7077 274.001 97.7077C266.762 97.7077 246.006 95.0696 242.449 84.3256C240.153 77.3917 238.669 63.0233 237.996 41.2205C237.557 41.1683 237.11 41.1415 236.657 41.1415C230.454 41.1415 225.426 46.1695 225.426 52.372C225.426 55.5207 226.722 58.3667 228.81 60.406C226.211 64.0738 223.299 67.9055 219.962 71.8592C207.425 64.3375 198.121 42.3187 210.378 21.1666C213.766 10.8045 221.436 5.26976 230.494 2.69979C237.831 -0.369494 245.448 -0.71556 251.878 1.12445C264.482 2.20556 275.737 6.04892 278.927 8.3314C278.927 20.2642 276.615 23.8047 256.866 23.4926C252.013 26.0554 248.283 30.4685 244.397 36.2542Z" fill="#191847"/>
<path fill-rule="evenodd" clip-rule="evenodd" d="M189.863 295.7L257.724 533.838L307.235 709.358H343.347L290.734 295.7H189.863Z" fill="#191847"/>
<path fill-rule="evenodd" clip-rule="evenodd" d="M171.715 295.7C170.145 418.439 164.793 485.384 163.145 496.535C161.497 507.687 136.578 578.628 88.3884 709.358H125.798C187.147 583.944 221.394 513.004 228.538 496.535C235.682 480.067 257.73 413.122 290.938 295.7H171.715Z" fill="#2F3676"/>
<path fill-rule="evenodd" clip-rule="evenodd" d="M85.0449 743.049L86.9167 703.742H126.223C144.862 716.845 169.194 727.451 199.222 735.562V743.049H128.095L103.762 739.306V743.049H85.0449Z" fill="#191847"/>
<path fill-rule="evenodd" clip-rule="evenodd" d="M302.168 743.049L304.04 703.742H343.347C361.985 716.845 386.318 727.451 416.345 735.562V743.049H345.219L320.886 739.306V743.049H302.168Z" fill="#191847"/>
<path fill-rule="evenodd" clip-rule="evenodd" d="M347.762 265.022L404.264 312.923C420.113 318.412 433.23 324.779 443.615 332.024C446.012 334.536 448.776 339.477 438.215 337.918C427.654 336.359 416.476 335.194 414.758 338.713C413.039 342.232 419.162 347.013 415.859 351.692C413.657 354.812 404.9 345.991 389.59 325.23L332.32 296.648L347.762 265.022ZM91.9089 244.294L125.061 249.109C89.4752 326.318 70.3972 367.15 67.827 371.606C62.0442 381.633 68.8452 399.096 71.5039 408.341C58.0677 412.221 62.3587 391.462 45.3695 396.64C29.8626 401.366 17.066 412.079 1.70779 399.34C-0.18041 397.773 -1.77099 392.652 4.23059 389.668C19.1827 382.233 41.1359 368.628 44.5484 363.614C49.202 356.777 64.9889 317.004 91.9089 244.294Z" fill="#B28B67"/>
<path fill-rule="evenodd" clip-rule="evenodd" d="M230.471 109.146L251.013 102.353C278.879 171.964 320.437 239.316 389.873 296.205L372.702 325.829C311.678 289.882 253.912 261.957 230.471 208.017C222.603 189.913 229.829 130.793 230.471 109.146Z" fill="#C5CFD6"/>
<path fill-rule="evenodd" clip-rule="evenodd" d="M159.915 305.059C218.76 311.298 265.077 311.298 298.867 305.059C303.054 304.286 303.714 297.277 301.773 292.52C271.54 218.442 250.808 153.806 250.808 102.353C245.261 105.15 235.553 105.569 221.683 103.61C184.409 156.634 167.276 217.472 159.915 305.059Z" fill="#323337"/>
<path fill-rule="evenodd" clip-rule="evenodd" d="M212.417 99.1659H227.95C231.567 120.438 242.975 408.497 278.192 502.727H87.6378C91.769 416.404 124.357 312.709 157.369 225.937C128.178 252.649 102.736 297.91 81.0428 361.722L45.3499 352.559C71.8887 238.202 126.453 154.148 209.042 100.399C209.22 99.9863 209.398 99.5751 209.576 99.1659H210.95C211.456 98.8412 211.963 98.5176 212.471 98.1951L212.417 99.1659Z" fill="#DDE3E9"/>
</svg>
