<svg width="395" height="778" viewBox="0 0 395 778" fill="none" xmlns="http://www.w3.org/2000/svg">
<path fill-rule="evenodd" clip-rule="evenodd" d="M230.984 121.846C209.462 121.846 201.635 96.0808 189.408 81.9415C180.66 71.8251 165.73 74.8416 161.311 60.6789C150.198 25.0654 179.941 -6.10352e-05 218.744 -6.10352e-05C257.546 -6.10352e-05 283.709 21.9831 289.358 55.0297C295.007 88.0763 269.786 121.846 230.984 121.846Z" fill="#191847"/>
<path fill-rule="evenodd" clip-rule="evenodd" d="M228.607 98.8413C237.284 88.6564 243.156 76.1746 242.175 62.1884C239.348 21.8902 183.251 30.7553 172.339 51.0944C161.427 71.4334 162.724 123.025 176.827 126.66C182.451 128.11 194.432 124.559 206.626 117.209L198.972 171.357H244.165L228.607 98.8413Z" fill="#B28B67"/>
<path fill-rule="evenodd" clip-rule="evenodd" d="M209.555 72.9177C211.197 72.049 213.079 71.5556 215.079 71.5556C221.481 71.5556 226.672 76.614 226.672 82.8539C226.672 85.4007 225.807 87.7506 224.348 89.6402C227.095 94.1679 228.97 98.9251 229.585 103.816C239.106 103.816 273.854 67.7895 239.238 33.8946C204.621 -0.000282288 154.596 48.3865 169.628 51.2083C178.271 52.8308 195.677 61.0819 209.555 72.9177Z" fill="#191847"/>
<path fill-rule="evenodd" clip-rule="evenodd" d="M259.23 327.65L188.369 559.311L154.043 756.323H127.128L163.4 327.65H259.23Z" fill="#997659"/>
<path fill-rule="evenodd" clip-rule="evenodd" d="M284.581 327.65C279.768 454.844 285.432 520.453 286.509 532.01C287.586 543.566 302.337 618.496 337.257 760.203L308.578 750.353C253.39 620.387 234.583 552.842 228.254 535.776C221.924 518.71 205.113 449.334 177.82 327.65H284.581Z" fill="#B28B67"/>
<path fill-rule="evenodd" clip-rule="evenodd" d="M337.041 750.21C339.148 755.834 340.201 760.042 340.201 762.834C340.201 766.229 339.635 771.184 338.504 777.699C334.565 777.699 299.162 777.699 232.297 777.699C229.537 768.575 231.13 763.649 237.076 762.921C243.023 762.194 247.962 761.537 251.896 760.951L301.26 738.944C302.21 738.52 303.323 738.947 303.746 739.897C303.754 739.913 303.761 739.93 303.767 739.946L306.94 747.643C312.445 750.212 316.918 751.496 320.36 751.496C323.156 751.496 327.018 750.366 331.945 748.108L331.945 748.108C333.836 747.241 336.071 748.071 336.938 749.962C336.975 750.043 337.01 750.126 337.041 750.21Z" fill="#E4E4E4"/>
<path fill-rule="evenodd" clip-rule="evenodd" d="M160.035 750.21C162.141 755.834 163.195 760.042 163.195 762.834C163.195 766.229 162.629 771.184 161.497 777.699C157.558 777.699 122.156 777.699 55.2901 777.699C52.5302 768.575 54.1234 763.649 60.0698 762.921C66.0161 762.194 70.9559 761.537 74.889 760.951L124.253 738.944C125.203 738.52 126.316 738.947 126.74 739.897C126.747 739.913 126.754 739.93 126.761 739.946L129.934 747.643C135.439 750.212 139.912 751.496 143.353 751.496C146.15 751.496 150.011 750.366 154.938 748.108L154.938 748.108C156.829 747.241 159.065 748.071 159.931 749.962C159.969 750.043 160.003 750.126 160.035 750.21Z" fill="#E4E4E4"/>
<path fill-rule="evenodd" clip-rule="evenodd" d="M268.645 327.65L238.516 445.679H146.491L160.213 327.65H268.645Z" fill="#69A1AC"/>
<path fill-rule="evenodd" clip-rule="evenodd" d="M285.592 327.65C295.506 357.366 297.389 396.709 291.241 445.679H197.333L171.51 327.65H285.592Z" fill="#89C5CC"/>
<path fill-rule="evenodd" clip-rule="evenodd" d="M93.437 297.753L40.0942 349.791C24.5734 356.411 11.8563 363.721 1.94296 371.722C-0.286407 374.411 -2.71344 379.563 7.77563 377.257C18.2647 374.952 29.4013 372.998 31.3727 376.409C33.3441 379.821 27.5352 385.048 31.1786 389.512C33.6075 392.488 41.7762 383.021 55.6846 361.112L111.154 328.408L93.437 297.753ZM330.205 305.091L290.854 305.246C315.151 383.682 328.268 425.3 330.205 430.099C334.562 440.897 325.342 457.343 321.399 466.181C334.241 471.928 332.873 450.646 349.073 458.183C363.86 465.062 375.109 477.527 392.193 466.986C394.293 465.69 396.595 460.81 391.034 456.997C377.179 447.496 357.213 430.869 354.515 425.396C350.836 417.933 342.733 377.831 330.205 305.091Z" fill="#B28B67"/>
<path fill-rule="evenodd" clip-rule="evenodd" d="M218.376 139.971L202.093 137.178C174.06 207.209 125.115 270.841 55.2604 328.074L108.046 392.204C177.893 310.712 220.946 226.634 218.376 139.971Z" fill="#191847"/>
<path fill-rule="evenodd" clip-rule="evenodd" d="M289.358 344.598H144.364C177.956 262.921 194.752 193.537 194.752 136.447L238.489 129.93C272.863 185.214 282.57 253.279 289.358 344.598Z" fill="#DDE3E9"/>
<path fill-rule="evenodd" clip-rule="evenodd" d="M239.415 129.961C239.41 129.951 239.404 129.941 239.398 129.93L236.543 129.93C233.127 130.048 227.923 130.26 220.933 130.566L210.364 160.769C209.246 197.593 202.718 271.803 190.779 383.4H285.826C285.577 391.107 285.166 398.887 284.593 406.738H355.265C344.694 287.474 306.089 195.204 239.45 129.93L239.415 129.961V129.961Z" fill="#2F3676"/>
<path fill-rule="evenodd" clip-rule="evenodd" d="M279.546 284.779C276.841 332.825 270.069 365.946 259.229 384.142H285.8C286.963 349.575 284.879 316.454 279.546 284.779V284.779Z" fill="black" fill-opacity="0.1"/>
<path fill-rule="evenodd" clip-rule="evenodd" d="M264.669 325.767L217.802 303.979V325.767H264.669Z" fill="white" fill-opacity="0.2"/>
</svg>
