<svg width="65" height="78" viewBox="0 0 65 78" fill="none" xmlns="http://www.w3.org/2000/svg">
<path fill-rule="evenodd" clip-rule="evenodd" d="M59.6574 18.829C63.1146 31.5686 67.62 60.2042 63.0226 64.6961H33.9371C33.9341 64.6445 33.9312 64.593 33.9284 64.5417C23.148 63.3487 14.7635 54.2086 14.7635 43.1102V22.0483C14.7635 10.1392 24.4177 0.484909 36.3269 0.484909H38.3328C49.1478 0.484909 58.1033 8.44685 59.6574 18.829Z" fill="#191847"/>
<path fill-rule="evenodd" clip-rule="evenodd" d="M26.059 39.0885C21.4375 33.6638 18.3096 27.0158 18.8322 19.5664C20.3382 -1.89711 50.2162 2.8246 56.0281 13.6576C61.84 24.4905 61.1494 51.9692 53.6381 53.9054C50.6425 54.6775 44.2612 52.7861 37.7665 48.8714L41.8431 77.7119H17.7723L26.059 39.0885Z" fill="#FBC797"/>
<path fill-rule="evenodd" clip-rule="evenodd" d="M32.5658 35.4625C33.6748 47.3756 33.2305 60.98 29.9253 64.2093H0.839843C-0.780713 36.0529 14.8811 46.9563 14.8811 20.4464C15.8576 19.4923 16.7802 18.548 17.6932 17.7337L17.6609 16.954C22.6974 6.64324 29.087 1.48785 36.8298 1.48785C48.4439 1.48785 52.1098 6.89206 55.2311 11.4803C52.8971 19.4889 43.8394 20.6764 35.791 25.6684C34.8424 24.8977 33.6327 24.4357 32.3151 24.4357C29.2686 24.4357 26.7989 26.9054 26.7989 29.9519C26.7989 32.9984 29.2686 35.4681 32.3151 35.4681C32.3991 35.4681 32.4827 35.4663 32.5658 35.4625Z" fill="#191847"/>
</svg>
