<svg width="52" height="86" viewBox="0 0 52 86" fill="none" xmlns="http://www.w3.org/2000/svg">
<path fill-rule="evenodd" clip-rule="evenodd" d="M13.2099 44.6775C8.29954 38.9138 4.97612 31.8503 5.53147 23.9354C7.13157 1.13038 38.8769 6.14719 45.052 17.6572C51.2272 29.1672 50.4934 58.3633 42.5126 60.4204C39.3299 61.2408 32.5497 59.2312 25.6491 55.0719L29.9805 85.7148H4.40533L13.2099 44.6775Z" fill="#E8B587"/>
<path fill-rule="evenodd" clip-rule="evenodd" d="M11.2447 49.811C8.03479 35.5304 -1.10978 25.7958 0.286819 19.413C1.21788 15.1578 3.69945 12.5116 7.73151 11.4745C9.81685 3.0383 16.5425 -0.549951 27.9085 0.70976C44.9575 2.59933 55.3632 9.67958 50.8695 25.2592C46.7387 25.2592 41.7519 23.7653 34.8563 26.3249C32.6684 27.137 31.1035 29.6555 30.1616 33.8803H27.0455C24.0212 28.8666 21.0392 27.0242 18.0995 28.3531C15.1599 29.682 14.4916 32.9099 16.0948 38.0369L14.5598 49.811H11.2447Z" fill="#E3C422"/>
</svg>
