<svg width="60" height="76" viewBox="0 0 60 76" fill="none" xmlns="http://www.w3.org/2000/svg">
<path fill-rule="evenodd" clip-rule="evenodd" d="M26.1071 37.3456C21.4856 31.9209 18.3577 25.2729 18.8804 17.8236C20.3864 -3.63998 50.2644 1.08173 56.0763 11.9147C61.8882 22.7476 61.1976 50.2263 53.6862 52.1625C50.6907 52.9346 44.3093 51.0432 37.8146 47.1286L41.8912 75.969H17.8205L26.1071 37.3456Z" fill="#B28B67"/>
<path fill-rule="evenodd" clip-rule="evenodd" d="M50.652 4.77123C50.1006 4.44216 48.9471 3.74805 48.3627 3.49648C48.2244 3.43595 47.2561 2.74516 47.2301 2.75391C46.497 3.00124 44.3741 3.91438 44.1919 4.70342C44.1637 4.76322 44.136 4.81931 44.109 4.86833C43.8082 5.41517 43.5322 5.9756 43.2689 6.54284C42.6911 7.78802 42.1923 9.08942 41.716 10.3806C40.7882 12.8952 39.9821 15.4684 39.2411 18.0474C38.4866 20.6728 37.8462 23.3289 37.1294 25.9652C36.0979 29.7586 34.7777 33.459 33.7533 37.2509C33.0991 39.6721 32.7353 42.1217 32.9071 44.6137C32.9088 44.6437 32.9097 44.6732 32.9125 44.7037C32.9135 44.7161 32.915 44.7284 32.9161 44.7409C32.9454 45.124 32.987 45.508 33.0425 45.8932C33.0911 46.2225 33.1398 46.553 33.1918 46.8835C34.1275 45.0176 34.8419 42.9617 35.6 41.0103C35.6741 40.8192 35.7449 40.6268 35.814 40.4337C36.0584 40.038 36.3077 39.6451 36.5597 39.2537C38.1491 36.7854 39.7448 34.3262 41.2689 31.8133C44.0102 27.2937 46.726 22.6784 49.9761 18.5281C50.9357 17.3025 51.9178 16.0957 52.8654 14.8601C53.4046 14.157 53.9299 13.4421 54.4381 12.7145C54.8014 12.1942 56.3809 10.3806 55.8089 9.29096C55.5163 8.73346 52.0822 5.62498 50.652 4.77123Z" fill="#2C2C2C"/>
<path fill-rule="evenodd" clip-rule="evenodd" d="M48.5368 3.58745C49.073 3.76763 48.8121 2.65189 48.2928 2.25926C45.8868 0.440288 36.6886 -0.21978 28.6841 1.44186C23.3218 2.555 17.0854 5.32555 12.8024 8.88731C8.94139 12.0983 6.28608 17.2456 4.919 22.2187C3.48361 27.4406 3.26621 32.8847 4.06591 38.2395C4.24159 39.4157 4.6191 40.5366 4.82944 41.6879C5.0663 42.9844 5.18781 44.2326 5.61006 45.494C5.86864 46.2662 6.30805 47.0232 6.52868 47.7999C6.78053 48.6861 6.62702 49.5059 6.44335 50.4073C6.14405 51.8764 5.77294 53.3425 5.24555 54.7456C4.45358 56.8526 3.49252 58.8259 2.88996 61.0123C2.08822 63.9215 -1.26552 73.3886 1.18539 75.969H47.8411C46.6663 72.7644 43.1398 68.9928 42.4259 65.5623C42.0054 63.5414 41.8054 59.1281 41.7614 58.9677C40.71 51.7201 38.6571 48.259 37.3713 47.003C36.0855 45.7469 34.373 45.3607 34.2847 44.2711C33.92 39.7649 35.712 35.4473 37.0259 31.2417C38.5919 26.2294 39.7395 21.0927 41.354 16.0973C42.0689 13.8853 45.7528 2.65189 48.5368 3.58745Z" fill="#8991DC"/>
<path fill-rule="evenodd" clip-rule="evenodd" d="M32.1787 8.77151C30.4194 14.3539 30.041 17.3337 30.4194 24.9612H29.5563C27.944 17.7631 29.379 10.9869 31.094 8.77151H32.1787ZM8.57542 23.1782C11.854 31.1336 13.3489 35.8314 22.5044 42.2691L21.7974 42.7641C12.7086 37.6131 10.0618 31.4688 7.8858 23.5096L8.57542 23.1782ZM22.0464 15.0824C23.5355 26.3743 23.9703 32.8243 31.7278 45.1761L30.9025 45.4285C22.9186 34.6738 21.653 25.8959 21.2758 15.1444L22.0464 15.0824ZM13.4772 48.625L14.1833 47.7666C23.819 50.7847 22.7457 57.0157 34.8818 63.326L33.8677 63.9405C23.2409 59.5548 20.7567 50.1485 13.4772 48.625Z" fill="black" fill-opacity="0.2"/>
</svg>
