<svg width="534" height="607" viewBox="0 0 534 607" fill="none" xmlns="http://www.w3.org/2000/svg">
<path fill-rule="evenodd" clip-rule="evenodd" d="M297.168 226.264C303.093 219.308 307.104 210.783 306.433 201.23C304.502 173.706 266.194 179.761 258.742 193.653C251.29 207.544 252.176 242.782 261.807 245.265C265.647 246.255 273.829 243.83 282.157 238.81L276.93 275.794H307.792L297.168 226.264Z" fill="#B28B67"/>
<path fill-rule="evenodd" clip-rule="evenodd" d="M276.333 177.642C280.401 176.975 291.353 176.516 293.373 176.516C294.664 176.516 296.062 176.811 296.827 175.626C297.453 174.655 297.223 173.013 297.41 171.887C297.627 170.578 297.935 169.287 298.247 167.998C299.134 164.332 300.475 160.844 302.352 157.569C305.873 151.426 311.032 146.613 317.544 143.813C324.736 140.721 332.873 140.013 340.609 140.64C348.887 141.311 356.381 144.044 364.196 146.616C371.644 149.067 379.446 150.032 387.235 148.835C395.084 147.629 401.014 143.375 407.635 139.336C414.412 135.202 422.157 132.498 430.168 133.12C437.647 133.7 444.54 136.789 450.724 140.915C456.51 144.775 461.285 149.419 463.98 155.956C466.88 162.987 466.877 170.705 462.109 176.919C455.197 185.926 442.366 188.255 431.692 188.024C425.517 187.89 419.453 186.763 413.624 184.712C405.849 181.977 399.131 177.342 391.858 173.581C388.445 171.816 384.917 170.367 381.219 169.323C377.63 168.309 374.096 167.844 370.847 170.012C367.41 172.306 364.33 174.559 360.397 175.995C356.625 177.373 352.63 178.143 348.611 178.112C340.791 178.052 333.083 175.615 325.489 173.983C319.296 172.652 312.669 171.326 306.356 172.605C303.721 173.139 299.873 174.241 298.921 176.979C314.937 179.882 321.227 199.693 316.712 214.235C314.275 222.084 299.627 231.26 293.932 227.134C290.323 224.519 292.514 221.087 293.932 218.822C296.646 214.483 297.575 208.91 292.552 205.889C288.218 203.284 283.662 209.471 283.576 209.464C282.385 209.37 272.094 203.549 265.004 195.055C258.009 195.469 256.948 190.857 258.618 187.084C260.288 183.312 270.713 178.564 276.333 177.642Z" fill="#191847"/>
<path d="M320.652 606.334C265.966 606.334 221.634 564.011 221.634 511.802C221.634 459.594 265.966 417.27 320.652 417.27C375.338 417.27 419.669 459.594 419.669 511.802C419.669 564.011 375.338 606.334 320.652 606.334Z" fill="url(#paint0_linear_0_351)"/>
<path fill-rule="evenodd" clip-rule="evenodd" d="M133.536 591.749C150.012 555.276 161.928 523.517 166.711 506.761C174.9 478.07 181.13 452.824 182.705 443.396C186.46 420.913 153.82 419.604 149.506 430.777C142.976 447.689 131.576 503.253 117.879 587.18L133.536 591.749ZM324.653 477.287C309.536 471.31 256.597 452.607 231.064 447.316C223.727 445.796 216.616 444.383 209.93 443.107C190.057 439.312 179.761 475.17 198.901 477.925C246.567 484.786 314.141 491.871 319.924 492.666C328.029 493.781 334.154 481.043 324.653 477.287Z" fill="#B28B67"/>
<path fill-rule="evenodd" clip-rule="evenodd" d="M197.732 433.24L279.502 391.607V382.544H269.777C190.669 402.706 150.245 415.626 148.505 421.306C148.486 421.367 148.469 421.428 148.453 421.49C148.413 421.542 148.374 421.595 148.336 421.647C132.658 443.212 123.269 548.492 120.187 556.375L150.229 560.858C161.721 518.237 198.487 488.546 197.511 437.5C197.774 436.003 197.841 434.583 197.732 433.24Z" fill="#1F28CF"/>
<path fill-rule="evenodd" clip-rule="evenodd" d="M272.708 457.965C280.19 456.467 287.079 455.13 292.975 454.096C331.056 447.415 342.161 427.027 335.595 382.544L265.431 382.544C253.97 385.837 194.406 410.82 163.501 424.108C143.047 432.903 149.495 464.606 161.078 472.857C161.141 473.363 161.349 473.707 161.721 473.861C224.03 499.69 273.323 486.138 289.789 490.468L297.406 466.438L272.708 457.965Z" fill="#2B44FF"/>
<path fill-rule="evenodd" clip-rule="evenodd" d="M319.483 473.468C323.565 473.858 326.463 474.472 328.177 475.308C330.261 476.325 333.134 478.156 336.794 480.801C335.615 483.219 325.017 504.952 305.002 546C298.575 544.962 296.028 542.509 297.361 538.641C298.695 534.773 299.77 531.544 300.588 528.953L301.856 492.06C301.881 491.35 302.476 490.794 303.186 490.818C303.198 490.819 303.21 490.82 303.222 490.82L308.897 491.177C312.121 488.567 314.248 486.206 315.278 484.093C316.115 482.376 316.578 479.667 316.667 475.966L316.667 475.966C316.701 474.546 317.879 473.423 319.299 473.457C319.361 473.458 319.422 473.462 319.483 473.468Z" fill="#E4E4E4"/>
<path fill-rule="evenodd" clip-rule="evenodd" d="M141.034 584.987C142.473 588.828 143.192 591.702 143.192 593.609C143.192 595.928 142.806 599.312 142.033 603.762C139.343 603.762 115.166 603.762 69.5036 603.762C67.6189 597.53 68.7069 594.166 72.7677 593.669C76.8285 593.172 80.2018 592.723 82.8878 592.323L116.599 577.292C117.247 577.002 118.008 577.294 118.297 577.943C118.302 577.954 118.307 577.965 118.311 577.976L120.478 583.233C124.237 584.988 127.292 585.865 129.642 585.865C131.552 585.865 134.189 585.093 137.554 583.551L137.554 583.551C138.845 582.959 140.372 583.526 140.963 584.817C140.989 584.873 141.013 584.929 141.034 584.987Z" fill="#E4E4E4"/>
<path fill-rule="evenodd" clip-rule="evenodd" d="M199.773 347.326L153.178 326.859C145.015 318.724 137.133 312.541 129.532 308.31C127.259 307.587 123.375 307.368 127.519 313.42C131.662 319.473 135.748 326.026 134.092 328.147C132.437 330.268 127.641 327.927 125.746 331.377C124.483 333.676 132.567 336.427 149.998 339.629L184.895 366.389L199.773 347.326ZM388.153 352.963L361.802 358.192C388.302 407.587 402.514 433.766 404.437 436.73C408.764 443.399 404.727 455.62 403.236 462.056C412.591 464.234 408.902 450.151 420.74 453.091C431.546 455.775 440.708 462.663 450.784 453.374C452.023 452.232 452.93 448.662 448.706 446.831C438.183 442.27 422.637 433.728 420.116 430.412C416.679 425.89 406.024 400.074 388.153 352.963Z" fill="#B28B67"/>
<path fill-rule="evenodd" clip-rule="evenodd" d="M290.181 254.356L279.062 252.449C254.842 275.947 244.958 332.401 228.818 339.873C213.557 346.938 191.924 340.101 166.21 330.87L158.336 348.467C181.699 373.748 231.473 395.106 251.648 382.913C283.904 363.419 291.351 293.792 290.181 254.356Z" fill="#DB2721"/>
<path fill-rule="evenodd" clip-rule="evenodd" d="M338.655 394.12C294.069 394.12 261.273 394.12 240.266 394.12C235.77 394.12 236.617 387.627 237.267 384.35C244.768 346.537 274.048 305.776 274.048 251.95L302.428 247.499C325.902 285.258 334.019 331.747 338.655 394.12Z" fill="#DDE3E9"/>
<path fill-rule="evenodd" clip-rule="evenodd" d="M348.468 355.835C368.526 392.021 385.385 418.072 399.046 433.99L419.669 429.95C406.385 347.549 367.914 286.732 304.259 247.499L303.935 247.499L293.022 247.499C267.544 334.361 260.52 392.238 271.95 421.129H360.516C359.115 399.989 354.622 377.633 348.468 355.835H348.468Z" fill="#FF4133"/>
<path d="M94.8359 387.743C94.6817 381.235 92.8817 375.782 90.2975 372.776L88.2532 380.936V371.136C87.3562 370.578 86.3061 370.327 85.2576 370.42C80.2306 370.888 76.3478 379.439 76.5792 389.513C76.8107 399.587 81.0791 407.383 86.1061 406.914C91.1332 406.445 95.0674 397.856 94.8359 387.743Z" fill="#57B894"/>
<path opacity="0.1" d="M93.8021 392.661C91.6627 393.131 89.5886 394.448 87.4493 394.709C85.3099 394.969 82.9619 393.952 81.6183 390.653C80.8878 388.88 80.5225 386.637 79.9094 384.694C79.4354 383.106 78.6407 381.633 77.5744 380.365C76.8292 383.348 76.4956 386.419 76.583 389.493C76.8178 399.585 81.1487 407.383 86.2492 406.914C90.5278 406.523 93.9847 400.394 94.8456 392.492C94.4948 392.528 94.1464 392.585 93.8021 392.661Z" fill="black"/>
<path d="M515.414 320.106C510.9 315.45 505.831 312.665 501.898 312.28L505.935 319.708L499.293 312.426C498.261 312.654 497.327 313.211 496.623 314.018C493.282 317.997 496.3 327.017 503.355 334.299C510.41 341.58 518.832 344.3 522.159 340.373C525.486 336.447 522.43 327.348 515.414 320.106Z" fill="#57B894"/>
<path opacity="0.1" d="M516.353 324.745C515.176 326.558 514.6 328.962 513.286 330.63C511.971 332.299 509.668 333.192 506.55 331.734C504.86 330.946 503.12 329.553 501.417 328.568C500.037 327.729 498.507 327.197 496.922 327.005C498.382 329.705 500.185 332.184 502.281 334.374C509.129 341.586 517.305 344.279 520.535 340.391C523.239 337.133 521.612 330.289 516.979 323.905C516.75 324.167 516.541 324.448 516.353 324.745Z" fill="black"/>
<path d="M241.886 152.864C244.18 152.864 246.04 151.005 246.04 148.713C246.04 146.42 244.18 144.561 241.886 144.561C239.592 144.561 237.732 146.42 237.732 148.713C237.732 151.005 239.592 152.864 241.886 152.864Z" fill="#F2F2F2"/>
<path d="M240.209 156.857C241.501 154.29 241.654 151.76 240.552 151.206C239.449 150.652 237.508 152.283 236.216 154.85C234.925 157.416 234.771 159.946 235.874 160.5C236.976 161.055 238.917 159.423 240.209 156.857Z" fill="#F2F2F2"/>
<path d="M425.469 17.4316C425.315 10.9892 423.515 5.4708 420.931 2.46433L418.887 10.6247V0.824442C417.99 0.267065 416.94 0.0161284 415.891 0.108616C410.864 0.577156 406.981 9.12802 407.213 19.2016C407.444 29.2753 411.713 37.0713 416.74 36.6027C421.767 36.1342 425.701 27.5443 425.469 17.4316Z" fill="#57B894"/>
<path opacity="0.1" d="M424.436 22.35C422.296 22.8194 420.222 24.1365 418.083 24.3973C415.943 24.6581 413.595 23.6409 412.252 20.3418C411.521 18.5684 411.156 16.3255 410.543 14.3826C410.069 12.7951 409.274 11.3216 408.208 10.0533C407.463 13.0366 407.129 16.1077 407.216 19.1813C407.451 29.2742 411.782 37.0721 416.883 36.6026C421.161 36.2114 424.618 30.0827 425.479 22.1805C425.128 22.2168 424.78 22.2734 424.436 22.35Z" fill="black"/>
<path d="M520.367 543.597C526.331 541.053 530.768 537.326 532.559 533.828L524.198 534.998L533.414 531.386C533.58 530.359 533.405 529.309 532.914 528.384C530.505 523.97 520.985 523.627 511.664 527.621C502.342 531.615 496.733 538.42 499.143 542.885C501.552 547.35 511.032 547.591 520.367 543.597Z" fill="#57B894"/>
<path opacity="0.1" d="M515.086 544.291C513.792 542.529 511.851 541.14 510.803 539.289C509.755 537.437 509.781 534.917 512.291 532.448C513.585 531.162 515.551 529.876 517.091 528.59C518.373 527.566 519.426 526.287 520.183 524.836C517.164 525.296 514.222 526.161 511.437 527.407C502.277 531.445 496.765 538.324 499.133 542.838C501.125 546.58 508.034 547.428 515.616 545.217C515.457 544.898 515.28 544.589 515.086 544.291Z" fill="black"/>
<path d="M21.9244 603.378C27.8887 600.834 32.3257 597.107 34.1163 593.609L25.7558 594.78L34.9722 591.167C35.1375 590.14 34.9623 589.09 34.4718 588.165C32.0624 583.751 22.5432 583.408 13.2214 587.402C3.89971 591.396 -1.70913 598.201 0.700301 602.666C3.10973 607.131 12.5895 607.373 21.9244 603.378Z" fill="#57B894"/>
<path opacity="0.1" d="M16.6432 604.072C15.3494 602.31 13.4087 600.922 12.3608 599.07C11.3128 597.218 11.3386 594.698 13.8486 592.229C15.1424 590.943 17.109 589.657 18.6486 588.372C19.9309 587.347 20.9841 586.069 21.7408 584.617C18.7219 585.077 15.7797 585.942 12.9947 587.189C3.83457 591.226 -1.67705 598.105 0.690618 602.619C2.68308 606.361 9.592 607.209 17.1737 604.998C17.0152 604.679 16.8381 604.37 16.6432 604.072Z" fill="black"/>
<defs>
<linearGradient id="paint0_linear_0_351" x1="224.209" y1="421.843" x2="444.827" y2="489.953" gradientUnits="userSpaceOnUse">
<stop stop-color="#FFC000"/>
<stop offset="1" stop-color="#FF8A00"/>
</linearGradient>
</defs>
</svg>
