<svg width="1510" height="809" viewBox="0 0 1510 809" fill="none" xmlns="http://www.w3.org/2000/svg">
<g opacity="0.1">
<path d="M1050.78 695.049C1072.76 695.798 1094.39 701.334 1111.19 711.661C1147.4 733.929 1147.4 770.031 1111.19 792.299C1093.08 803.432 1069.35 809 1045.62 809C1021.89 809 998.151 803.432 980.048 792.299C963.257 781.973 954.248 768.669 953.032 755.152L1050.78 695.049ZM1071.63 771.031H1089.99L1070.53 751.078L1061.59 760.231L1071.63 771.031ZM1062.73 771.031L1031.89 737.843L1001.05 771.031H1062.73ZM972.792 749.721C978.73 749.089 984.544 748.067 990.182 746.662C1000.72 744.033 1010.18 740.171 1018.3 735.181C1027 729.827 1033.58 723.549 1037.84 716.519C1039.68 713.473 1041.05 710.36 1041.95 707.198L972.792 749.721ZM967.77 773.013C972.011 778.951 977.984 784.31 985.511 788.94C993.627 793.93 1003.09 797.794 1013.62 800.421C1023.81 802.961 1034.57 804.248 1045.62 804.248C1056.66 804.248 1067.42 802.961 1077.61 800.421C1088.15 797.794 1097.61 793.93 1105.72 788.94C1113.84 783.948 1120.12 778.132 1124.39 771.651C1128.53 765.388 1130.62 758.771 1130.62 751.981C1130.62 745.189 1128.53 738.572 1124.39 732.308C1120.12 725.828 1113.84 720.012 1105.72 715.02C1098.19 710.39 1089.48 706.721 1079.83 704.115C1071.52 701.873 1062.77 700.477 1053.73 699.95L1050.73 701.793C1049.7 712.008 1044.21 722.086 1034.28 730.832L1057.2 755.502L1070.53 741.842L1103.65 775.783H1076.05H1037.41H987.733L1020.65 740.366C1004.51 749.421 984.43 754.341 964.004 755.124L961.001 756.971C961.854 762.525 964.128 767.911 967.77 773.013Z" fill="url(#paint0_linear_3_260)" style="mix-blend-mode:multiply"/>
<path d="M324.141 162.788L369.402 195.373L373.527 198.342L418.788 230.927L321.833 281.847L276.572 249.262L272.447 246.293L227.186 213.708L324.141 162.788ZM322.511 276.575L410.217 230.512L368.904 200.77L281.198 246.832L322.511 276.575ZM364.779 197.801L323.467 168.058L235.761 214.121L277.073 243.863L364.779 197.8L364.779 197.801Z" fill="#3D3D3D" fill-opacity="0.5"/>
<path d="M312.777 195.455L310.767 188.053L339.535 193.989L329.64 199.186L315.785 206.462L297.986 215.81L290.145 190.459L312.777 195.455ZM327.426 195.432L318.422 193.565L319.335 196.912L323.057 197.727L327.426 195.432ZM317.737 200.52L298.097 196.184L301.992 208.79L317.737 200.52Z" fill="#3D3D3D" fill-opacity="0.5"/>
<path d="M304.219 217.437L341.161 198.035C342.426 197.371 344.357 197.464 345.449 198.25C346.527 199.026 346.375 200.214 345.11 200.878L308.168 220.28C306.889 220.951 304.978 220.847 303.901 220.071C302.809 219.285 302.941 218.108 304.219 217.437Z" fill="#3D3D3D" fill-opacity="0.5"/>
<path d="M386.518 230.688C387.783 230.024 389.701 230.108 390.793 230.894C391.885 231.68 391.718 232.857 390.454 233.521C389.175 234.193 387.259 234.11 386.167 233.324C385.075 232.537 385.24 231.359 386.518 230.688Z" fill="#3D3D3D" fill-opacity="0.5"/>
<path d="M377.288 235.536C378.549 234.873 380.468 234.957 381.559 235.743C382.651 236.529 382.485 237.706 381.223 238.369C379.945 239.04 378.028 238.957 376.936 238.171C375.844 237.385 376.01 236.207 377.288 235.536Z" fill="#3D3D3D" fill-opacity="0.5"/>
<path d="M368.038 240.392C369.316 239.721 371.234 239.805 372.326 240.591C373.418 241.377 373.252 242.554 371.973 243.226C370.712 243.888 368.795 243.805 367.703 243.019C366.611 242.233 366.776 241.055 368.038 240.392Z" fill="#3D3D3D" fill-opacity="0.5"/>
<path d="M358.811 245.24C360.09 244.569 362.008 244.653 363.1 245.439C364.191 246.225 364.025 247.402 362.747 248.073C361.489 248.734 359.572 248.651 358.48 247.865C357.388 247.079 357.553 245.901 358.811 245.24Z" fill="#3D3D3D" fill-opacity="0.5"/>
<path d="M349.575 250.09C350.853 249.418 352.758 249.51 353.849 250.296C354.941 251.082 354.788 252.252 353.51 252.923C352.232 253.594 350.336 253.501 349.244 252.715C348.152 251.928 348.297 250.761 349.575 250.09Z" fill="#3D3D3D" fill-opacity="0.5"/>
<path d="M361.128 239.106L343.33 248.454L335.502 223.112L358.135 228.109L356.11 220.697L384.878 226.633L374.983 231.83L361.128 239.106L361.128 239.106ZM347.348 241.443L363.093 233.174L343.455 228.838L347.348 241.443ZM372.782 228.085L363.78 226.219L364.678 229.556L368.413 230.38L372.782 228.085L372.782 228.085Z" fill="#3D3D3D" fill-opacity="0.5"/>
<path d="M256.908 222.77C257.04 221.744 258.507 220.973 260.175 221.054L275.313 221.796L275.79 218.071C275.921 217.046 277.389 216.275 279.057 216.356C280.725 216.436 281.964 217.329 281.847 218.365L281.135 223.941C280.99 224.973 279.536 225.737 277.868 225.656L259.699 224.778C258.031 224.698 256.777 223.795 256.908 222.77Z" fill="#3D3D3D" fill-opacity="0.5"/>
<path d="M326.154 256.351C326.009 257.383 324.568 258.156 322.887 258.066L322.874 258.073L316.83 257.773L316.354 261.498C316.222 262.523 314.754 263.294 313.087 263.213C311.419 263.133 310.178 262.24 310.297 261.205L310.786 257.49L304.729 257.196C303.061 257.116 301.808 256.213 301.94 255.189C302.072 254.163 303.54 253.392 305.207 253.473L311.263 253.765L311.727 250.049L311.741 250.042C311.872 249.016 313.326 248.252 315.008 248.326C316.674 248.406 317.928 249.308 317.796 250.334L317.32 254.058L323.364 254.342C325.044 254.432 326.285 255.325 326.154 256.351Z" fill="#3D3D3D" fill-opacity="0.5"/>
<path d="M433.458 575.93L429.781 570.265L428.555 568.375L427.33 566.489C435.721 564.43 439.794 558.517 436.415 553.311C433.036 548.104 423.463 545.544 415.072 547.603L413.846 545.713L412.621 543.825L408.943 538.16L416.126 505.747L454.501 505.087L455.769 517.912L525.755 500.737L560.076 553.616L490.089 570.791L503.53 580.628L474.96 596.394L433.458 575.93ZM494.393 580.209L485.091 573.403L479.193 569.084L487.637 567.012L551.535 551.331L522.118 506.007L458.22 521.688L449.776 523.76L449.219 518.134L448.343 509.257L421.875 509.712L415.681 537.669L419.063 542.881C428.917 542.347 438.615 545.829 442.501 551.817C446.388 557.806 443.254 564.438 435.51 568.221L438.892 573.432L474.69 591.086L494.393 580.209Z" fill="url(#paint1_linear_3_260)" style="mix-blend-mode:multiply"/>
<path d="M484.45 538.045L472.867 536.861L490.443 522.539L495.112 529.733L501.65 539.805L510.055 552.756L470.129 549.206L484.45 538.045ZM488.689 530.703L484.693 533.957L489.115 534.41L490.429 533.385L488.688 530.703L488.689 530.703ZM493.253 537.735L482.393 546.196L499.746 547.739L493.253 537.735Z" fill="url(#paint2_linear_3_260)" style="mix-blend-mode:multiply"/>
<g clip-path="url(#clip0_3_260)">
<path d="M1312.88 606.095L1359.08 576.629L1324.07 554.299C1317.09 549.849 1317.09 542.634 1324.07 538.184C1327.56 535.959 1332.13 534.846 1336.7 534.846C1341.27 534.846 1345.85 535.959 1349.34 538.184L1384.36 560.514L1430.56 531.048L1455.84 547.163L1409.63 576.629L1449.88 602.296V618.412H1424.61L1384.36 592.744L1338.15 622.209L1312.88 606.095ZM1363.3 573.943L1369.6 569.926L1343 552.968L1336.7 556.985L1363.3 573.943ZM1345.13 540.869C1342.88 539.435 1339.89 538.645 1336.7 538.645C1333.52 538.645 1330.53 539.435 1328.28 540.869C1323.64 543.832 1323.64 548.652 1328.28 551.613L1332.49 554.299L1349.34 543.555L1345.13 540.869ZM1353.55 546.241L1347.22 550.282L1373.81 567.24L1380.15 563.2L1353.55 546.241ZM1430.56 536.421L1422.26 541.712L1426.48 544.398C1427.64 545.139 1427.64 546.343 1426.48 547.084C1425.31 547.825 1423.43 547.825 1422.26 547.084C1422.26 547.084 1422.26 547.083 1422.26 547.081L1418.05 544.398L1409.63 549.77L1413.84 552.456C1415 553.198 1415 554.401 1413.84 555.142C1412.68 555.884 1410.79 555.884 1409.63 555.142C1409.63 555.141 1409.63 555.141 1409.63 555.141L1405.41 552.456L1396.99 557.828L1401.2 560.511C1401.2 560.511 1401.2 560.513 1401.2 560.514C1402.37 561.256 1402.37 562.458 1401.2 563.199C1400.04 563.942 1398.16 563.942 1396.99 563.199V563.2L1392.78 560.514L1384.36 565.885L1388.57 568.571C1389.73 569.314 1389.73 570.515 1388.57 571.257C1387.41 571.998 1385.52 571.998 1384.36 571.257L1380.15 568.571L1371.72 573.943L1375.93 576.629C1377.1 577.37 1377.1 578.574 1375.93 579.315C1374.77 580.056 1372.88 580.056 1371.72 579.315C1371.72 579.314 1371.72 579.314 1371.72 579.314L1367.51 576.629L1359.08 582.001L1363.3 584.686V584.687C1364.46 585.429 1364.46 586.63 1363.3 587.373C1362.13 588.115 1360.25 588.115 1359.08 587.373L1354.87 584.687L1346.45 590.059L1350.66 592.744C1351.82 593.487 1351.82 594.688 1350.66 595.43C1349.5 596.171 1347.61 596.173 1346.45 595.43C1346.45 595.43 1346.45 595.43 1346.45 595.428L1342.24 592.744L1333.81 598.116L1338.02 600.801L1338.02 600.802C1339.19 601.543 1339.19 602.747 1338.02 603.488C1336.86 604.229 1334.97 604.229 1333.81 603.488L1329.6 600.802L1321.3 606.095L1338.15 616.838L1447.41 547.163L1430.56 536.421ZM1443.93 614.613V611.467L1438.99 614.613H1443.93ZM1427.08 614.613H1430.57L1443.93 606.095V603.87L1405.42 579.315L1399.08 583.356L1428.8 602.308C1429.96 603.05 1429.96 604.253 1428.8 604.994C1427.64 605.736 1425.75 605.736 1424.59 604.994L1394.87 586.042L1388.57 590.058L1427.08 614.613Z" fill="#3D3D3D" fill-opacity="0.61"/>
</g>
<g clip-path="url(#clip1_3_260)">
<path d="M683.52 114.115L729.726 84.6497L694.711 62.3198C687.73 57.87 687.73 50.6548 694.711 46.205C698.201 43.9794 702.773 42.8666 707.345 42.8666C711.917 42.8666 716.494 43.9794 719.984 46.205L754.999 68.5348L801.205 39.0692L826.478 55.184L780.272 84.6497L820.523 110.316V126.433H795.25L754.999 100.765L708.794 130.23L683.52 114.115ZM733.94 81.9636L740.24 77.9465L713.645 60.9888L707.345 65.0059L733.94 81.9636ZM715.769 48.8896C713.518 47.4554 710.53 46.6654 707.345 46.6654C704.164 46.6654 701.172 47.4556 698.921 48.8896C694.279 51.8525 694.279 56.6723 698.921 59.6338L703.135 62.3198L719.984 51.5757L715.769 48.8896ZM724.194 54.2617L717.859 58.3025L744.45 75.2603L750.789 71.2207L724.194 54.2617ZM801.205 44.4412L792.907 49.7327L797.121 52.4187C798.282 53.1601 798.282 54.3634 797.121 55.1048C795.956 55.8462 794.072 55.8462 792.907 55.1048C792.907 55.1048 792.907 55.1033 792.902 55.1019L788.697 52.4187L780.272 57.7908L784.482 60.4769C785.647 61.2183 785.647 62.4215 784.482 63.1629C783.322 63.9043 781.433 63.9043 780.272 63.1629C780.272 63.1615 780.272 63.1615 780.272 63.1615L776.058 60.4769L767.633 65.849L771.843 68.5322C771.843 68.5322 771.848 68.5336 771.848 68.535C773.008 69.2764 773.008 70.4782 771.848 71.2196C770.683 71.9624 768.798 71.9624 767.633 71.2196V71.221L763.423 68.535L754.999 73.9055L759.209 76.5915C760.374 77.3344 760.374 78.5362 759.209 79.2776C758.049 80.019 756.164 80.019 754.999 79.2776L750.789 76.5915L742.365 81.9636L746.575 84.6497C747.74 85.3911 747.74 86.5943 746.575 87.3357C745.414 88.0771 743.525 88.0771 742.365 87.3357C742.36 87.3343 742.36 87.3343 742.36 87.3343L738.15 84.6497L729.726 90.0218L733.94 92.7064V92.7078C735.101 93.4492 735.101 94.651 733.94 95.3939C732.775 96.1352 730.891 96.1352 729.726 95.3939L725.516 92.7078L717.091 98.0799L721.301 100.765C722.466 101.507 722.466 102.709 721.301 103.451C720.141 104.192 718.256 104.193 717.091 103.451C717.091 103.451 717.091 103.451 717.091 103.449L712.881 100.765L704.457 106.137L708.662 108.821L708.667 108.823C709.832 109.564 709.832 110.767 708.667 111.509C707.502 112.25 705.617 112.25 704.457 111.509L700.242 108.823L691.944 114.116L708.793 124.858L818.054 55.184L801.205 44.4412ZM814.568 122.634V119.487L809.629 122.634H814.568ZM797.719 122.634H801.209L814.568 114.115V111.891L776.058 87.3357L769.723 91.3765L799.442 110.329C800.607 111.071 800.607 112.274 799.442 113.015C798.282 113.757 796.397 113.757 795.232 113.015L765.509 94.0628L759.209 98.0787L797.719 122.634Z" fill="url(#paint3_linear_3_260)" style="mix-blend-mode:multiply"/>
</g>
<path d="M1203.86 370.304L1230.43 386.125C1231.65 386.853 1231.68 388.053 1230.5 388.803C1229.31 389.557 1227.36 389.577 1226.14 388.849L1199.57 373.028C1198.35 372.3 1198.32 371.1 1199.51 370.346C1200.69 369.596 1202.64 369.576 1203.86 370.304Z" fill="url(#paint4_linear_3_260)" style="mix-blend-mode:multiply"/>
<path d="M1234.72 383.401L1225.86 378.127C1224.64 377.399 1224.61 376.2 1225.79 375.448C1226.97 374.697 1228.92 374.679 1230.15 375.407L1239 380.681C1240.22 381.409 1240.26 382.607 1239.07 383.359C1237.89 384.11 1235.94 384.129 1234.72 383.401Z" fill="url(#paint5_linear_3_260)" style="mix-blend-mode:multiply"/>
<path d="M1170.78 343.875L1181.43 342.125L1175.21 358.525L1166.78 353.502L1154.98 346.472L1139.79 337.43L1176.16 330.946L1170.78 343.875ZM1171.69 351.145L1173.1 347.417L1169.04 348.083L1168.54 349.272L1171.69 351.145ZM1163.44 346.236L1167.52 336.435L1151.71 339.251L1163.44 346.236Z" fill="url(#paint6_linear_3_260)" style="mix-blend-mode:multiply"/>
<path d="M1188.91 298.079L1290.74 358.727C1291.97 359.455 1292 360.655 1290.81 361.407L1230.78 399.525C1229.6 400.275 1227.64 400.294 1226.42 399.566L1124.58 338.918C1123.36 338.192 1123.33 336.991 1124.51 336.241L1184.55 298.123C1185.73 297.371 1187.69 297.353 1188.91 298.079ZM1191.18 304.709L1209.7 346.582C1209.84 346.915 1210.7 347.423 1211.24 347.503L1279.91 357.555L1191.18 304.709ZM1228.5 395.524L1281.74 361.718L1209.82 351.191C1208.45 350.991 1207.12 350.503 1206.04 349.858C1204.95 349.212 1204.11 348.408 1203.75 347.577L1184.34 303.701L1131.09 337.513L1228.5 395.524Z" fill="url(#paint7_linear_3_260)" style="mix-blend-mode:multiply"/>
<path d="M921.785 41.4367C921.785 18.5511 951.81 0 988.853 0C1001.07 0 1012.52 2.01813 1022.38 5.54451C1032.25 2.01837 1043.7 0 1055.92 0C1092.96 0 1122.98 18.5511 1122.98 41.4367C1122.98 56.898 1109.28 70.3788 1088.97 77.4995C1084.98 98.0331 1056.7 113.951 1022.38 113.951C988.074 113.951 959.786 98.0331 955.801 77.4995C935.49 70.3788 921.785 56.898 921.785 41.4367ZM1079.76 80.1761C1072.35 81.9174 1064.32 82.8733 1055.92 82.8733C1043.7 82.8733 1032.25 80.8552 1022.38 77.3288C1012.52 80.855 1001.07 82.8733 988.853 82.8733C980.454 82.8733 972.423 81.9172 965.011 80.1761C965.779 82.3783 966.878 84.5331 968.309 86.6253C971.262 90.9424 975.499 94.8216 980.89 98.1525C986.281 101.483 992.556 104.099 999.544 105.926C1006.78 107.815 1014.46 108.773 1022.39 108.773C1030.31 108.773 1037.99 107.815 1045.23 105.926C1052.21 104.099 1058.49 101.483 1063.88 98.1525C1069.27 94.8216 1073.51 90.9427 1076.46 86.6253C1077.89 84.5331 1078.99 82.3783 1079.76 80.1761ZM963.765 74.2237C964.508 74.44 965.257 74.6486 966.012 74.8477C973.239 76.7369 980.926 77.695 988.853 77.695C996.78 77.695 1004.46 76.7371 1011.69 74.8477C1012.65 74.5954 1013.6 74.3279 1014.54 74.0472C999.414 66.7101 989.523 55.4448 988.89 42.7378C986.047 43.9613 983.37 45.3423 980.89 46.8768C975.498 50.2077 971.262 54.0866 968.308 58.4021C965.251 62.8691 963.703 67.617 963.703 72.5146C963.703 73.0874 963.722 73.6565 963.765 74.2237ZM997.302 39.7276C997.259 40.2948 997.235 40.8639 997.235 41.4367C997.235 46.3344 998.782 51.0822 1001.84 55.5473C1004.8 59.8644 1009.03 63.7436 1014.42 67.0745C1016.9 68.6034 1019.55 69.9786 1022.39 71.1965C1025.22 69.9786 1027.87 68.6034 1030.35 67.0745C1035.74 63.7436 1039.97 59.8647 1042.93 55.5473C1045.99 51.0822 1047.53 46.3344 1047.53 41.4367C1047.53 40.8639 1047.51 40.2948 1047.47 39.7276C1046.73 39.5113 1045.98 39.3027 1045.23 39.1036C1037.99 37.2144 1030.31 36.2564 1022.38 36.2564C1014.46 36.2564 1006.78 37.2142 999.543 39.1036C998.788 39.3027 998.039 39.5113 997.302 39.7276ZM1022.38 31.078C1030.78 31.078 1038.82 32.0341 1046.22 33.7752C1045.45 31.573 1044.36 29.4182 1042.93 27.326C1039.97 23.0089 1035.74 19.1297 1030.35 15.7988C1027.87 14.2699 1025.22 12.8947 1022.38 11.6768C1019.55 12.8947 1016.89 14.2699 1014.42 15.7988C1009.03 19.1297 1004.8 23.0086 1001.84 27.326C1000.41 29.4182 999.309 31.573 998.548 33.7752C1005.95 32.0339 1013.99 31.078 1022.38 31.078ZM1055.88 42.7378C1055.25 55.4448 1045.35 66.7101 1030.23 74.0472C1031.17 74.3279 1032.12 74.5954 1033.08 74.8477C1040.31 76.7369 1047.99 77.695 1055.92 77.695C1063.84 77.695 1071.53 76.7371 1078.76 74.8477C1079.51 74.6486 1080.26 74.4398 1081 74.2237C1081.05 73.6565 1081.07 73.0874 1081.07 72.5146C1081.07 67.617 1079.52 62.8691 1076.46 58.404C1073.51 54.0869 1069.27 50.2077 1063.88 46.8768C1061.4 45.3423 1058.72 43.9613 1055.88 42.7378ZM1030.23 8.82615C1043.88 15.4462 1053.26 25.2642 1055.43 36.4518C1075.17 43.3715 1088.67 56.3004 1089.42 71.2135C1092.26 69.99 1094.93 68.609 1097.41 67.0745C1102.81 63.7436 1107.04 59.8647 1109.99 55.5473C1113.05 51.0822 1114.6 46.3344 1114.6 41.4367C1114.6 36.539 1113.05 31.7911 1109.99 27.326C1107.04 23.0089 1102.81 19.1297 1097.41 15.7988C1092.02 12.4679 1085.74 9.85221 1078.76 8.0254C1071.53 6.1362 1063.84 5.17813 1055.92 5.17813C1047.99 5.17813 1040.31 6.13596 1033.08 8.0254C1032.12 8.27791 1031.17 8.54523 1030.23 8.82615ZM934.777 27.326C931.719 31.7913 930.166 36.539 930.166 41.4367C930.166 46.3344 931.719 51.0822 934.777 55.5473C937.731 59.8644 941.961 63.7436 947.358 67.0745C949.839 68.609 952.51 69.99 955.353 71.2135C956.102 56.3004 969.598 43.3715 989.338 36.4518C991.506 25.2642 1000.89 15.446 1014.54 8.82615C1013.6 8.54547 1012.65 8.27791 1011.69 8.02565C1004.46 6.13644 996.78 5.17837 988.853 5.17837C980.927 5.17837 973.239 6.1362 966.012 8.02565C959.025 9.85221 952.749 12.4681 947.358 15.799C941.961 19.1297 937.731 23.0089 934.777 27.326Z" fill="url(#paint8_linear_3_260)" style="mix-blend-mode:multiply"/>
<path d="M1503.95 133.182L1465.05 149.634L1448.39 156.685L1409.49 173.138L1312.2 93.4912L1417.77 48.836L1503.95 133.182ZM1494.8 132.019L1487.61 124.992L1453.59 139.385L1461.23 146.217L1494.8 132.019ZM1455.67 148.569L1440.38 134.903L1434.83 137.253L1450.12 150.918L1455.67 148.569ZM1444.56 153.268L1436.92 146.435L1402.89 160.83L1411 167.466L1444.56 153.268ZM1321.82 94.4598L1398.84 157.511L1433.1 143.019L1425.45 136.186C1424.4 135.243 1424.78 133.953 1426.32 133.304C1427.85 132.655 1429.95 132.893 1431.01 133.836C1429.95 132.893 1430.34 131.602 1431.88 130.953C1433.41 130.304 1435.51 130.543 1436.56 131.487C1435.51 130.543 1435.9 129.252 1437.43 128.603C1438.96 127.954 1441.07 128.192 1442.12 129.135L1449.76 135.968L1484.02 121.477L1415.8 54.7038L1321.82 94.4598Z" fill="#3D3D3D" fill-opacity="0.55"/>
<path d="M1423.22 113.639L1393.81 104.925L1394.84 115.098L1357.35 104.589L1371.9 98.4337L1392.28 89.8163L1418.47 78.7355L1423.22 113.639ZM1370.99 103.856L1387.41 108.457L1386.84 102.86L1378.9 100.509L1370.99 103.856L1370.99 103.856ZM1385.3 97.8013L1415.52 106.753L1412.72 86.2041L1385.3 97.8013Z" fill="#3D3D3D" fill-opacity="0.55"/>
<g clip-path="url(#clip2_3_260)">
<path d="M120.768 493.69C120.768 486.367 130.422 480.43 142.333 480.43C143.929 480.43 145.479 480.537 146.975 480.739L161.267 471.949L122.482 448.099C115.764 443.968 115.764 437.269 122.482 433.139C125.839 431.073 130.241 430.04 134.644 430.04C139.047 430.04 143.45 431.073 146.811 433.139L185.6 456.989L229.776 429.824C232.015 428.447 234.951 427.759 237.884 427.759C240.821 427.759 243.757 428.447 245.996 429.824C250.475 432.578 250.475 437.043 245.996 439.798L201.817 466.962L243.606 492.657V507.617H219.273L177.488 481.923L163.322 490.634C163.7 491.616 163.901 492.639 163.901 493.69C163.901 508.708 127.885 509.898 115.974 509.898C104.064 509.898 120.768 501.014 120.768 493.69ZM134.644 433.566C131.581 433.566 128.704 434.3 126.536 435.631C122.066 438.381 122.066 442.856 126.536 445.606L130.59 448.099L146.811 438.124L142.757 435.631C140.589 434.3 137.711 433.566 134.644 433.566ZM241.942 437.304C244.177 435.93 244.177 433.693 241.942 432.317C240.858 431.652 239.417 431.285 237.884 431.285C236.354 431.285 234.913 431.652 233.829 432.317L189.654 459.482L197.762 464.469L241.942 437.304ZM237.867 504.091V501.17L233.12 504.091H237.867ZM221.651 504.091H225.007L237.867 496.183V494.118L150.865 440.619L144.765 444.37L223.31 492.667C224.432 493.356 224.432 494.473 223.31 495.161C222.193 495.85 220.373 495.85 219.256 495.161L140.711 446.862L134.644 450.592L221.651 504.091ZM173.434 479.43L165.326 474.443L152.852 482.112C156.247 483.281 159.074 484.995 161.019 487.064L173.434 479.43ZM142.572 504.084C147.559 503.051 151.403 501.705 153.999 500.084C156.801 498.335 158.163 496.244 158.163 493.69C158.163 491.09 156.52 488.646 153.529 486.807C150.538 484.969 146.563 483.956 142.333 483.956C133.602 483.956 126.502 488.323 126.502 493.69C126.502 497.705 123.024 501.62 120.226 504.765C119.81 505.235 119.305 505.801 118.843 506.348C125.019 506.249 134.371 505.784 142.572 504.084Z" fill="url(#paint9_linear_3_260)" style="mix-blend-mode:multiply"/>
</g>
<g clip-path="url(#clip3_3_260)">
<path d="M595.173 369.356L341.588 413.537L326.155 380.054L579.746 335.87L595.173 369.356ZM348.09 406.378L365.973 403.26L363.397 397.679C362.692 396.138 364.147 394.536 366.651 394.096C369.157 393.663 371.763 394.558 372.478 396.097C372.475 396.101 372.475 396.101 372.475 396.101L375.045 401.679L393.198 398.516L390.627 392.938C389.916 391.395 391.372 389.792 393.882 389.355C396.382 388.919 398.998 389.813 399.703 391.354L402.273 396.937L420.426 393.774L417.859 388.192L417.856 388.191C417.144 386.653 418.603 385.046 421.106 384.612C423.616 384.175 426.222 385.069 426.93 386.612C426.933 386.613 426.933 386.613 426.933 386.613L429.504 392.191L447.656 389.028L445.083 383.449C444.375 381.907 445.83 380.304 448.337 379.866C450.84 379.431 453.449 380.327 454.161 381.866L456.731 387.449L474.884 384.286L472.31 378.707C471.599 377.163 473.058 375.562 475.565 375.124C478.071 374.685 480.677 375.58 481.389 377.123L483.959 382.707L502.108 379.543L499.538 373.96C498.827 372.421 500.286 370.815 502.789 370.38C505.299 369.943 507.905 370.838 508.613 372.38C508.616 372.381 508.616 372.381 508.616 372.381L511.187 377.959L529.34 374.797L526.766 369.218C526.058 367.675 527.513 366.073 530.02 365.634C532.524 365.2 535.133 366.096 535.844 367.634C535.844 367.634 535.844 367.634 535.841 367.638L538.414 373.217L556.567 370.055L554 364.477C553.997 364.476 553.994 364.475 553.994 364.475C553.286 362.933 554.741 361.331 557.248 360.892C559.755 360.454 562.364 361.35 563.072 362.892L565.645 368.471L583.526 365.356L573.242 343.033L337.803 384.054L348.09 406.378Z" fill="url(#paint10_linear_3_260)" style="mix-blend-mode:multiply"/>
</g>
<path d="M391.023 93.7112L465.4 37.0438C466.29 36.3654 467.912 36.2581 469.018 36.8072L533.125 68.6216C534.231 69.1707 534.403 70.1677 533.512 70.8462L506.678 91.2907L520.633 95.7816L521.28 95.2889C522.17 94.6104 523.793 94.5039 524.899 95.053C526.006 95.602 526.177 96.5992 525.287 97.2776L499.414 116.99C498.524 117.668 496.903 117.775 495.796 117.226C494.69 116.677 494.517 115.679 495.407 115.001L496.056 114.507L485.973 107.065L459.135 127.514C458.244 128.192 456.623 128.299 455.517 127.75L391.41 95.9358C390.304 95.3867 390.132 94.3897 391.023 93.7112ZM517.334 98.2953L503.397 93.8106L489.282 104.559L499.353 111.995L517.334 98.2954L517.334 98.2953ZM396.65 94.4656L448.735 120.314L519.872 66.1153L467.787 40.2668L396.65 94.4656ZM492.318 97.192L527.886 70.0926L523.879 68.1039L488.311 95.2033L452.742 122.303L456.749 124.291L492.318 97.192Z" fill="url(#paint11_linear_3_260)" style="mix-blend-mode:multiply"/>
<path d="M488.698 97.4286C487.591 96.8795 487.417 95.8842 488.31 95.204C489.203 94.5238 490.822 94.4183 491.928 94.9673C493.034 95.5164 493.21 96.5124 492.317 97.1926C491.424 97.8728 489.804 97.9776 488.698 97.4286Z" fill="url(#paint12_linear_3_260)" style="mix-blend-mode:multiply"/>
<path d="M470.944 47.9381L422.444 84.8899C422.444 84.8899 422.442 84.8917 422.44 84.8935C421.549 85.5719 419.928 85.6792 418.822 85.1301C417.715 84.5811 417.542 83.5833 418.432 82.9048L466.937 45.9495C467.833 45.2674 469.455 45.1608 470.562 45.7098C471.668 46.2589 471.84 47.256 470.944 47.9381Z" fill="url(#paint13_linear_3_260)" style="mix-blend-mode:multiply"/>
<path d="M478.958 51.9163L453.093 71.6229C453.09 71.6247 453.09 71.6247 453.09 71.6247C452.197 72.305 450.579 72.4105 449.472 71.8614C448.366 71.3123 448.192 70.317 449.085 69.6368L474.952 49.9284C475.848 49.2463 477.469 49.139 478.575 49.688C479.682 50.2371 479.853 51.2342 478.958 51.9163Z" fill="url(#paint14_linear_3_260)" style="mix-blend-mode:multiply"/>
<path d="M486.98 55.8937L451.414 82.9913C451.412 82.9932 451.412 82.9932 451.412 82.9932C450.519 83.6735 448.9 83.7789 447.794 83.2298C446.687 82.6808 446.512 81.6847 447.405 81.0044L482.973 53.905C483.868 53.223 485.49 53.1156 486.596 53.6647C487.704 54.2144 487.876 55.2116 486.98 55.8937Z" fill="url(#paint15_linear_3_260)" style="mix-blend-mode:multiply"/>
<path d="M494.987 59.8692L472.355 77.1126C471.46 77.7947 469.839 77.9021 468.732 77.353C467.626 76.8039 467.454 75.8069 468.349 75.1247L490.98 57.8806C491.875 57.1986 493.498 57.0919 494.605 57.641C495.711 58.1901 495.883 59.1872 494.987 59.8692Z" fill="url(#paint16_linear_3_260)" style="mix-blend-mode:multiply"/>
<path d="M503 63.8463L460.966 95.8719L460.967 95.8726C460.072 96.5547 458.449 96.6613 457.343 96.1122C456.237 95.5632 456.065 94.5662 456.96 93.884L498.994 61.8585C499.89 61.1764 501.511 61.069 502.617 61.6181C503.724 62.1672 503.895 63.1643 503 63.8463Z" fill="url(#paint17_linear_3_260)" style="mix-blend-mode:multiply"/>
<path d="M511.015 67.8238L498.083 77.6761C497.188 78.3582 495.567 78.4656 494.46 77.9165C493.354 77.3674 493.181 76.3696 494.076 75.6875L507.008 65.8352C507.903 65.1531 509.524 65.0458 510.631 65.5948C511.738 66.1446 511.91 67.1418 511.015 67.8238Z" fill="url(#paint18_linear_3_260)" style="mix-blend-mode:multiply"/>
<path d="M866.436 506.09L886.557 493.066L909.46 535.421L879.084 531.255L836.554 525.422L781.884 517.924L849.457 472.293L866.436 506.09ZM894.315 527.011L882.302 504.796L869.839 512.862L875.663 524.453L894.315 527.011ZM864.36 522.903L845.046 484.454L800.978 514.21L864.36 522.903Z" fill="#3D3D3D" fill-opacity="0.49"/>
<path d="M815.745 424.584L817.98 418.421C818.598 416.719 821.29 415.641 824 416.012C826.717 416.385 828.409 418.065 827.792 419.766L825.556 425.93L845.186 428.622L847.421 422.458C848.039 420.757 850.731 419.678 853.441 420.05C856.158 420.423 857.85 422.102 857.233 423.804L854.997 429.967L874.623 432.659L876.859 426.496C877.476 424.794 880.172 423.716 882.882 424.088C885.595 424.46 887.291 426.14 886.674 427.842L884.438 434.005L904.064 436.697L906.3 430.533C906.917 428.832 909.613 427.754 912.323 428.126C915.036 428.498 916.732 430.178 916.115 431.88L913.879 438.043L933.505 440.735L935.741 434.571C936.358 432.869 939.054 431.792 941.764 432.163C944.477 432.535 946.173 434.216 945.556 435.917L943.32 442.081L972.761 446.118L923.582 581.704L737.124 556.132L786.304 420.546L815.745 424.584ZM749.125 551.44L915.957 574.32L960.757 450.808L941.131 448.116L938.989 454.021C938.372 455.722 935.676 456.802 932.962 456.43C930.252 456.058 928.557 454.376 929.174 452.675L931.316 446.77L911.69 444.078L909.548 449.983C908.931 451.685 906.234 452.764 903.521 452.392C900.811 452.021 899.116 450.338 899.733 448.637L901.875 442.732L882.249 440.04L880.107 445.945C879.49 447.647 876.793 448.727 874.08 448.355C871.37 447.983 869.675 446.301 870.292 444.599L872.434 438.694L852.808 436.003L850.666 441.907C850.049 443.609 847.356 444.689 844.639 444.317C841.929 443.945 840.238 442.263 840.855 440.562L842.997 434.657L823.367 431.965L821.225 437.87C820.608 439.571 817.915 440.652 815.198 440.279C812.488 439.907 810.797 438.226 811.414 436.524L813.556 430.619L793.926 427.927L749.125 551.44Z" fill="#3D3D3D" fill-opacity="0.49"/>
<path d="M756.421 177.226L876.807 242.358C878.252 243.14 878.395 244.494 877.123 245.383L803.438 296.879C802.167 297.768 799.963 297.853 798.518 297.071L755.084 273.572L744.4 284.922L745.447 285.488C746.892 286.27 747.033 287.626 745.761 288.515C744.489 289.404 742.286 289.489 740.841 288.707L698.966 266.052C697.521 265.27 697.382 263.917 698.654 263.029C699.926 262.14 702.127 262.051 703.572 262.833L704.619 263.399L721.575 255.443L678.133 231.939C676.687 231.157 676.549 229.805 677.82 228.916L751.505 177.42C752.777 176.531 754.976 176.444 756.421 177.226ZM739.063 282.035L749.732 270.7L726.893 258.337L709.955 266.287L739.063 282.035L739.063 282.035ZM731.408 197.953L747.11 206.448L770.136 190.357L754.434 181.861L731.408 197.953ZM742.505 209.667L726.802 201.172L694.567 223.7L710.269 232.196L742.505 209.667ZM775.369 193.188L715.502 235.027L809.715 285.999L869.583 244.16L775.369 193.188ZM742.931 261.289L800.504 292.437L805.11 289.218L747.537 258.07L689.961 226.919L685.355 230.138L742.931 261.289Z" fill="url(#paint19_linear_3_260)" style="mix-blend-mode:multiply"/>
<path d="M742.623 258.263C743.895 257.374 746.094 257.287 747.543 258.071C748.989 258.853 749.127 260.205 747.856 261.094C746.584 261.983 744.383 262.071 742.937 261.29C741.488 260.506 741.351 259.152 742.623 258.263Z" fill="url(#paint20_linear_3_260)" style="mix-blend-mode:multiply"/>
<path d="M778.086 245.99L760.141 236.281L800.655 227.746L795.719 242.532L807.595 240.202L802.015 258.936L792.044 253.541L778.086 245.99ZM791.372 234.233L773.768 237.943L787.63 245.442L791.372 234.233ZM797.374 250.715L798.643 246.458L794.114 247.347L793.66 248.705L797.374 250.715Z" fill="url(#paint21_linear_3_260)" style="mix-blend-mode:multiply"/>
<path d="M839.443 239.268L844.676 242.099L840.07 245.318L834.837 242.487L839.443 239.268Z" fill="url(#paint22_linear_3_260)" style="mix-blend-mode:multiply"/>
<path d="M810.661 223.695L815.894 226.527L811.288 229.745L806.055 226.914L810.661 223.695Z" fill="url(#paint23_linear_3_260)" style="mix-blend-mode:multiply"/>
<path d="M781.873 208.121L787.11 210.954L782.504 214.173L777.267 211.34L781.873 208.121Z" fill="url(#paint24_linear_3_260)" style="mix-blend-mode:multiply"/>
<path d="M763.447 220.994L768.684 223.827L764.08 227.045L758.843 224.212L763.447 220.994Z" fill="url(#paint25_linear_3_260)" style="mix-blend-mode:multiply"/>
<path d="M745.023 233.867L750.26 236.701L745.654 239.919L740.417 237.086L745.023 233.867Z" fill="url(#paint26_linear_3_260)" style="mix-blend-mode:multiply"/>
<path d="M802.594 265.016L807.826 267.848L803.221 271.066L797.988 268.235L802.594 265.016Z" fill="url(#paint27_linear_3_260)" style="mix-blend-mode:multiply"/>
<path d="M821.019 252.143L826.251 254.974L821.647 258.192L816.415 255.361L821.019 252.143Z" fill="url(#paint28_linear_3_260)" style="mix-blend-mode:multiply"/>
<path d="M773.81 249.444L779.043 252.275L774.437 255.494L769.204 252.663L773.81 249.444Z" fill="url(#paint29_linear_3_260)" style="mix-blend-mode:multiply"/>
<path d="M5.49992 307.668C5.49992 319.218 13.1315 330.469 27.1562 339.093C41.0995 347.667 60.678 353.133 82.5683 353.133C104.459 353.133 124.037 347.667 137.98 339.093C152.005 330.469 159.637 319.218 159.637 307.668C159.637 296.119 152.005 284.868 137.98 276.244C124.037 267.67 104.459 262.204 82.5683 262.204C60.678 262.204 41.0995 267.67 27.1562 276.244C13.1315 284.868 5.49992 296.119 5.49992 307.668Z" stroke="url(#paint30_linear_3_260)" stroke-width="10" style="mix-blend-mode:multiply"/>
<path d="M551.651 688.555V675.815H583.138V653.369H604.879V675.815H636.367V688.555H604.879V711.972H583.138V688.555H551.651Z" fill="#3D3D3D" fill-opacity="0.53"/>
<path d="M309.494 671.96C309.495 667.056 331.234 625.242 246.444 639.955C161.654 654.668 135.565 630.146 118.172 582.886C100.78 535.626 50.0507 531.167 10.1923 532.059" stroke="url(#paint31_linear_3_260)" stroke-width="8" stroke-linecap="round" stroke-linejoin="round" style="mix-blend-mode:multiply"/>
<path d="M68.2884 145.791C71.0907 146.67 91.1055 158.841 97.8295 137.961C104.553 117.081 123.222 115.863 153.332 120.591C183.443 125.318 195.044 115.203 201.647 106.467" stroke="url(#paint32_linear_3_260)" stroke-width="8" stroke-linecap="round" stroke-linejoin="round" style="mix-blend-mode:multiply"/>
</g>
<defs>
<linearGradient id="paint0_linear_3_260" x1="955.441" y1="697.804" x2="1139.32" y2="785.943" gradientUnits="userSpaceOnUse">
<stop stop-color="#FFC000"/>
<stop offset="1" stop-color="#FF8A00"/>
</linearGradient>
<linearGradient id="paint1_linear_3_260" x1="452.796" y1="600.467" x2="450.253" y2="488.288" gradientUnits="userSpaceOnUse">
<stop stop-color="#FFC000"/>
<stop offset="1" stop-color="#FF8A00"/>
</linearGradient>
<linearGradient id="paint2_linear_3_260" x1="478.132" y1="560.134" x2="479.025" y2="523.875" gradientUnits="userSpaceOnUse">
<stop stop-color="#FFC000"/>
<stop offset="1" stop-color="#FF8A00"/>
</linearGradient>
<linearGradient id="paint3_linear_3_260" x1="685.379" y1="41.2738" x2="829.112" y2="107.709" gradientUnits="userSpaceOnUse">
<stop stop-color="#FFC000"/>
<stop offset="1" stop-color="#FF8A00"/>
</linearGradient>
<linearGradient id="paint4_linear_3_260" x1="1201.95" y1="369.292" x2="1199.06" y2="383.577" gradientUnits="userSpaceOnUse">
<stop stop-color="#FFC000"/>
<stop offset="1" stop-color="#FF8A00"/>
</linearGradient>
<linearGradient id="paint5_linear_3_260" x1="1228" y1="374.257" x2="1228.49" y2="384.654" gradientUnits="userSpaceOnUse">
<stop stop-color="#FFC000"/>
<stop offset="1" stop-color="#FF8A00"/>
</linearGradient>
<linearGradient id="paint6_linear_3_260" x1="1162.57" y1="323.534" x2="1171.14" y2="357.913" gradientUnits="userSpaceOnUse">
<stop stop-color="#FFC000"/>
<stop offset="1" stop-color="#FF8A00"/>
</linearGradient>
<linearGradient id="paint7_linear_3_260" x1="1186.52" y1="298.573" x2="1210.14" y2="400.392" gradientUnits="userSpaceOnUse">
<stop stop-color="#FFC000"/>
<stop offset="1" stop-color="#FF8A00"/>
</linearGradient>
<linearGradient id="paint8_linear_3_260" x1="924.4" y1="2.75577" x2="1117.59" y2="103.293" gradientUnits="userSpaceOnUse">
<stop stop-color="#FFC000"/>
<stop offset="1" stop-color="#FF8A00"/>
</linearGradient>
<linearGradient id="paint9_linear_3_260" x1="113.48" y1="429.745" x2="248.511" y2="496.449" gradientUnits="userSpaceOnUse">
<stop stop-color="#FFC000"/>
<stop offset="1" stop-color="#FF8A00"/>
</linearGradient>
<linearGradient id="paint10_linear_3_260" x1="608.472" y1="347.807" x2="503.584" y2="514.831" gradientUnits="userSpaceOnUse">
<stop stop-color="#FFC000"/>
<stop offset="1" stop-color="#FF8A00"/>
</linearGradient>
<linearGradient id="paint11_linear_3_260" x1="392.451" y1="95.183" x2="474.218" y2="10.5408" gradientUnits="userSpaceOnUse">
<stop stop-color="#FFC000"/>
<stop offset="1" stop-color="#FF8A00"/>
</linearGradient>
<linearGradient id="paint12_linear_3_260" x1="486.834" y1="96.4507" x2="490.064" y2="92.815" gradientUnits="userSpaceOnUse">
<stop stop-color="#FFC000"/>
<stop offset="1" stop-color="#FF8A00"/>
</linearGradient>
<linearGradient id="paint13_linear_3_260" x1="417.587" y1="83.6711" x2="431.488" y2="95.157" gradientUnits="userSpaceOnUse">
<stop stop-color="#FFC000"/>
<stop offset="1" stop-color="#FF8A00"/>
</linearGradient>
<linearGradient id="paint14_linear_3_260" x1="447.945" y1="70.6273" x2="464.25" y2="79.3743" gradientUnits="userSpaceOnUse">
<stop stop-color="#FFC000"/>
<stop offset="1" stop-color="#FF8A00"/>
</linearGradient>
<linearGradient id="paint15_linear_3_260" x1="446.391" y1="81.8989" x2="461.442" y2="92.3478" gradientUnits="userSpaceOnUse">
<stop stop-color="#FFC000"/>
<stop offset="1" stop-color="#FF8A00"/>
</linearGradient>
<linearGradient id="paint16_linear_3_260" x1="467.161" y1="76.1501" x2="483.955" y2="83.9425" gradientUnits="userSpaceOnUse">
<stop stop-color="#FFC000"/>
<stop offset="1" stop-color="#FF8A00"/>
</linearGradient>
<linearGradient id="paint17_linear_3_260" x1="456.026" y1="94.718" x2="470.436" y2="105.787" gradientUnits="userSpaceOnUse">
<stop stop-color="#FFC000"/>
<stop offset="1" stop-color="#FF8A00"/>
</linearGradient>
<linearGradient id="paint18_linear_3_260" x1="492.763" y1="76.8097" x2="510.148" y2="79.1584" gradientUnits="userSpaceOnUse">
<stop stop-color="#FFC000"/>
<stop offset="1" stop-color="#FF8A00"/>
</linearGradient>
<linearGradient id="paint19_linear_3_260" x1="753.102" y1="178.329" x2="796.488" y2="300.338" gradientUnits="userSpaceOnUse">
<stop stop-color="#FFC000"/>
<stop offset="1" stop-color="#FF8A00"/>
</linearGradient>
<linearGradient id="paint20_linear_3_260" x1="744.882" y1="256.769" x2="746.881" y2="261.924" gradientUnits="userSpaceOnUse">
<stop stop-color="#FFC000"/>
<stop offset="1" stop-color="#FF8A00"/>
</linearGradient>
<linearGradient id="paint21_linear_3_260" x1="784.654" y1="219.825" x2="795.742" y2="258.839" gradientUnits="userSpaceOnUse">
<stop stop-color="#FFC000"/>
<stop offset="1" stop-color="#FF8A00"/>
</linearGradient>
<linearGradient id="paint22_linear_3_260" x1="839.4" y1="239.383" x2="841.399" y2="244.538" gradientUnits="userSpaceOnUse">
<stop stop-color="#FFC000"/>
<stop offset="1" stop-color="#FF8A00"/>
</linearGradient>
<linearGradient id="paint23_linear_3_260" x1="810.617" y1="223.81" x2="812.617" y2="228.966" gradientUnits="userSpaceOnUse">
<stop stop-color="#FFC000"/>
<stop offset="1" stop-color="#FF8A00"/>
</linearGradient>
<linearGradient id="paint24_linear_3_260" x1="781.83" y1="208.235" x2="783.83" y2="213.394" gradientUnits="userSpaceOnUse">
<stop stop-color="#FFC000"/>
<stop offset="1" stop-color="#FF8A00"/>
</linearGradient>
<linearGradient id="paint25_linear_3_260" x1="763.404" y1="221.109" x2="765.403" y2="226.267" gradientUnits="userSpaceOnUse">
<stop stop-color="#FFC000"/>
<stop offset="1" stop-color="#FF8A00"/>
</linearGradient>
<linearGradient id="paint26_linear_3_260" x1="744.98" y1="233.982" x2="746.98" y2="239.141" gradientUnits="userSpaceOnUse">
<stop stop-color="#FFC000"/>
<stop offset="1" stop-color="#FF8A00"/>
</linearGradient>
<linearGradient id="paint27_linear_3_260" x1="802.55" y1="265.131" x2="804.55" y2="270.287" gradientUnits="userSpaceOnUse">
<stop stop-color="#FFC000"/>
<stop offset="1" stop-color="#FF8A00"/>
</linearGradient>
<linearGradient id="paint28_linear_3_260" x1="820.975" y1="252.258" x2="822.974" y2="257.413" gradientUnits="userSpaceOnUse">
<stop stop-color="#FFC000"/>
<stop offset="1" stop-color="#FF8A00"/>
</linearGradient>
<linearGradient id="paint29_linear_3_260" x1="773.767" y1="249.558" x2="775.766" y2="254.714" gradientUnits="userSpaceOnUse">
<stop stop-color="#FFC000"/>
<stop offset="1" stop-color="#FF8A00"/>
</linearGradient>
<linearGradient id="paint30_linear_3_260" x1="2.6337" y1="259.645" x2="165.497" y2="337.711" gradientUnits="userSpaceOnUse">
<stop stop-color="#FFC000"/>
<stop offset="1" stop-color="#FF8A00"/>
</linearGradient>
<linearGradient id="paint31_linear_3_260" x1="14.1157" y1="535.349" x2="276.463" y2="702.042" gradientUnits="userSpaceOnUse">
<stop stop-color="#FFC000"/>
<stop offset="1" stop-color="#FF8A00"/>
</linearGradient>
<linearGradient id="paint32_linear_3_260" x1="199.067" y1="106.722" x2="140.85" y2="191.13" gradientUnits="userSpaceOnUse">
<stop stop-color="#FFC000"/>
<stop offset="1" stop-color="#FF8A00"/>
</linearGradient>
<clipPath id="clip0_3_260">
<rect width="142.958" height="91.161" fill="white" transform="matrix(-1 0 0 1 1455.84 531.048)"/>
</clipPath>
<clipPath id="clip1_3_260">
<rect width="142.958" height="91.161" fill="white" transform="matrix(-1 0 0 1 826.478 39.0692)"/>
</clipPath>
<clipPath id="clip2_3_260">
<rect width="137.663" height="84.6495" fill="white" transform="matrix(-1 0 0 1 249.352 426.503)"/>
</clipPath>
<clipPath id="clip3_3_260">
<rect width="164.185" height="208.991" fill="white" transform="matrix(0.672298 -0.740281 -0.945793 -0.324769 504.306 469.412)"/>
</clipPath>
</defs>
</svg>
