<svg width="824" height="615" viewBox="0 0 824 615" fill="none" xmlns="http://www.w3.org/2000/svg">
<g opacity="0.1">
<path d="M640.332 451.233C649.09 451.719 657.712 455.307 664.405 461.999C678.835 476.43 678.835 499.825 664.405 514.256C657.189 521.471 647.733 525.079 638.275 525.079C628.819 525.079 619.361 521.471 612.147 514.256C605.456 507.564 601.866 498.943 601.382 490.183L640.332 451.233ZM648.641 500.473H655.959L648.202 487.543L644.641 493.474L648.641 500.473ZM645.096 500.473L632.805 478.966L620.514 500.473H645.096ZM609.256 486.663C611.622 486.254 613.939 485.592 616.185 484.681C620.384 482.977 624.154 480.475 627.388 477.241C630.858 473.772 633.477 469.703 635.176 465.147C635.911 463.173 636.456 461.156 636.812 459.106L609.256 486.663ZM607.254 501.758C608.945 505.606 611.325 509.078 614.324 512.079C617.558 515.313 621.328 517.817 625.526 519.519C629.587 521.166 633.874 521.999 638.275 521.999C642.676 521.999 646.965 521.166 651.023 519.519C655.224 517.817 658.992 515.313 662.226 512.079C665.46 508.844 667.966 505.075 669.667 500.875C671.314 496.816 672.148 492.528 672.148 488.128C672.148 483.726 671.315 479.438 669.667 475.379C667.966 471.18 665.46 467.411 662.226 464.176C659.226 461.175 655.754 458.797 651.907 457.108C648.599 455.656 645.11 454.751 641.509 454.41L640.315 455.604C639.902 462.224 637.716 468.755 633.757 474.423L642.892 490.41L648.202 481.558L661.399 503.553H650.401H635.005H615.21L628.325 480.601C621.894 486.469 613.893 489.657 605.754 490.165L604.557 491.362C604.897 494.961 605.803 498.452 607.254 501.758Z" fill="url(#paint0_linear_0_136)" style="mix-blend-mode:multiply"/>
<path d="M350.777 106.304L368.813 127.42L370.457 129.345L388.493 150.461L349.858 183.46L331.822 162.343L330.178 160.419L312.142 139.302L350.777 106.304ZM350.128 180.043L385.077 150.192L368.615 130.918L333.665 160.769L350.128 180.043ZM366.971 128.994L350.509 109.719L315.559 139.57L332.022 158.844L366.971 128.994L366.971 128.994Z" fill="#3D3D3D" fill-opacity="0.5"/>
<path d="M346.249 127.473L345.448 122.677L356.912 126.524L352.969 129.892L347.448 134.607L340.355 140.665L337.231 124.236L346.249 127.473ZM352.087 127.459L348.499 126.249L348.862 128.418L350.346 128.946L352.087 127.459ZM348.226 130.756L340.4 127.946L341.951 136.115L348.226 130.756Z" fill="#3D3D3D" fill-opacity="0.5"/>
<path d="M342.839 141.719L357.56 129.146C358.064 128.715 358.833 128.776 359.268 129.285C359.698 129.788 359.637 130.558 359.133 130.988L344.412 143.561C343.903 143.996 343.141 143.929 342.712 143.426C342.277 142.917 342.329 142.154 342.839 141.719Z" fill="#3D3D3D" fill-opacity="0.5"/>
<path d="M375.634 150.306C376.138 149.876 376.902 149.93 377.338 150.44C377.773 150.949 377.706 151.712 377.202 152.142C376.693 152.578 375.929 152.524 375.494 152.014C375.059 151.505 375.125 150.741 375.634 150.306Z" fill="#3D3D3D" fill-opacity="0.5"/>
<path d="M371.956 153.448C372.458 153.018 373.223 153.073 373.658 153.582C374.093 154.092 374.027 154.854 373.524 155.284C373.015 155.719 372.251 155.665 371.816 155.156C371.38 154.646 371.446 153.883 371.956 153.448Z" fill="#3D3D3D" fill-opacity="0.5"/>
<path d="M368.27 156.595C368.779 156.16 369.543 156.215 369.978 156.724C370.413 157.233 370.347 157.996 369.838 158.431C369.335 158.861 368.571 158.807 368.136 158.297C367.701 157.788 367.767 157.024 368.27 156.595Z" fill="#3D3D3D" fill-opacity="0.5"/>
<path d="M364.593 159.736C365.103 159.301 365.867 159.356 366.302 159.865C366.737 160.375 366.671 161.137 366.162 161.573C365.66 162.001 364.896 161.947 364.461 161.437C364.026 160.928 364.092 160.165 364.593 159.736Z" fill="#3D3D3D" fill-opacity="0.5"/>
<path d="M360.913 162.879C361.422 162.444 362.181 162.503 362.616 163.013C363.051 163.522 362.99 164.28 362.481 164.715C361.971 165.15 361.216 165.09 360.781 164.58C360.345 164.071 360.403 163.314 360.913 162.879Z" fill="#3D3D3D" fill-opacity="0.5"/>
<path d="M365.516 155.762L358.424 161.819L355.305 145.397L364.324 148.635L363.517 143.832L374.98 147.678L371.037 151.046L365.516 155.762L365.516 155.762ZM360.025 157.276L366.3 151.917L358.474 149.107L360.025 157.276ZM370.16 148.619L366.573 147.41L366.931 149.573L368.419 150.107L370.16 148.62L370.16 148.619Z" fill="#3D3D3D" fill-opacity="0.5"/>
<path d="M323.986 145.175C324.039 144.51 324.623 144.011 325.288 144.063L331.32 144.544L331.51 142.13C331.563 141.466 332.148 140.966 332.812 141.019C333.477 141.071 333.97 141.649 333.924 142.32L333.64 145.934C333.583 146.603 333.003 147.098 332.338 147.046L325.098 146.477C324.433 146.424 323.934 145.84 323.986 145.175Z" fill="#3D3D3D" fill-opacity="0.5"/>
<path d="M351.579 166.937C351.522 167.606 350.948 168.107 350.278 168.049L350.272 168.053L347.864 167.859L347.674 170.272C347.622 170.937 347.037 171.436 346.372 171.384C345.708 171.332 345.214 170.753 345.261 170.082L345.456 167.675L343.042 167.485C342.377 167.433 341.878 166.848 341.931 166.184C341.983 165.519 342.568 165.02 343.233 165.072L345.646 165.261L345.831 162.853L345.836 162.848C345.888 162.184 346.468 161.689 347.138 161.736C347.802 161.788 348.301 162.373 348.249 163.038L348.059 165.451L350.468 165.635C351.137 165.693 351.632 166.272 351.579 166.937Z" fill="#3D3D3D" fill-opacity="0.5"/>
<path d="M17.3042 429.639L15.8389 425.968L15.3502 424.743L14.8623 423.521C18.2058 422.186 19.829 418.355 18.4825 414.981C17.136 411.607 13.3213 409.947 9.97777 411.282L9.48909 410.057L9.00079 408.834L7.5355 405.162L10.3977 384.157L25.6894 383.73L26.1947 392.041L54.0834 380.911L67.7596 415.178L39.8709 426.309L45.2268 432.684L33.8422 442.901L17.3042 429.639ZM41.586 432.412L37.8791 428.001L35.5288 425.203L38.8937 423.86L64.3562 413.698L52.6339 384.326L27.1714 394.488L23.8065 395.831L23.5847 392.185L23.2356 386.432L12.6885 386.727L10.2202 404.844L11.5681 408.222C15.4946 407.876 19.3591 410.133 20.9078 414.013C22.4568 417.894 21.208 422.192 18.1218 424.643L19.4698 428.021L33.7346 439.461L41.586 432.412Z" fill="url(#paint1_linear_0_136)" style="mix-blend-mode:multiply"/>
<path d="M37.6238 405.088L33.0081 404.321L40.0119 395.039L41.8725 399.701L44.4775 406.228L47.827 414.621L31.9172 412.321L37.6238 405.088ZM39.3127 400.33L37.7206 402.439L39.4827 402.732L40.0063 402.068L39.3126 400.33L39.3127 400.33ZM41.1314 404.887L36.8041 410.37L43.7189 411.37L41.1314 404.887Z" fill="url(#paint2_linear_0_136)" style="mix-blend-mode:multiply"/>
<g clip-path="url(#clip0_0_136)">
<path d="M744.775 393.587L763.187 374.492L749.234 360.021C746.453 357.137 746.453 352.462 749.234 349.578C750.625 348.136 752.447 347.414 754.269 347.414C756.091 347.414 757.915 348.136 759.305 349.578L773.258 364.049L791.671 344.954L801.742 355.397L783.33 374.492L799.369 391.125V401.569H789.298L773.258 384.935L754.846 404.03L744.775 393.587ZM764.867 372.751L767.377 370.148L756.779 359.158L754.269 361.762L764.867 372.751ZM757.626 351.318C756.729 350.388 755.538 349.876 754.269 349.876C753.002 349.876 751.809 350.388 750.912 351.318C749.062 353.238 749.062 356.361 750.912 358.28L752.591 360.021L759.305 353.058L757.626 351.318ZM760.983 354.799L758.459 357.418L769.055 368.407L771.581 365.789L760.983 354.799ZM791.671 348.435L788.364 351.864L790.043 353.605C790.506 354.085 790.506 354.865 790.043 355.345C789.579 355.826 788.828 355.826 788.364 355.345C788.364 355.345 788.364 355.344 788.362 355.344L786.686 353.605L783.329 357.086L785.007 358.827C785.471 359.307 785.471 360.087 785.007 360.567C784.545 361.048 783.792 361.048 783.329 360.567C783.329 360.566 783.329 360.566 783.329 360.566L781.65 358.827L778.293 362.308L779.971 364.047C779.971 364.047 779.972 364.048 779.972 364.049C780.435 364.529 780.435 365.308 779.972 365.789C779.508 366.27 778.757 366.27 778.293 365.789V365.789L776.615 364.049L773.258 367.529L774.936 369.27C775.4 369.751 775.4 370.53 774.936 371.01C774.474 371.491 773.723 371.491 773.258 371.01L771.581 369.27L768.224 372.751L769.901 374.492C770.366 374.972 770.366 375.752 769.901 376.233C769.439 376.713 768.686 376.713 768.224 376.233C768.222 376.232 768.222 376.232 768.222 376.232L766.544 374.492L763.187 377.973L764.867 379.713V379.714C765.329 380.194 765.329 380.973 764.867 381.455C764.403 381.935 763.652 381.935 763.187 381.455L761.51 379.714L758.153 383.195L759.83 384.935C760.295 385.416 760.295 386.195 759.83 386.676C759.368 387.156 758.617 387.157 758.153 386.676C758.153 386.676 758.153 386.676 758.153 386.675L756.475 384.935L753.118 388.416L754.794 390.156L754.796 390.157C755.26 390.637 755.26 391.417 754.796 391.898C754.331 392.378 753.58 392.378 753.118 391.898L751.439 390.157L748.132 393.587L754.846 400.549L798.385 355.397L791.671 348.435ZM796.996 399.107V397.068L795.028 399.107H796.996ZM790.282 399.107H791.672L796.996 393.587V392.146L781.65 376.233L779.126 378.851L790.968 391.133C791.433 391.614 791.433 392.394 790.968 392.874C790.506 393.354 789.755 393.354 789.291 392.874L777.446 380.592L774.936 383.194L790.282 399.107Z" fill="#3D3D3D" fill-opacity="0.61"/>
</g>
<g clip-path="url(#clip1_0_136)">
<path d="M493.985 74.7618L512.397 55.6667L498.444 41.196C495.663 38.3123 495.663 33.6365 498.444 30.7528C499.835 29.3105 501.657 28.5894 503.479 28.5894C505.301 28.5894 507.125 29.3105 508.515 30.7528L522.468 45.2236L540.881 26.1284L550.952 36.5716L532.54 55.6667L548.579 72.3V82.7441H538.508L522.468 66.1099L504.056 85.205L493.985 74.7618ZM514.077 53.926L516.587 51.3227L505.989 40.3334L503.479 42.9366L514.077 53.926ZM506.836 32.4926C505.939 31.5631 504.748 31.0512 503.479 31.0512C502.212 31.0512 501.019 31.5633 500.122 32.4926C498.272 34.4127 498.272 37.5361 500.122 39.4553L501.801 41.196L508.515 34.2332L506.836 32.4926ZM510.193 35.9739L507.669 38.5926L518.265 49.5819L520.791 46.9641L510.193 35.9739ZM540.881 29.6098L537.574 33.0389L539.253 34.7796C539.716 35.26 539.716 36.0398 539.253 36.5203C538.789 37.0007 538.038 37.0007 537.574 36.5203C537.574 36.5203 537.574 36.5193 537.572 36.5184L535.896 34.7796L532.539 38.2609L534.217 40.0016C534.681 40.4821 534.681 41.2618 534.217 41.7423C533.755 42.2228 533.002 42.2228 532.539 41.7423C532.539 41.7414 532.539 41.7414 532.539 41.7414L530.86 40.0016L527.503 43.483L529.181 45.2218C529.181 45.2218 529.182 45.2227 529.182 45.2237C529.645 45.7041 529.645 46.483 529.182 46.9634C528.718 47.4448 527.967 47.4448 527.503 46.9634V46.9643L525.825 45.2237L522.468 48.704L524.146 50.4447C524.61 50.9261 524.61 51.7049 524.146 52.1854C523.684 52.6658 522.933 52.6658 522.468 52.1854L520.791 50.4447L517.434 53.926L519.111 55.6667C519.576 56.1472 519.576 56.9269 519.111 57.4074C518.649 57.8879 517.896 57.8879 517.434 57.4074C517.432 57.4065 517.432 57.4065 517.432 57.4065L515.754 55.6667L512.397 59.1481L514.077 60.8878V60.8888C514.539 61.3692 514.539 62.1481 514.077 62.6294C513.613 63.1099 512.862 63.1099 512.397 62.6294L510.72 60.8888L507.363 64.3701L509.04 66.1099C509.505 66.5913 509.505 67.3701 509.04 67.8506C508.578 68.331 507.827 68.3319 507.363 67.8506C507.363 67.8506 507.363 67.8506 507.363 67.8496L505.685 66.1099L502.328 69.5912L504.004 71.331L504.006 71.3319C504.47 71.8124 504.47 72.5921 504.006 73.0726C503.542 73.5531 502.79 73.5531 502.328 73.0726L500.649 71.3319L497.342 74.7619L504.056 81.7237L547.595 36.5716L540.881 29.6098ZM546.206 80.2822V78.2432L544.238 80.2822H546.206ZM539.492 80.2822H540.882L546.206 74.7618V73.3204L530.86 57.4074L528.336 60.026L540.178 72.3082C540.643 72.7886 540.643 73.5684 540.178 74.0489C539.716 74.5293 538.965 74.5293 538.501 74.0489L526.657 61.7668L524.146 64.3693L539.492 80.2822Z" fill="url(#paint3_linear_0_136)" style="mix-blend-mode:multiply"/>
</g>
<path d="M701.333 240.784L711.919 251.037C712.407 251.509 712.418 252.286 711.948 252.772C711.475 253.261 710.697 253.274 710.21 252.802L699.624 242.549C699.136 242.077 699.125 241.3 699.598 240.811C700.068 240.325 700.846 240.312 701.333 240.784Z" fill="url(#paint4_linear_0_136)" style="mix-blend-mode:multiply"/>
<path d="M713.629 249.271L710.101 245.854C709.613 245.382 709.6 244.605 710.072 244.118C710.543 243.631 711.321 243.62 711.808 244.091L715.336 247.509C715.823 247.981 715.836 248.757 715.365 249.244C714.893 249.731 714.116 249.743 713.629 249.271Z" fill="url(#paint5_linear_0_136)" style="mix-blend-mode:multiply"/>
<path d="M688.152 223.656L692.396 222.522L689.918 233.151L686.557 229.895L681.853 225.34L675.803 219.48L690.296 215.278L688.152 223.656ZM688.512 228.368L689.074 225.952L687.456 226.384L687.259 227.154L688.512 228.368ZM685.227 225.186L686.851 218.835L680.553 220.66L685.227 225.186Z" fill="url(#paint6_linear_0_136)" style="mix-blend-mode:multiply"/>
<path d="M695.374 193.979L735.954 233.282C736.442 233.753 736.455 234.531 735.983 235.018L712.059 259.72C711.588 260.206 710.81 260.219 710.323 259.747L669.742 220.444C669.256 219.974 669.244 219.195 669.714 218.709L693.639 194.007C694.11 193.52 694.888 193.508 695.374 193.979ZM696.279 198.276L703.658 225.411C703.717 225.627 704.057 225.956 704.275 226.008L731.639 232.522L696.279 198.276ZM711.15 257.127L732.368 235.22L703.706 228.398C703.163 228.268 702.632 227.952 702.2 227.534C701.768 227.115 701.434 226.594 701.288 226.056L693.556 197.622L672.334 219.534L711.15 257.127Z" fill="url(#paint7_linear_0_136)" style="mix-blend-mode:multiply"/>
<path d="M588.93 27.6626C588.93 12.8317 600.894 0.809753 615.656 0.809753C620.522 0.809753 625.086 2.11759 629.017 4.40285C632.949 2.11775 637.513 0.809753 642.379 0.809753C657.14 0.809753 669.105 12.8317 669.105 27.6626C669.105 37.6822 663.644 46.4184 655.55 51.033C653.962 64.3397 642.69 74.6554 629.017 74.6554C615.345 74.6554 604.073 64.3397 602.485 51.033C594.391 46.4184 588.93 37.6822 588.93 27.6626ZM651.88 52.7675C648.927 53.896 645.726 54.5155 642.379 54.5155C637.513 54.5155 632.949 53.2076 629.017 50.9224C625.086 53.2075 620.522 54.5155 615.656 54.5155C612.309 54.5155 609.108 53.8958 606.155 52.7675C606.461 54.1946 606.899 55.5911 607.469 56.9469C608.646 59.7446 610.334 62.2585 612.482 64.4171C614.631 66.5757 617.131 68.2707 619.916 69.4546C622.798 70.6789 625.859 71.2998 629.018 71.2998C632.176 71.2998 635.237 70.679 638.119 69.4546C640.904 68.2709 643.404 66.5757 645.553 64.4171C647.701 62.2585 649.389 59.7448 650.566 56.9469C651.136 55.5911 651.574 54.1946 651.88 52.7675ZM605.658 48.9101C605.954 49.0503 606.253 49.1855 606.554 49.3145C609.434 50.5388 612.497 51.1596 615.656 51.1596C618.814 51.1596 621.875 50.5389 624.755 49.3145C625.139 49.151 625.516 48.9776 625.89 48.7957C619.864 44.041 615.922 36.7405 615.67 28.5058C614.537 29.2987 613.471 30.1936 612.482 31.188C610.334 33.3466 608.646 35.8604 607.469 38.657C606.25 41.5518 605.634 44.6286 605.634 47.8026C605.634 48.1737 605.641 48.5426 605.658 48.9101ZM619.022 26.5551C619.005 26.9226 618.995 27.2914 618.995 27.6626C618.995 30.8365 619.612 33.9134 620.831 36.8069C622.01 39.6047 623.696 42.1185 625.844 44.2771C626.83 45.2679 627.889 46.1591 629.018 46.9484C630.145 46.1591 631.205 45.2679 632.191 44.2771C634.339 42.1185 636.025 39.6048 637.205 36.8069C638.423 33.9134 639.039 30.8365 639.039 27.6626C639.039 27.2914 639.03 26.9226 639.012 26.5551C638.719 26.4149 638.42 26.2797 638.119 26.1507C635.237 24.9264 632.176 24.3055 629.017 24.3055C625.859 24.3055 622.798 24.9263 619.915 26.1507C619.614 26.2797 619.316 26.4149 619.022 26.5551ZM629.017 20.9497C632.362 20.9497 635.565 21.5693 638.516 22.6976C638.21 21.2705 637.774 19.8741 637.204 18.5183C636.025 15.7206 634.339 13.2067 632.191 11.0481C631.205 10.0573 630.145 9.16611 629.017 8.37687C627.889 9.16611 626.83 10.0573 625.844 11.0481C623.695 13.2067 622.01 15.7204 620.83 18.5183C620.26 19.8741 619.822 21.2705 619.519 22.6976C622.47 21.5692 625.673 20.9497 629.017 20.9497ZM642.364 28.5058C642.112 36.7405 638.171 44.041 632.144 48.7957C632.519 48.9776 632.895 49.151 633.28 49.3145C636.159 50.5388 639.22 51.1596 642.379 51.1596C645.538 51.1596 648.601 50.5389 651.481 49.3145C651.782 49.1855 652.08 49.0501 652.376 48.9101C652.394 48.5426 652.401 48.1737 652.401 47.8026C652.401 44.6286 651.784 41.5518 650.566 38.6582C649.389 35.8605 647.701 33.3466 645.552 31.188C644.564 30.1936 643.497 29.2987 642.364 28.5058ZM632.144 6.5295C637.583 10.8196 641.322 17.1821 642.186 24.4322C650.052 28.9165 655.43 37.295 655.729 46.9594C656.861 46.1665 657.926 45.2715 658.914 44.2771C661.065 42.1185 662.751 39.6048 663.928 36.8069C665.146 33.9134 665.765 30.8365 665.765 27.6626C665.765 24.4887 665.146 21.4118 663.928 18.5183C662.751 15.7206 661.065 13.2067 658.914 11.0481C656.766 8.88949 654.265 7.19443 651.481 6.01058C648.601 4.78629 645.538 4.16542 642.379 4.16542C639.22 4.16542 636.159 4.78614 633.28 6.01058C632.896 6.17422 632.519 6.34745 632.144 6.5295ZM594.107 18.5183C592.889 21.412 592.27 24.4887 592.27 27.6626C592.27 30.8365 592.889 33.9134 594.107 36.8069C595.284 39.6047 596.97 42.1185 599.12 44.2771C600.109 45.2715 601.173 46.1665 602.306 46.9594C602.605 37.295 607.983 28.9165 615.849 24.4322C616.713 17.1821 620.451 10.8195 625.89 6.5295C625.516 6.34761 625.139 6.17422 624.755 6.01074C621.875 4.78645 618.814 4.16557 615.656 4.16557C612.497 4.16557 609.434 4.78629 606.554 6.01074C603.769 7.19443 601.269 8.88965 599.12 11.0482C596.97 13.2067 595.284 15.7206 594.107 18.5183Z" fill="url(#paint8_linear_0_136)" style="mix-blend-mode:multiply"/>
<path d="M820.913 87.1179L805.415 97.7793L798.773 102.349L783.274 113.011L744.505 61.3962L786.571 32.4576L820.913 87.1179ZM817.267 86.3639L814.404 81.81L800.846 91.1372L803.892 95.565L817.267 86.3639ZM801.677 97.0888L795.585 88.2333L793.371 89.756L799.463 98.6116L801.677 97.0888ZM797.25 100.134L794.204 95.7065L780.644 105.035L783.875 109.335L797.25 100.134ZM748.336 62.0239L779.028 102.884L792.68 93.4922L789.634 89.0644C789.214 88.453 789.368 87.6174 789.979 87.1969C790.59 86.7764 791.427 86.9303 791.848 87.5417C791.427 86.9303 791.583 86.0936 792.194 85.673C792.805 85.2524 793.641 85.4076 794.061 86.019C793.641 85.4076 793.796 84.5709 794.407 84.1503C795.019 83.7297 795.856 83.8837 796.276 84.4951L799.322 88.9229L812.973 79.5322L785.787 36.2602L748.336 62.0239Z" fill="#3D3D3D" fill-opacity="0.55"/>
<path d="M788.745 74.4531L777.024 68.8057L777.436 75.3982L762.497 68.5884L768.296 64.5992L776.414 59.0147L786.852 51.8339L788.745 74.4531ZM767.932 68.1128L774.475 71.0944L774.25 67.4677L771.085 65.9442L767.933 68.1129L767.932 68.1128ZM773.636 64.1894L785.675 69.9904L784.56 56.6738L773.636 64.1894Z" fill="#3D3D3D" fill-opacity="0.55"/>
<g clip-path="url(#clip2_0_136)">
<path d="M529.832 479.637C529.832 474.89 533.679 471.043 538.426 471.043C539.062 471.043 539.68 471.113 540.276 471.243L545.971 465.547L530.515 450.091C527.839 447.414 527.839 443.073 530.515 440.396C531.853 439.058 533.607 438.388 535.362 438.388C537.116 438.388 538.871 439.058 540.21 440.396L555.667 455.852L573.27 438.248C574.163 437.356 575.333 436.91 576.502 436.91C577.672 436.91 578.842 437.356 579.734 438.248C581.519 440.033 581.519 442.927 579.734 444.712L562.129 462.315L578.782 478.967V488.662H569.085L552.435 472.011L546.789 477.656C546.94 478.292 547.02 478.955 547.02 479.636C547.02 489.369 532.668 490.14 527.922 490.14C523.176 490.14 529.832 484.383 529.832 479.637ZM535.362 440.673C534.141 440.673 532.995 441.149 532.131 442.012C530.35 443.794 530.35 446.693 532.131 448.476L533.746 450.091L540.21 443.627L538.595 442.012C537.731 441.149 536.584 440.673 535.362 440.673ZM578.119 443.096C579.009 442.205 579.009 440.755 578.119 439.864C577.687 439.433 577.112 439.195 576.501 439.195C575.892 439.195 575.318 439.433 574.886 439.864L557.283 457.468L560.514 460.7L578.119 443.096ZM576.495 486.377V484.484L574.603 486.377H576.495ZM570.033 486.377H571.37L576.495 481.252V479.914L541.826 445.244L539.395 447.675L570.694 478.974C571.141 479.42 571.141 480.144 570.694 480.59C570.249 481.036 569.524 481.036 569.078 480.59L537.779 449.29L535.362 451.707L570.033 486.377ZM550.819 470.395L547.588 467.164L542.618 472.133C543.97 472.891 545.097 474.002 545.872 475.342L550.819 470.395ZM538.521 486.372C540.508 485.703 542.04 484.83 543.075 483.78C544.191 482.647 544.734 481.291 544.734 479.637C544.734 477.952 544.079 476.368 542.887 475.176C541.695 473.985 540.112 473.329 538.426 473.329C534.947 473.329 532.118 476.159 532.118 479.637C532.118 482.238 530.731 484.775 529.616 486.813C529.451 487.118 529.25 487.485 529.065 487.84C531.527 487.775 535.253 487.474 538.521 486.372Z" fill="url(#paint9_linear_0_136)" style="mix-blend-mode:multiply"/>
</g>
<g clip-path="url(#clip3_0_136)">
<path d="M474.61 254.054L373.56 282.685L367.41 260.987L468.463 232.353L474.61 254.054ZM376.151 278.046L383.277 276.025L382.25 272.409C381.97 271.41 382.549 270.371 383.547 270.087C384.546 269.806 385.584 270.385 385.869 271.383C385.868 271.386 385.868 271.386 385.868 271.386L386.892 275.001L394.126 272.951L393.102 269.336C392.818 268.336 393.398 267.297 394.398 267.014C395.395 266.732 396.437 267.311 396.718 268.309L397.742 271.927L404.976 269.878L403.953 266.26L403.952 266.26C403.668 265.263 404.249 264.222 405.247 263.94C406.247 263.657 407.286 264.237 407.568 265.236C407.569 265.237 407.569 265.237 407.569 265.237L408.593 268.852L415.827 266.802L414.801 263.187C414.519 262.187 415.099 261.149 416.098 260.865C417.096 260.583 418.135 261.163 418.419 262.161L419.443 265.779L426.677 263.729L425.651 260.113C425.368 259.113 425.949 258.075 426.948 257.791C427.947 257.507 428.985 258.087 429.269 259.087L430.293 262.705L437.525 260.655L436.501 257.037C436.217 256.04 436.799 254.999 437.796 254.718C438.797 254.434 439.835 255.014 440.117 256.014C440.118 256.014 440.118 256.014 440.118 256.014L441.143 259.629L448.376 257.58L447.351 253.964C447.069 252.964 447.649 251.926 448.648 251.642C449.645 251.36 450.685 251.941 450.968 252.938C450.968 252.938 450.968 252.938 450.967 252.94L451.992 256.556L459.226 254.506L458.203 250.892C458.202 250.892 458.201 250.891 458.201 250.891C457.919 249.891 458.498 248.853 459.497 248.569C460.496 248.285 461.536 248.865 461.818 249.865L462.844 253.48L469.969 251.462L465.871 236.995L372.052 263.579L376.151 278.046Z" fill="url(#paint10_linear_0_136)" style="mix-blend-mode:multiply"/>
</g>
<path d="M377.429 61.5391L407.068 24.816C407.422 24.3763 408.068 24.3068 408.509 24.6626L434.055 45.2798C434.496 45.6356 434.564 46.2818 434.209 46.7214L423.516 59.9704L429.077 62.8807L429.335 62.5615C429.69 62.1218 430.336 62.0527 430.777 62.4086C431.218 62.7644 431.286 63.4106 430.932 63.8503L420.622 76.6245C420.267 77.0642 419.621 77.1337 419.18 76.7779C418.739 76.4221 418.67 75.7755 419.025 75.3358L419.284 75.0154L415.266 70.1932L404.571 83.4445C404.216 83.8842 403.57 83.9537 403.129 83.5979L377.584 62.9807C377.143 62.6248 377.074 61.9787 377.429 61.5391ZM427.762 64.5098L422.209 61.6035L416.584 68.5692L420.597 73.3877L427.763 64.5098L427.762 64.5098ZM379.672 62.0279L400.427 78.7789L428.774 43.6556L408.019 26.9046L379.672 62.0279ZM417.794 63.7947L431.968 46.2331L430.371 44.9444L416.197 62.506L402.024 80.0676L403.62 81.3564L417.794 63.7947Z" fill="url(#paint11_linear_0_136)" style="mix-blend-mode:multiply"/>
<path d="M416.351 63.9482C415.911 63.5924 415.841 62.9474 416.197 62.5066C416.553 62.0658 417.198 61.9974 417.639 62.3532C418.08 62.7091 418.15 63.3545 417.794 63.7953C417.438 64.2361 416.792 64.304 416.351 63.9482Z" fill="url(#paint12_linear_0_136)" style="mix-blend-mode:multiply"/>
<path d="M409.277 31.8761L389.95 55.8226C389.95 55.8226 389.95 55.8238 389.949 55.8249C389.594 56.2646 388.948 56.3341 388.507 55.9782C388.066 55.6224 387.997 54.9758 388.352 54.5361L407.68 30.5874C408.037 30.1454 408.684 30.0763 409.125 30.4321C409.565 30.7879 409.634 31.4341 409.277 31.8761Z" fill="url(#paint13_linear_0_136)" style="mix-blend-mode:multiply"/>
<path d="M412.47 34.4539L402.163 47.2246C402.162 47.2258 402.162 47.2258 402.162 47.2258C401.806 47.6667 401.161 47.735 400.721 47.3792C400.28 47.0234 400.21 46.3784 400.566 45.9376L410.874 33.1656C411.231 32.7236 411.877 32.654 412.318 33.0098C412.759 33.3657 412.827 34.0119 412.47 34.4539Z" fill="url(#paint14_linear_0_136)" style="mix-blend-mode:multiply"/>
<path d="M415.667 37.0313L401.494 54.5919C401.493 54.5931 401.493 54.5931 401.493 54.5931C401.137 55.0339 400.492 55.1023 400.052 54.7464C399.611 54.3906 399.541 53.7451 399.897 53.3043L414.07 35.7426C414.427 35.3006 415.073 35.231 415.514 35.5868C415.955 35.9431 416.024 36.5893 415.667 37.0313Z" fill="url(#paint15_linear_0_136)" style="mix-blend-mode:multiply"/>
<path d="M418.858 39.6079L409.839 50.7824C409.482 51.2244 408.836 51.294 408.395 50.9382C407.954 50.5824 407.886 49.9363 408.243 49.4942L417.261 38.3192C417.618 37.8772 418.264 37.8081 418.705 38.1639C419.146 38.5197 419.214 39.1659 418.858 39.6079Z" fill="url(#paint16_linear_0_136)" style="mix-blend-mode:multiply"/>
<path d="M422.051 42.1853L405.301 62.9393L405.301 62.9398C404.945 63.3818 404.298 63.4509 403.857 63.0951C403.416 62.7393 403.348 62.0932 403.704 61.6511L420.455 40.8971C420.811 40.4551 421.457 40.3855 421.898 40.7413C422.339 41.0971 422.407 41.7433 422.051 42.1853Z" fill="url(#paint17_linear_0_136)" style="mix-blend-mode:multiply"/>
<path d="M425.244 44.7628L420.091 51.1475C419.735 51.5895 419.088 51.6591 418.648 51.3033C418.207 50.9475 418.138 50.3008 418.494 49.8588L423.647 43.4741C424.004 43.032 424.65 42.9625 425.091 43.3183C425.533 43.6745 425.601 44.3208 425.244 44.7628Z" fill="url(#paint18_linear_0_136)" style="mix-blend-mode:multiply"/>
<path d="M526.183 342.843L534.201 334.403L543.327 361.851L531.223 359.151L514.276 355.371L492.491 350.512L519.417 320.941L526.183 342.843ZM537.292 356.4L532.506 342.004L527.539 347.231L529.86 354.743L537.292 356.4ZM525.356 353.738L517.66 328.822L500.099 348.105L525.356 353.738Z" fill="#3D3D3D" fill-opacity="0.49"/>
<path d="M505.983 290.023L506.874 286.029C507.12 284.926 508.193 284.227 509.273 284.468C510.355 284.71 511.03 285.798 510.784 286.901L509.893 290.895L517.715 292.64L518.606 288.646C518.852 287.543 519.925 286.844 521.005 287.085C522.087 287.326 522.762 288.415 522.516 289.518L521.625 293.512L529.446 295.256L530.336 291.262C530.582 290.159 531.657 289.461 532.737 289.702C533.818 289.943 534.493 291.032 534.248 292.134L533.357 296.128L541.177 297.873L542.068 293.879C542.314 292.776 543.388 292.077 544.468 292.318C545.55 292.559 546.225 293.648 545.979 294.751L545.089 298.745L552.909 300.489L553.8 296.495C554.046 295.393 555.12 294.694 556.2 294.935C557.281 295.176 557.957 296.265 557.711 297.368L556.82 301.362L568.552 303.978L548.955 391.844L474.654 375.272L494.252 287.407L505.983 290.023ZM479.436 372.232L545.916 387.059L563.769 307.017L555.948 305.273L555.095 309.099C554.849 310.202 553.774 310.902 552.693 310.661C551.613 310.42 550.938 309.33 551.183 308.227L552.037 304.401L544.216 302.656L543.363 306.483C543.117 307.586 542.042 308.285 540.961 308.044C539.881 307.803 539.206 306.713 539.452 305.61L540.305 301.784L532.484 300.04L531.631 303.866C531.385 304.969 530.31 305.669 529.229 305.428C528.149 305.187 527.474 304.096 527.72 302.994L528.573 299.167L520.753 297.423L519.899 301.25C519.653 302.352 518.58 303.052 517.497 302.811C516.417 302.57 515.743 301.48 515.989 300.378L516.843 296.551L509.021 294.806L508.167 298.633C507.921 299.736 506.848 300.436 505.765 300.194C504.685 299.953 504.012 298.863 504.258 297.761L505.111 293.934L497.289 292.19L479.436 372.232Z" fill="#3D3D3D" fill-opacity="0.49"/>
<path d="M523.035 115.66L571.007 157.869C571.583 158.375 571.64 159.253 571.133 159.829L541.771 193.201C541.264 193.777 540.386 193.832 539.81 193.325L522.502 178.097L518.245 185.452L518.662 185.819C519.238 186.326 519.294 187.205 518.787 187.78C518.281 188.356 517.402 188.412 516.826 187.905L500.14 173.223C499.564 172.717 499.509 171.84 500.016 171.264C500.523 170.688 501.4 170.631 501.976 171.137L502.393 171.504L509.149 166.348L491.838 151.117C491.262 150.61 491.207 149.734 491.714 149.158L521.076 115.786C521.583 115.21 522.459 115.153 523.035 115.66ZM516.118 183.581L520.37 176.236L511.269 168.224L504.519 173.375L516.118 183.581L516.118 183.581ZM513.068 129.092L519.325 134.598L528.5 124.169L522.243 118.664L513.068 129.092ZM517.49 136.684L511.232 131.178L498.387 145.778L504.644 151.283L517.49 136.684ZM530.586 126.004L506.729 153.118L544.272 186.15L568.128 159.036L530.586 126.004ZM517.66 170.137L540.601 190.322L542.437 188.236L519.495 168.051L496.552 147.864L494.716 149.95L517.66 170.137Z" fill="url(#paint19_linear_0_136)" style="mix-blend-mode:multiply"/>
<path d="M517.537 168.176C518.043 167.6 518.92 167.543 519.497 168.051C520.073 168.558 520.129 169.434 519.622 170.01C519.115 170.586 518.238 170.644 517.662 170.137C517.085 169.629 517.03 168.752 517.537 168.176Z" fill="url(#paint20_linear_0_136)" style="mix-blend-mode:multiply"/>
<path d="M531.668 160.222L524.518 153.931L540.662 148.399L538.695 157.981L543.427 156.471L541.204 168.612L537.23 165.116L531.668 160.222ZM536.963 152.603L529.947 155.007L535.471 159.868L536.963 152.603ZM539.354 163.284L539.86 160.526L538.055 161.102L537.874 161.982L539.354 163.284Z" fill="url(#paint21_linear_0_136)" style="mix-blend-mode:multiply"/>
<path d="M556.118 155.866L558.203 157.701L556.368 159.787L554.283 157.952L556.118 155.866Z" fill="url(#paint22_linear_0_136)" style="mix-blend-mode:multiply"/>
<path d="M544.649 145.775L546.734 147.609L544.899 149.695L542.813 147.86L544.649 145.775Z" fill="url(#paint23_linear_0_136)" style="mix-blend-mode:multiply"/>
<path d="M533.177 135.681L535.264 137.517L533.428 139.603L531.342 137.767L533.177 135.681Z" fill="url(#paint24_linear_0_136)" style="mix-blend-mode:multiply"/>
<path d="M525.835 144.024L527.922 145.86L526.087 147.945L524.001 146.109L525.835 144.024Z" fill="url(#paint25_linear_0_136)" style="mix-blend-mode:multiply"/>
<path d="M518.493 152.367L520.58 154.203L518.744 156.289L516.658 154.453L518.493 152.367Z" fill="url(#paint26_linear_0_136)" style="mix-blend-mode:multiply"/>
<path d="M541.434 172.552L543.519 174.387L541.684 176.473L539.599 174.638L541.434 172.552Z" fill="url(#paint27_linear_0_136)" style="mix-blend-mode:multiply"/>
<path d="M548.776 164.21L550.861 166.045L549.027 168.13L546.942 166.295L548.776 164.21Z" fill="url(#paint28_linear_0_136)" style="mix-blend-mode:multiply"/>
<path d="M529.964 162.461L532.049 164.295L530.214 166.381L528.129 164.547L529.964 162.461Z" fill="url(#paint29_linear_0_136)" style="mix-blend-mode:multiply"/>
<circle cx="32.7031" cy="32.7031" r="27.7454" transform="matrix(-1 0 0 1 287.217 167.49)" stroke="black" stroke-width="9.91541" style="mix-blend-mode:multiply"/>
<path d="M448.874 599.698V591.442H461.421V576.895H470.085V591.442H482.632V599.698H470.085V614.873H461.421V599.698H448.874Z" fill="#3D3D3D" fill-opacity="0.53"/>
<path d="M183.423 326.53C183.424 323.351 192.086 296.254 158.299 305.789C124.511 315.324 114.115 299.432 107.184 268.805C100.254 238.179 80.039 235.289 64.156 235.867" stroke="black" stroke-width="7.93233" stroke-linecap="round" stroke-linejoin="round" style="mix-blend-mode:multiply"/>
<path d="M248.824 95.2891C249.941 95.8588 257.916 103.746 260.596 90.2151C263.275 76.684 270.714 75.8943 282.713 78.958C294.711 82.0217 299.334 75.4663 301.966 69.8053" stroke="black" stroke-width="7.93233" stroke-linecap="round" stroke-linejoin="round" style="mix-blend-mode:multiply"/>
</g>
<defs>
<linearGradient id="paint0_linear_0_136" x1="602.342" y1="453.019" x2="685.247" y2="477.455" gradientUnits="userSpaceOnUse">
<stop/>
<stop offset="1" stop-color="#FF8A00"/>
</linearGradient>
<linearGradient id="paint1_linear_0_136" x1="25.0101" y1="445.541" x2="22.3326" y2="372.904" gradientUnits="userSpaceOnUse">
<stop/>
<stop offset="1" stop-color="#FF8A00"/>
</linearGradient>
<linearGradient id="paint2_linear_0_136" x1="35.1061" y1="419.403" x2="36.0467" y2="395.928" gradientUnits="userSpaceOnUse">
<stop/>
<stop offset="1" stop-color="#FF8A00"/>
</linearGradient>
<linearGradient id="paint3_linear_0_136" x1="494.726" y1="27.5571" x2="559.042" y2="45.8368" gradientUnits="userSpaceOnUse">
<stop/>
<stop offset="1" stop-color="#FF8A00"/>
</linearGradient>
<linearGradient id="paint4_linear_0_136" x1="700.571" y1="240.128" x2="697.709" y2="248.823" gradientUnits="userSpaceOnUse">
<stop/>
<stop offset="1" stop-color="#FF8A00"/>
</linearGradient>
<linearGradient id="paint5_linear_0_136" x1="710.953" y1="243.346" x2="711.47" y2="250.059" gradientUnits="userSpaceOnUse">
<stop/>
<stop offset="1" stop-color="#FF8A00"/>
</linearGradient>
<linearGradient id="paint6_linear_0_136" x1="684.881" y1="210.474" x2="693.12" y2="230.798" gradientUnits="userSpaceOnUse">
<stop/>
<stop offset="1" stop-color="#FF8A00"/>
</linearGradient>
<linearGradient id="paint7_linear_0_136" x1="694.423" y1="194.299" x2="717.387" y2="255.17" gradientUnits="userSpaceOnUse">
<stop/>
<stop offset="1" stop-color="#FF8A00"/>
</linearGradient>
<linearGradient id="paint8_linear_0_136" x1="589.972" y1="2.59562" x2="678.716" y2="30.9941" gradientUnits="userSpaceOnUse">
<stop/>
<stop offset="1" stop-color="#FF8A00"/>
</linearGradient>
<linearGradient id="paint9_linear_0_136" x1="526.928" y1="438.197" x2="588.212" y2="456.813" gradientUnits="userSpaceOnUse">
<stop/>
<stop offset="1" stop-color="#FF8A00"/>
</linearGradient>
<linearGradient id="paint10_linear_0_136" x1="479.91" y1="240.089" x2="404.464" y2="313.963" gradientUnits="userSpaceOnUse">
<stop/>
<stop offset="1" stop-color="#FF8A00"/>
</linearGradient>
<linearGradient id="paint11_linear_0_136" x1="377.998" y1="62.4928" x2="426.034" y2="31.917" gradientUnits="userSpaceOnUse">
<stop/>
<stop offset="1" stop-color="#FF8A00"/>
</linearGradient>
<linearGradient id="paint12_linear_0_136" x1="415.609" y1="63.3145" x2="417.581" y2="61.9491" gradientUnits="userSpaceOnUse">
<stop/>
<stop offset="1" stop-color="#FF8A00"/>
</linearGradient>
<linearGradient id="paint13_linear_0_136" x1="388.015" y1="55.0327" x2="395.424" y2="58.7968" gradientUnits="userSpaceOnUse">
<stop/>
<stop offset="1" stop-color="#FF8A00"/>
</linearGradient>
<linearGradient id="paint14_linear_0_136" x1="400.112" y1="46.5794" x2="407.658" y2="49.0686" gradientUnits="userSpaceOnUse">
<stop/>
<stop offset="1" stop-color="#FF8A00"/>
</linearGradient>
<linearGradient id="paint15_linear_0_136" x1="399.492" y1="53.8839" x2="407.011" y2="57.0933" gradientUnits="userSpaceOnUse">
<stop/>
<stop offset="1" stop-color="#FF8A00"/>
</linearGradient>
<linearGradient id="paint16_linear_0_136" x1="407.769" y1="50.1587" x2="415.29" y2="52.3045" gradientUnits="userSpaceOnUse">
<stop/>
<stop offset="1" stop-color="#FF8A00"/>
</linearGradient>
<linearGradient id="paint17_linear_0_136" x1="403.332" y1="62.1915" x2="410.797" y2="65.7176" gradientUnits="userSpaceOnUse">
<stop/>
<stop offset="1" stop-color="#FF8A00"/>
</linearGradient>
<linearGradient id="paint18_linear_0_136" x1="417.971" y1="50.5861" x2="424.977" y2="51.168" gradientUnits="userSpaceOnUse">
<stop/>
<stop offset="1" stop-color="#FF8A00"/>
</linearGradient>
<linearGradient id="paint19_linear_0_136" x1="521.712" y1="116.375" x2="560.31" y2="183.119" gradientUnits="userSpaceOnUse">
<stop/>
<stop offset="1" stop-color="#FF8A00"/>
</linearGradient>
<linearGradient id="paint20_linear_0_136" x1="518.437" y1="167.207" x2="520.171" y2="169.957" gradientUnits="userSpaceOnUse">
<stop/>
<stop offset="1" stop-color="#FF8A00"/>
</linearGradient>
<linearGradient id="paint21_linear_0_136" x1="534.285" y1="143.266" x2="544.692" y2="165.782" gradientUnits="userSpaceOnUse">
<stop/>
<stop offset="1" stop-color="#FF8A00"/>
</linearGradient>
<linearGradient id="paint22_linear_0_136" x1="556.101" y1="155.941" x2="557.835" y2="158.69" gradientUnits="userSpaceOnUse">
<stop/>
<stop offset="1" stop-color="#FF8A00"/>
</linearGradient>
<linearGradient id="paint23_linear_0_136" x1="544.631" y1="145.849" x2="546.366" y2="148.598" gradientUnits="userSpaceOnUse">
<stop/>
<stop offset="1" stop-color="#FF8A00"/>
</linearGradient>
<linearGradient id="paint24_linear_0_136" x1="533.16" y1="135.756" x2="534.895" y2="138.508" gradientUnits="userSpaceOnUse">
<stop/>
<stop offset="1" stop-color="#FF8A00"/>
</linearGradient>
<linearGradient id="paint25_linear_0_136" x1="525.818" y1="144.098" x2="527.553" y2="146.85" gradientUnits="userSpaceOnUse">
<stop/>
<stop offset="1" stop-color="#FF8A00"/>
</linearGradient>
<linearGradient id="paint26_linear_0_136" x1="518.476" y1="152.441" x2="520.211" y2="155.193" gradientUnits="userSpaceOnUse">
<stop/>
<stop offset="1" stop-color="#FF8A00"/>
</linearGradient>
<linearGradient id="paint27_linear_0_136" x1="541.417" y1="172.627" x2="543.151" y2="175.376" gradientUnits="userSpaceOnUse">
<stop/>
<stop offset="1" stop-color="#FF8A00"/>
</linearGradient>
<linearGradient id="paint28_linear_0_136" x1="548.759" y1="164.284" x2="550.493" y2="167.034" gradientUnits="userSpaceOnUse">
<stop/>
<stop offset="1" stop-color="#FF8A00"/>
</linearGradient>
<linearGradient id="paint29_linear_0_136" x1="529.947" y1="162.535" x2="531.681" y2="165.285" gradientUnits="userSpaceOnUse">
<stop/>
<stop offset="1" stop-color="#FF8A00"/>
</linearGradient>
<clipPath id="clip0_0_136">
<rect width="56.9667" height="59.0765" fill="white" transform="matrix(-1 0 0 1 801.742 344.954)"/>
</clipPath>
<clipPath id="clip1_0_136">
<rect width="56.9667" height="59.0765" fill="white" transform="matrix(-1 0 0 1 550.952 26.1284)"/>
</clipPath>
<clipPath id="clip2_0_136">
<rect width="54.8568" height="54.8568" fill="white" transform="matrix(-1 0 0 1 581.071 436.096)"/>
</clipPath>
<clipPath id="clip3_0_136">
<rect width="90.215" height="90.215" fill="white" transform="matrix(0.487562 -0.873088 -0.873088 -0.487562 438.401 318.894)"/>
</clipPath>
</defs>
</svg>
