<svg width="359" height="311" viewBox="0 0 359 311" fill="none" xmlns="http://www.w3.org/2000/svg">
<path d="M250.089 267C255.28 267.288 260.391 269.415 264.359 273.382C272.912 281.936 272.912 295.804 264.359 304.358C260.081 308.635 254.476 310.774 248.869 310.774C243.264 310.774 237.658 308.635 233.381 304.358C229.415 300.391 227.287 295.281 227 290.089L250.089 267ZM255.014 296.188H259.352L254.754 288.524L252.643 292.04L255.014 296.188ZM252.913 296.188L245.627 283.439L238.341 296.188H252.913ZM231.668 288.002C233.07 287.76 234.443 287.367 235.775 286.827C238.264 285.817 240.499 284.334 242.416 282.417C244.473 280.36 246.025 277.948 247.033 275.248C247.468 274.077 247.791 272.882 248.002 271.667L231.668 288.002ZM230.481 296.95C231.483 299.231 232.894 301.289 234.672 303.068C236.589 304.985 238.824 306.469 241.312 307.478C243.72 308.454 246.261 308.948 248.869 308.948C251.478 308.948 254.021 308.454 256.426 307.478C258.916 306.469 261.15 304.985 263.067 303.068C264.984 301.15 266.469 298.916 267.478 296.427C268.454 294.021 268.949 291.479 268.949 288.87C268.949 286.261 268.455 283.719 267.478 281.313C266.469 278.824 264.984 276.589 263.067 274.672C261.289 272.893 259.23 271.484 256.95 270.483C254.989 269.622 252.921 269.085 250.786 268.883L250.079 269.591C249.834 273.515 248.538 277.386 246.191 280.746L251.607 290.223L254.754 284.975L262.577 298.014H256.058H246.931H235.197L242.972 284.408C239.159 287.887 234.417 289.777 229.592 290.078L228.882 290.787C229.084 292.921 229.621 294.99 230.481 296.95Z" fill="url(#paint0_linear_0_247)" style="mix-blend-mode:multiply"/>
<path d="M78.448 62.5342L89.1392 75.0516L90.1135 76.1923L100.805 88.7097L77.9027 108.27L67.2115 95.753L66.2372 94.6124L55.546 82.0949L78.448 62.5342ZM78.0629 106.245L98.7801 88.5504L89.0215 77.1249L68.3043 94.8196L78.0629 106.245ZM88.0473 75.9842L78.2887 64.5588L57.5715 82.2535L67.33 93.6789L88.0472 75.9842L88.0473 75.9842Z" fill="#3D3D3D" fill-opacity="0.5"/>
<path d="M75.7637 75.0831L75.2889 72.2399L82.0842 74.5201L79.7469 76.5165L76.4741 79.3117L72.27 82.9025L70.4179 73.164L75.7637 75.0831ZM79.224 75.0744L77.0972 74.3572L77.3127 75.6431L78.192 75.9559L79.224 75.0744ZM76.9354 77.0292L72.2962 75.3631L73.2161 80.2058L76.9354 77.0292Z" fill="#3D3D3D" fill-opacity="0.5"/>
<path d="M73.7421 83.5276L82.4684 76.0744C82.7672 75.8192 83.2233 75.8551 83.4812 76.1571C83.7357 76.4551 83.6999 76.9113 83.4011 77.1664L74.6748 84.6196C74.3729 84.8775 73.9215 84.8375 73.667 84.5395C73.4091 84.2376 73.4402 83.7855 73.7421 83.5276Z" fill="#3D3D3D" fill-opacity="0.5"/>
<path d="M93.1824 88.6179C93.4812 88.3627 93.9342 88.395 94.1921 88.697C94.45 88.9989 94.4108 89.4511 94.112 89.7063C93.8101 89.9642 93.3573 89.9323 93.0993 89.6303C92.8414 89.3283 92.8805 88.8758 93.1824 88.6179Z" fill="#3D3D3D" fill-opacity="0.5"/>
<path d="M91.0019 90.48C91.2998 90.2255 91.753 90.2578 92.0108 90.5598C92.2687 90.8617 92.2295 91.3139 91.9315 91.5684C91.6295 91.8263 91.1768 91.7944 90.9188 91.4924C90.6609 91.1905 90.6999 90.7379 91.0019 90.48Z" fill="#3D3D3D" fill-opacity="0.5"/>
<path d="M88.8169 92.3456C89.1188 92.0877 89.5719 92.12 89.8298 92.4219C90.0877 92.7239 90.0485 93.1761 89.7465 93.434C89.4485 93.6885 88.9957 93.6566 88.7378 93.3546C88.4799 93.0526 88.5189 92.6001 88.8169 92.3456Z" fill="#3D3D3D" fill-opacity="0.5"/>
<path d="M86.6376 94.2079C86.9395 93.95 87.3927 93.9823 87.6506 94.2842C87.9084 94.5862 87.8692 95.0384 87.5672 95.2963C87.2701 95.5501 86.8173 95.5182 86.5594 95.2162C86.3014 94.9142 86.3404 94.4617 86.6376 94.2079Z" fill="#3D3D3D" fill-opacity="0.5"/>
<path d="M84.4558 96.0709C84.7578 95.813 85.2077 95.848 85.4656 96.15C85.7234 96.4519 85.6874 96.9014 85.3854 97.1593C85.0835 97.4172 84.6355 97.3812 84.3776 97.0792C84.1197 96.7772 84.1539 96.3288 84.4558 96.0709Z" fill="#3D3D3D" fill-opacity="0.5"/>
<path d="M87.1848 91.8516L82.9806 95.4424L81.1316 85.7074L86.4778 87.6269L85.9996 84.7798L92.7949 87.06L90.4576 89.0563L87.1848 91.8516L87.1848 91.8516ZM83.9298 92.7493L87.6491 89.5727L83.0102 87.907L83.9298 92.7493ZM89.9377 87.6179L87.8113 86.9011L88.0234 88.183L88.9057 88.4995L89.9377 87.618L89.9377 87.6179Z" fill="#3D3D3D" fill-opacity="0.5"/>
<path d="M62.5667 85.576C62.5977 85.182 62.9444 84.8859 63.3384 84.9169L66.9142 85.202L67.0268 83.7712C67.0578 83.3773 67.4045 83.0811 67.7985 83.1121C68.1924 83.1431 68.4851 83.4858 68.4575 83.8838L68.2894 86.0259C68.2552 86.4226 67.9117 86.716 67.5177 86.685L63.2259 86.3476C62.8318 86.3166 62.5357 85.9699 62.5667 85.576Z" fill="#3D3D3D" fill-opacity="0.5"/>
<path d="M78.9233 98.476C78.8891 98.8727 78.5487 99.1697 78.1516 99.1351L78.1485 99.1378L76.7209 99.0225L76.6084 100.453C76.5774 100.847 76.2306 101.143 75.8367 101.112C75.4427 101.081 75.1497 100.738 75.1776 100.341L75.2933 98.9135L73.8625 98.8009C73.4686 98.7699 73.1724 98.4232 73.2038 98.0297C73.2348 97.6357 73.5815 97.3396 73.9755 97.3706L75.4059 97.4827L75.5156 96.0552L75.5187 96.0524C75.5497 95.6585 75.8932 95.3651 76.2904 95.3934C76.684 95.4239 76.9801 95.7707 76.9491 96.1646L76.8366 97.5954L78.2642 97.7043C78.6613 97.7389 78.9543 98.082 78.9233 98.476Z" fill="#3D3D3D" fill-opacity="0.5"/>
<path d="M104.27 221.241L103.401 219.065L103.112 218.339L102.823 217.614C104.805 216.823 105.767 214.552 104.969 212.552C104.17 210.552 101.909 209.568 99.9271 210.359L99.6375 209.633L99.348 208.908L98.4794 206.732L100.176 194.28L109.241 194.027L109.54 198.954L126.072 192.356L134.179 212.669L117.647 219.267L120.822 223.046L114.073 229.102L104.27 221.241ZM118.664 222.885L116.466 220.27L115.073 218.611L117.068 217.815L132.161 211.791L125.213 194.38L110.119 200.404L108.124 201.2L107.993 199.039L107.786 195.629L101.534 195.804L100.071 206.543L100.87 208.545C103.197 208.34 105.488 209.678 106.406 211.978C107.324 214.279 106.584 216.826 104.755 218.279L105.554 220.282L114.01 227.063L118.664 222.885Z" fill="url(#paint1_linear_0_247)" style="mix-blend-mode:multiply"/>
<path d="M116.315 206.687L113.579 206.233L117.731 200.731L118.834 203.494L120.378 207.364L122.363 212.339L112.932 210.975L116.315 206.687ZM117.316 203.867L116.372 205.117L117.417 205.291L117.727 204.897L117.316 203.867L117.316 203.867ZM118.394 206.568L115.829 209.819L119.928 210.412L118.394 206.568Z" fill="url(#paint2_linear_0_247)" style="mix-blend-mode:multiply"/>
<g clip-path="url(#clip0_0_247)">
<path d="M312 232.829L322.914 221.51L314.643 212.932C312.994 211.222 312.994 208.451 314.643 206.741C315.468 205.886 316.548 205.459 317.628 205.459C318.708 205.459 319.789 205.886 320.613 206.741L328.884 215.319L339.799 204L345.768 210.19L334.854 221.51L344.362 231.369V237.56H338.392L328.884 227.7L317.97 239.019L312 232.829ZM323.91 220.478L325.398 218.935L319.116 212.42L317.628 213.963L323.91 220.478ZM319.618 207.772C319.086 207.222 318.38 206.918 317.628 206.918C316.876 206.918 316.17 207.222 315.638 207.772C314.541 208.911 314.541 210.762 315.638 211.9L316.633 212.932L320.613 208.804L319.618 207.772ZM321.608 209.836L320.111 211.388L326.392 217.903L327.89 216.351L321.608 209.836ZM339.799 206.064L337.838 208.096L338.834 209.128C339.108 209.413 339.108 209.875 338.834 210.16C338.559 210.445 338.114 210.445 337.838 210.16C337.838 210.16 337.838 210.159 337.837 210.159L336.844 209.128L334.854 211.192L335.848 212.224C336.124 212.508 336.124 212.971 335.848 213.256C335.574 213.54 335.128 213.54 334.854 213.256C334.854 213.255 334.854 213.255 334.854 213.255L333.859 212.224L331.869 214.287L332.863 215.318C332.863 215.318 332.864 215.319 332.864 215.319C333.138 215.604 333.138 216.066 332.864 216.35C332.589 216.636 332.144 216.636 331.869 216.35V216.351L330.874 215.319L328.884 217.382L329.879 218.414C330.154 218.699 330.154 219.161 329.879 219.446C329.605 219.731 329.159 219.731 328.884 219.446L327.89 218.414L325.9 220.478L326.894 221.51C327.169 221.794 327.169 222.257 326.894 222.541C326.62 222.826 326.174 222.826 325.9 222.541C325.899 222.541 325.899 222.541 325.899 222.541L324.904 221.51L322.914 223.573L323.91 224.605V224.605C324.184 224.89 324.184 225.352 323.91 225.637C323.635 225.922 323.189 225.922 322.914 225.637L321.92 224.605L319.93 226.669L320.924 227.7C321.2 227.985 321.2 228.447 320.924 228.732C320.65 229.017 320.205 229.017 319.93 228.732C319.93 228.732 319.93 228.732 319.93 228.731L318.935 227.7L316.945 229.764L317.939 230.795L317.94 230.796C318.215 231.08 318.215 231.543 317.94 231.827C317.665 232.112 317.22 232.112 316.945 231.827L315.95 230.796L313.99 232.829L317.97 236.956L343.778 210.19L339.799 206.064ZM342.955 236.101V234.892L341.789 236.101H342.955ZM338.975 236.101H339.8L342.955 232.829V231.974L333.859 222.541L332.362 224.094L339.382 231.374C339.657 231.659 339.657 232.121 339.382 232.406C339.108 232.691 338.663 232.691 338.388 232.406L331.367 225.126L329.879 226.668L338.975 236.101Z" fill="#3D3D3D" fill-opacity="0.61"/>
</g>
<g clip-path="url(#clip1_0_247)">
<path d="M163.338 43.8369L174.252 32.5177L165.981 23.9398C164.332 22.2305 164.332 19.4588 165.981 17.7494C166.806 16.8944 167.886 16.4669 168.966 16.4669C170.046 16.4669 171.127 16.8944 171.951 17.7494L180.222 26.3273L191.137 15.0082L197.106 21.1986L186.192 32.5177L195.7 42.3775V48.5685H189.73L180.222 38.7082L169.308 50.0273L163.338 43.8369ZM175.248 31.4859L176.736 29.9427L170.454 23.4285L168.966 24.9717L175.248 31.4859ZM170.956 18.7807C170.424 18.2297 169.718 17.9263 168.966 17.9263C168.214 17.9263 167.508 18.2298 166.976 18.7807C165.879 19.9189 165.879 21.7704 166.976 22.908L167.971 23.9398L171.951 19.8125L170.956 18.7807ZM172.946 20.8443L171.449 22.3966L177.73 28.9108L179.228 27.3591L172.946 20.8443ZM191.137 17.0718L189.176 19.1045L190.172 20.1364C190.446 20.4212 190.446 20.8834 190.172 21.1682C189.897 21.453 189.452 21.453 189.176 21.1682C189.176 21.1682 189.176 21.1676 189.175 21.1671L188.182 20.1364L186.192 22.2L187.187 23.2319C187.462 23.5167 187.462 23.9789 187.187 24.2637C186.912 24.5485 186.466 24.5485 186.192 24.2637C186.192 24.2631 186.192 24.2631 186.192 24.2631L185.197 23.2319L183.207 25.2955L184.201 26.3263C184.201 26.3263 184.202 26.3268 184.202 26.3274C184.476 26.6122 184.476 27.0738 184.202 27.3586C183.927 27.644 183.482 27.644 183.207 27.3586V27.3592L182.212 26.3274L180.222 28.3904L181.217 29.4222C181.492 29.7076 181.492 30.1693 181.217 30.4541C180.943 30.7389 180.497 30.7389 180.222 30.4541L179.228 29.4222L177.238 31.4859L178.232 32.5177C178.507 32.8025 178.507 33.2648 178.232 33.5496C177.958 33.8344 177.512 33.8344 177.238 33.5496C177.237 33.549 177.237 33.549 177.237 33.549L176.242 32.5177L174.252 34.5814L175.248 35.6127V35.6132C175.522 35.898 175.522 36.3597 175.248 36.6451C174.973 36.9299 174.527 36.9299 174.252 36.6451L173.258 35.6132L171.268 37.6769L172.262 38.7082C172.538 38.9935 172.538 39.4552 172.262 39.74C171.988 40.0248 171.543 40.0254 171.268 39.74C171.268 39.74 171.268 39.74 171.268 39.7395L170.273 38.7082L168.283 40.7719L169.277 41.8031L169.278 41.8037C169.553 42.0885 169.553 42.5507 169.278 42.8355C169.003 43.1203 168.558 43.1203 168.283 42.8355L167.288 41.8037L165.328 43.8369L169.308 47.9637L195.116 21.1986L191.137 17.0718ZM194.293 47.1092V45.9005L193.127 47.1092H194.293ZM190.313 47.1092H191.138L194.293 43.8369V42.9824L185.197 33.5496L183.7 35.1018L190.72 42.3824C190.995 42.6672 190.995 43.1294 190.72 43.4142C190.446 43.699 190.001 43.699 189.726 43.4142L182.705 36.1337L181.217 37.6764L190.313 47.1092Z" fill="url(#paint3_linear_0_247)" style="mix-blend-mode:multiply"/>
</g>
<path d="M286.249 142.251L292.524 148.328C292.813 148.608 292.82 149.069 292.541 149.357C292.26 149.647 291.799 149.654 291.511 149.375L285.235 143.297C284.947 143.017 284.94 142.556 285.22 142.267C285.499 141.979 285.96 141.971 286.249 142.251Z" fill="url(#paint4_linear_0_247)" style="mix-blend-mode:multiply"/>
<path d="M293.538 147.282L291.446 145.256C291.157 144.976 291.149 144.516 291.429 144.227C291.708 143.938 292.169 143.932 292.458 144.211L294.549 146.237C294.838 146.517 294.846 146.977 294.566 147.266C294.287 147.554 293.826 147.561 293.538 147.282Z" fill="url(#paint5_linear_0_247)" style="mix-blend-mode:multiply"/>
<path d="M278.435 132.098L280.951 131.426L279.482 137.726L277.49 135.796L274.702 133.096L271.115 129.622L279.706 127.132L278.435 132.098ZM278.649 134.891L278.982 133.459L278.023 133.715L277.906 134.171L278.649 134.891ZM276.702 133.005L277.664 129.24L273.931 130.322L276.702 133.005Z" fill="url(#paint6_linear_0_247)" style="mix-blend-mode:multiply"/>
<path d="M282.716 114.506L306.771 137.804C307.06 138.083 307.068 138.544 306.788 138.833L292.607 153.476C292.328 153.764 291.866 153.771 291.578 153.492L267.522 130.194C267.234 129.915 267.227 129.454 267.506 129.166L281.688 114.523C281.967 114.234 282.428 114.227 282.716 114.506ZM283.253 117.053L287.627 133.138C287.662 133.266 287.863 133.461 287.992 133.492L304.213 137.353L283.253 117.053ZM292.068 151.939L304.645 138.953L287.655 134.908C287.333 134.832 287.019 134.644 286.763 134.396C286.506 134.148 286.309 133.84 286.222 133.52L281.639 116.665L269.059 129.654L292.068 151.939Z" fill="url(#paint7_linear_0_247)" style="mix-blend-mode:multiply"/>
<path d="M219.619 15.9177C219.619 7.12634 226.711 0 235.461 0C238.346 0 241.051 0.775255 243.382 2.1299C245.713 0.775348 248.418 0 251.302 0C260.053 0 267.145 7.12634 267.145 15.9177C267.145 21.8571 263.908 27.0357 259.11 29.7711C258.168 37.659 251.487 43.7739 243.382 43.7739C235.277 43.7739 228.595 37.659 227.654 29.7711C222.856 27.0357 219.619 21.8571 219.619 15.9177ZM256.934 30.7993C255.184 31.4682 253.286 31.8354 251.302 31.8354C248.418 31.8354 245.713 31.0602 243.382 29.7055C241.051 31.0601 238.346 31.8354 235.461 31.8354C233.477 31.8354 231.58 31.4681 229.83 30.7993C230.011 31.6453 230.27 32.473 230.608 33.2767C231.306 34.9351 232.307 36.4253 233.58 37.7049C234.854 38.9844 236.336 39.9892 237.987 40.691C239.695 41.4167 241.51 41.7848 243.382 41.7848C245.254 41.7848 247.069 41.4168 248.777 40.691C250.428 39.9893 251.91 38.9844 253.184 37.7049C254.457 36.4253 255.458 34.9352 256.155 33.2767C256.493 32.473 256.753 31.6453 256.934 30.7993ZM229.535 28.5127C229.711 28.5958 229.888 28.6759 230.066 28.7524C231.773 29.4781 233.589 29.8462 235.461 29.8462C237.334 29.8462 239.148 29.4782 240.855 28.7524C241.083 28.6555 241.306 28.5527 241.528 28.4449C237.956 25.6264 235.619 21.2989 235.47 16.4175C234.799 16.8875 234.166 17.418 233.58 18.0075C232.307 19.2871 231.306 20.7771 230.608 22.4349C229.886 24.1509 229.521 25.9748 229.521 27.8562C229.521 28.0762 229.525 28.2948 229.535 28.5127ZM237.457 15.2612C237.447 15.4791 237.441 15.6977 237.441 15.9177C237.441 17.7991 237.807 19.623 238.529 21.3383C239.228 22.9967 240.227 24.4868 241.501 25.7664C242.085 26.3537 242.713 26.882 243.382 27.3498C244.051 26.882 244.679 26.3537 245.263 25.7664C246.537 24.4868 247.536 22.9968 248.235 21.3383C248.957 19.623 249.323 17.7991 249.323 15.9177C249.323 15.6977 249.317 15.4791 249.307 15.2612C249.133 15.1781 248.956 15.098 248.777 15.0215C247.069 14.2958 245.254 13.9277 243.382 13.9277C241.509 13.9277 239.695 14.2957 237.986 15.0215C237.808 15.098 237.631 15.1781 237.457 15.2612ZM243.382 11.9385C245.364 11.9385 247.263 12.3058 249.012 12.9746C248.831 12.1287 248.573 11.3009 248.235 10.4972C247.536 8.83876 246.536 7.3486 245.263 6.06904C244.678 5.48172 244.05 4.95344 243.382 4.4856C242.713 4.95344 242.085 5.48172 241.501 6.06904C240.227 7.3486 239.228 8.83867 238.529 10.4972C238.191 11.3009 237.931 12.1287 237.751 12.9746C239.501 12.3057 241.399 11.9385 243.382 11.9385ZM251.294 16.4175C251.144 21.2989 248.808 25.6264 245.235 28.4449C245.457 28.5527 245.681 28.6555 245.908 28.7524C247.615 29.4781 249.43 29.8462 251.302 29.8462C253.175 29.8462 254.991 29.4782 256.698 28.7524C256.876 28.6759 257.053 28.5957 257.229 28.5127C257.239 28.2948 257.243 28.0762 257.243 27.8562C257.243 25.9748 256.877 24.1509 256.155 22.4357C255.458 20.7772 254.457 19.2871 253.183 18.0075C252.598 17.418 251.965 16.8875 251.294 16.4175ZM245.235 3.39053C248.46 5.93361 250.676 9.70514 251.188 14.0028C255.851 16.661 259.039 21.6276 259.216 27.3564C259.887 26.8864 260.518 26.3559 261.104 25.7664C262.379 24.4868 263.378 22.9968 264.076 21.3383C264.798 19.623 265.165 17.7991 265.165 15.9177C265.165 14.0363 264.798 12.2124 264.076 10.4972C263.378 8.83876 262.379 7.3486 261.104 6.06904C259.831 4.78947 258.348 3.78468 256.698 3.08292C254.991 2.3572 253.175 1.98915 251.302 1.98915C249.43 1.98915 247.615 2.3571 245.908 3.08292C245.681 3.17992 245.457 3.28261 245.235 3.39053ZM222.688 10.4972C221.966 12.2125 221.599 14.0363 221.599 15.9177C221.599 17.7991 221.966 19.623 222.688 21.3383C223.386 22.9967 224.385 24.4868 225.66 25.7664C226.246 26.3559 226.877 26.8864 227.548 27.3564C227.725 21.6276 230.913 16.661 235.576 14.0028C236.088 9.70514 238.304 5.93351 241.528 3.39053C241.306 3.28271 241.083 3.17992 240.855 3.08302C239.148 2.35729 237.334 1.98925 235.461 1.98925C233.589 1.98925 231.773 2.3572 230.066 3.08302C228.415 3.78468 226.933 4.78957 225.66 6.06913C224.385 7.3486 223.386 8.83876 222.688 10.4972Z" fill="url(#paint8_linear_0_247)" style="mix-blend-mode:multiply"/>
<path d="M357.133 51.1614L347.946 57.4812L344.009 60.1897L334.821 66.5102L311.84 35.9142L336.776 18.7601L357.133 51.1614ZM354.971 50.7144L353.275 48.015L345.238 53.5439L347.043 56.1686L354.971 50.7144ZM345.73 57.0719L342.119 51.8225L340.807 52.7252L344.418 57.9745L345.73 57.0719ZM343.106 58.8772L341.3 56.2525L333.262 61.782L335.177 64.3313L343.106 58.8772ZM314.111 36.2863L332.305 60.5072L340.397 54.9399L338.592 52.3152C338.342 51.9528 338.434 51.4575 338.796 51.2082C339.158 50.9589 339.654 51.0502 339.904 51.4126C339.654 51.0502 339.747 50.5542 340.109 50.3049C340.471 50.0556 340.967 50.1475 341.216 50.5099C340.967 50.1475 341.059 49.6516 341.421 49.4022C341.783 49.1529 342.28 49.2442 342.529 49.6066L344.335 52.2313L352.426 46.6647L336.311 21.0141L314.111 36.2863Z" fill="#3D3D3D" fill-opacity="0.55"/>
<path d="M338.064 43.654L331.116 40.3063L331.361 44.2142L322.505 40.1775L325.943 37.8128L330.755 34.5025L336.942 30.2459L338.064 43.654ZM325.727 39.8956L329.606 41.6631L329.472 39.5132L327.596 38.6101L325.727 39.8957L325.727 39.8956ZM329.108 37.5699L336.245 41.0086L335.584 33.1149L329.108 37.5699Z" fill="#3D3D3D" fill-opacity="0.55"/>
<g clip-path="url(#clip2_0_247)">
<path d="M30.4089 189.649C30.4089 186.836 32.6894 184.555 35.5028 184.555C35.8799 184.555 36.2461 184.596 36.5994 184.674L39.9754 181.297L30.8138 172.135C29.227 170.548 29.227 167.975 30.8138 166.388C31.6067 165.595 32.6467 165.198 33.6867 165.198C34.7267 165.198 35.7668 165.595 36.5607 166.388L45.7231 175.55L56.1579 165.115C56.6869 164.586 57.3805 164.322 58.0733 164.322C58.7669 164.322 59.4606 164.586 59.9895 165.115C61.0474 166.173 61.0474 167.888 59.9895 168.947L49.5538 179.381L59.4248 189.252L59.4248 194.999H53.6771L43.807 185.129L40.4607 188.475C40.55 188.852 40.5976 189.245 40.5976 189.649C40.5976 195.418 32.09 195.875 29.2766 195.875C26.4633 195.875 30.4089 192.462 30.4089 189.649ZM33.6867 166.553C32.9633 166.553 32.2835 166.834 31.7715 167.346C30.7155 168.402 30.7155 170.121 31.7715 171.178L32.7291 172.135L36.5607 168.304L35.603 167.346C35.0909 166.834 34.4111 166.553 33.6867 166.553ZM59.0318 167.989C59.5597 167.461 59.5597 166.601 59.0318 166.073C58.7758 165.817 58.4354 165.676 58.0732 165.676C57.7119 165.676 57.3716 165.817 57.1155 166.073L46.6807 176.508L48.596 178.424L59.0318 167.989ZM58.0693 193.644V192.522L56.9478 193.644H58.0693ZM54.2387 193.644H55.0316L58.0693 190.607V189.813L37.5183 169.262L36.0773 170.703L54.6307 189.256C54.8957 189.52 54.8957 189.95 54.6307 190.214C54.3667 190.479 53.937 190.479 53.6731 190.214L35.1197 171.66L33.6868 173.093L54.2387 193.644ZM42.8493 184.171L40.934 182.255L37.9877 185.201C38.7895 185.65 39.4574 186.309 39.9168 187.104L42.8493 184.171ZM35.5594 193.642C36.7373 193.245 37.6454 192.728 38.2586 192.105C38.9205 191.433 39.242 190.63 39.242 189.649C39.242 188.65 38.854 187.711 38.1475 187.005C37.4409 186.299 36.5022 185.91 35.5028 185.91C33.4406 185.91 31.7635 187.587 31.7635 189.649C31.7635 191.191 30.9418 192.695 30.2809 193.903C30.1826 194.084 30.0635 194.301 29.9543 194.512C31.4132 194.473 33.6222 194.295 35.5594 193.642Z" fill="url(#paint9_linear_0_247)" style="mix-blend-mode:multiply"/>
</g>
<g clip-path="url(#clip3_0_247)">
<path d="M142.469 141.887L82.5695 158.859L78.9239 145.996L138.825 129.023L142.469 141.887ZM84.1052 156.109L88.3295 154.91L87.7209 152.767C87.5544 152.175 87.8981 151.559 88.4896 151.39C89.0817 151.224 89.6972 151.568 89.866 152.159C89.8652 152.16 89.8652 152.16 89.8652 152.16L90.4724 154.303L94.7603 153.088L94.1532 150.946C93.9852 150.353 94.3289 149.737 94.9218 149.569C95.5125 149.402 96.1303 149.745 96.2968 150.337L96.9039 152.482L101.192 151.267L100.585 149.122L100.585 149.122C100.417 148.531 100.761 147.914 101.353 147.747C101.946 147.579 102.561 147.923 102.728 148.515C102.729 148.516 102.729 148.516 102.729 148.516L103.336 150.659L107.624 149.444L107.016 147.3C106.849 146.708 107.193 146.092 107.785 145.924C108.376 145.757 108.992 146.101 109.161 146.692L109.768 148.837L114.056 147.622L113.448 145.479C113.28 144.886 113.624 144.271 114.216 144.102C114.809 143.934 115.424 144.277 115.592 144.87L116.199 147.015L120.486 145.8L119.879 143.655C119.711 143.064 120.056 142.447 120.647 142.28C121.24 142.112 121.856 142.456 122.023 143.048C122.024 143.049 122.024 143.049 122.024 143.049L122.631 145.192L126.919 143.977L126.311 141.833C126.144 141.241 126.487 140.625 127.079 140.457C127.671 140.29 128.287 140.634 128.455 141.225C128.455 141.225 128.455 141.225 128.454 141.227L129.062 143.37L133.35 142.155L132.744 140.012C132.743 140.012 132.742 140.012 132.742 140.012C132.575 139.419 132.919 138.804 133.511 138.635C134.103 138.467 134.719 138.811 134.887 139.403L135.495 141.547L139.718 140.35L137.289 131.774L81.6753 147.533L84.1052 156.109Z" fill="url(#paint10_linear_0_247)" style="mix-blend-mode:multiply"/>
</g>
<path d="M94.2464 35.9988L111.815 14.2303C112.026 13.9697 112.409 13.9285 112.67 14.1394L127.813 26.3608C128.074 26.5717 128.115 26.9547 127.904 27.2153L121.566 35.069L124.862 36.7941L125.015 36.6049C125.225 36.3443 125.608 36.3033 125.87 36.5143C126.131 36.7252 126.172 37.1082 125.961 37.3689L119.85 44.9411C119.64 45.2018 119.257 45.243 118.995 45.0321C118.734 44.8211 118.693 44.4379 118.903 44.1772L119.057 43.9873L116.675 41.1288L110.335 48.9839C110.125 49.2445 109.742 49.2857 109.481 49.0748L94.338 36.8534C94.0767 36.6425 94.0361 36.2595 94.2464 35.9988ZM124.083 37.7598L120.791 36.037L117.457 40.1662L119.835 43.0224L124.083 37.7598L124.083 37.7598ZM95.5757 36.2886L107.879 46.2182L124.682 25.398L112.379 15.4684L95.5757 36.2886ZM118.174 37.3359L126.575 26.9258L125.629 26.1619L117.227 36.572L108.825 46.9821L109.772 47.7461L118.174 37.3359Z" fill="url(#paint11_linear_0_247)" style="mix-blend-mode:multiply"/>
<path d="M117.319 37.4268C117.057 37.2159 117.016 36.8335 117.227 36.5722C117.438 36.3109 117.82 36.2704 118.082 36.4813C118.343 36.6922 118.384 37.0748 118.174 37.3361C117.963 37.5974 117.58 37.6377 117.319 37.4268Z" fill="url(#paint12_linear_0_247)" style="mix-blend-mode:multiply"/>
<path d="M113.125 18.4152L101.669 32.6101C101.669 32.6101 101.668 32.6108 101.668 32.6115C101.457 32.8721 101.074 32.9133 100.813 32.7024C100.552 32.4914 100.511 32.1082 100.721 31.8475L112.178 17.6513C112.39 17.3893 112.773 17.3483 113.035 17.5592C113.296 17.7702 113.336 18.1532 113.125 18.4152Z" fill="url(#paint13_linear_0_247)" style="mix-blend-mode:multiply"/>
<path d="M115.018 19.9435L108.908 27.5137C108.908 27.5144 108.908 27.5144 108.908 27.5144C108.697 27.7757 108.314 27.8162 108.053 27.6053C107.792 27.3944 107.75 27.012 107.961 26.7507L114.072 19.1798C114.283 18.9178 114.666 18.8766 114.927 19.0875C115.189 19.2984 115.229 19.6815 115.018 19.9435Z" fill="url(#paint14_linear_0_247)" style="mix-blend-mode:multiply"/>
<path d="M116.913 21.4714L108.512 31.8808C108.511 31.8815 108.511 31.8815 108.511 31.8815C108.3 32.1429 107.918 32.1834 107.656 31.9724C107.395 31.7615 107.354 31.3789 107.565 31.1175L115.966 20.7074C116.178 20.4454 116.561 20.4042 116.822 20.6151C117.084 20.8263 117.124 21.2093 116.913 21.4714Z" fill="url(#paint15_linear_0_247)" style="mix-blend-mode:multiply"/>
<path d="M118.804 22.9986L113.458 29.6226C113.247 29.8846 112.864 29.9258 112.602 29.7149C112.341 29.504 112.3 29.121 112.512 28.8589L117.858 22.2347C118.069 21.9726 118.452 21.9317 118.714 22.1426C118.975 22.3535 119.016 22.7366 118.804 22.9986Z" fill="url(#paint16_linear_0_247)" style="mix-blend-mode:multiply"/>
<path d="M120.697 24.5264L110.768 36.8288L110.768 36.8291C110.557 37.0911 110.174 37.1321 109.912 36.9212C109.651 36.7102 109.61 36.3273 109.822 36.0652L119.751 23.7627C119.962 23.5007 120.345 23.4595 120.607 23.6704C120.868 23.8813 120.908 24.2644 120.697 24.5264Z" fill="url(#paint17_linear_0_247)" style="mix-blend-mode:multiply"/>
<path d="M122.59 26.0542L119.536 29.839C119.324 30.101 118.941 30.1422 118.68 29.9313C118.418 29.7204 118.378 29.337 118.589 29.075L121.644 25.2903C121.855 25.0283 122.238 24.9871 122.499 25.198C122.761 25.4092 122.802 25.7922 122.59 26.0542Z" fill="url(#paint18_linear_0_247)" style="mix-blend-mode:multiply"/>
<path d="M206.545 194.412L211.298 189.409L216.708 205.68L209.533 204.079L199.487 201.839L186.573 198.958L202.535 181.429L206.545 194.412ZM213.13 202.449L210.293 193.915L207.349 197.014L208.725 201.466L213.13 202.449ZM206.055 200.871L201.493 186.101L191.083 197.532L206.055 200.871Z" fill="#3D3D3D" fill-opacity="0.49"/>
<path d="M194.571 163.102L195.099 160.734C195.245 160.081 195.881 159.667 196.521 159.809C197.163 159.952 197.563 160.598 197.417 161.251L196.889 163.619L201.526 164.653L202.054 162.286C202.199 161.632 202.835 161.218 203.475 161.36C204.117 161.504 204.517 162.149 204.371 162.802L203.843 165.17L208.479 166.204L209.007 163.836C209.153 163.183 209.79 162.769 210.43 162.911C211.071 163.054 211.471 163.7 211.326 164.354L210.797 166.721L215.433 167.755L215.961 165.388C216.107 164.734 216.744 164.32 217.384 164.463C218.025 164.605 218.426 165.251 218.28 165.905L217.752 168.272L222.388 169.306L222.916 166.939C223.062 166.285 223.698 165.871 224.339 166.014C224.979 166.157 225.38 166.802 225.234 167.456L224.706 169.823L231.66 171.374L220.044 223.459L176 213.636L187.617 161.551L194.571 163.102ZM178.835 211.833L218.242 220.623L228.825 173.176L224.189 172.142L223.683 174.41C223.537 175.064 222.9 175.479 222.259 175.336C221.619 175.193 221.219 174.547 221.365 173.893L221.871 171.625L217.235 170.591L216.729 172.859C216.583 173.513 215.946 173.927 215.305 173.785C214.665 173.642 214.265 172.995 214.41 172.342L214.916 170.074L210.28 169.04L209.774 171.308C209.629 171.962 208.992 172.376 208.351 172.233C207.711 172.091 207.31 171.444 207.456 170.791L207.962 168.522L203.326 167.488L202.82 169.757C202.674 170.411 202.038 170.825 201.396 170.682C200.756 170.54 200.357 169.894 200.503 169.24L201.008 166.972L196.372 165.937L195.866 168.206C195.72 168.859 195.084 169.274 194.442 169.131C193.802 168.988 193.402 168.342 193.548 167.689L194.054 165.421L189.417 164.386L178.835 211.833Z" fill="#3D3D3D" fill-opacity="0.49"/>
<path d="M180.558 68.0805L208.995 93.1007C209.336 93.4011 209.37 93.9215 209.07 94.2629L191.664 114.045C191.364 114.386 190.843 114.419 190.502 114.119L180.242 105.092L177.719 109.452L177.966 109.669C178.307 109.97 178.341 110.49 178.04 110.832C177.74 111.173 177.219 111.206 176.878 110.906L166.987 102.203C166.645 101.902 166.612 101.383 166.913 101.041C167.213 100.7 167.733 100.666 168.075 100.966L168.322 101.184L172.327 98.1272L162.065 89.0985C161.724 88.7981 161.691 88.2785 161.992 87.9371L179.397 68.1552C179.697 67.8138 180.217 67.7802 180.558 68.0805ZM176.458 108.342L178.978 103.988L173.583 99.2391L169.582 102.293L176.458 108.343L176.458 108.342ZM174.65 76.0428L178.359 79.3063L183.798 73.1247L180.089 69.8612L174.65 76.0428ZM177.271 80.5428L173.562 77.2794L165.947 85.9336L169.656 89.197L177.271 80.5428ZM185.034 74.2122L170.892 90.2846L193.147 109.865L207.288 93.793L185.034 74.2122ZM177.372 100.373L190.971 112.338L192.059 111.102L178.46 99.1364L164.859 87.1701L163.771 88.4066L177.372 100.373Z" fill="url(#paint19_linear_0_247)" style="mix-blend-mode:multiply"/>
<path d="M177.299 99.2106C177.599 98.8692 178.119 98.8357 178.461 99.1368C178.802 99.4372 178.835 99.9568 178.535 100.298C178.234 100.64 177.714 100.674 177.373 100.373C177.031 100.072 176.998 99.5521 177.299 99.2106Z" fill="url(#paint20_linear_0_247)" style="mix-blend-mode:multiply"/>
<path d="M185.676 94.4959L181.437 90.7664L191.007 87.4875L189.841 93.1675L192.646 92.2725L191.328 99.4692L188.973 97.3969L185.676 94.4959ZM188.814 89.9796L184.655 91.4046L187.93 94.2856L188.814 89.9796ZM190.232 96.3109L190.531 94.6757L189.462 95.0172L189.354 95.5389L190.232 96.3109Z" fill="url(#paint21_linear_0_247)" style="mix-blend-mode:multiply"/>
<path d="M200.169 91.9139L201.405 93.0015L200.317 94.238L199.081 93.1504L200.169 91.9139Z" fill="url(#paint22_linear_0_247)" style="mix-blend-mode:multiply"/>
<path d="M193.37 85.9317L194.606 87.0193L193.518 88.2558L192.282 87.1682L193.37 85.9317Z" fill="url(#paint23_linear_0_247)" style="mix-blend-mode:multiply"/>
<path d="M186.57 79.9487L187.807 81.0371L186.719 82.2736L185.482 81.1853L186.57 79.9487Z" fill="url(#paint24_linear_0_247)" style="mix-blend-mode:multiply"/>
<path d="M182.218 84.8939L183.455 85.9823L182.367 87.2183L181.13 86.13L182.218 84.8939Z" fill="url(#paint25_linear_0_247)" style="mix-blend-mode:multiply"/>
<path d="M177.866 89.8392L179.103 90.9276L178.015 92.1641L176.778 91.0758L177.866 89.8392Z" fill="url(#paint26_linear_0_247)" style="mix-blend-mode:multiply"/>
<path d="M191.465 101.805L192.701 102.893L191.613 104.129L190.377 103.042L191.465 101.805Z" fill="url(#paint27_linear_0_247)" style="mix-blend-mode:multiply"/>
<path d="M195.817 96.8597L197.053 97.9473L195.965 99.1833L194.729 98.0958L195.817 96.8597Z" fill="url(#paint28_linear_0_247)" style="mix-blend-mode:multiply"/>
<path d="M184.666 95.8228L185.902 96.9104L184.814 98.1469L183.578 97.0594L184.666 95.8228Z" fill="url(#paint29_linear_0_247)" style="mix-blend-mode:multiply"/>
<circle cx="19.3856" cy="19.3856" r="14.3856" transform="matrix(-1 0 0 1 40.7711 98.804)" stroke="url(#paint30_linear_0_247)" stroke-width="10" style="mix-blend-mode:multiply"/>
<path d="M132.189 264.505V259.611H139.626V250.989H144.762V259.611H152.2V264.505H144.762V273.501H139.626V264.505H132.189Z" fill="#3D3D3D" fill-opacity="0.53"/>
<path d="M74.9882 258.131C74.9885 256.247 80.1234 240.184 60.095 245.836C40.0666 251.488 33.9041 242.068 29.7957 223.913C25.6873 205.758 13.7045 204.046 4.28944 204.388" stroke="url(#paint31_linear_0_247)" stroke-width="8" stroke-linecap="round" stroke-linejoin="round" style="mix-blend-mode:multiply"/>
<path d="M18.0124 56.005C18.6744 56.3428 23.4022 61.0182 24.9904 52.9973C26.5787 44.9764 30.9885 44.5083 38.1009 46.3244C45.2134 48.1405 47.9536 44.2546 49.5135 40.8989" stroke="url(#paint32_linear_0_247)" stroke-width="8" stroke-linecap="round" stroke-linejoin="round" style="mix-blend-mode:multiply"/>
<defs>
<linearGradient id="paint0_linear_0_247" x1="227.569" y1="268.059" x2="276.714" y2="282.544" gradientUnits="userSpaceOnUse">
<stop stop-color="#FFC000"/>
<stop offset="1" stop-color="#FF8A00"/>
</linearGradient>
<linearGradient id="paint1_linear_0_247" x1="108.838" y1="230.667" x2="107.251" y2="187.61" gradientUnits="userSpaceOnUse">
<stop stop-color="#FFC000"/>
<stop offset="1" stop-color="#FF8A00"/>
</linearGradient>
<linearGradient id="paint2_linear_0_247" x1="114.823" y1="215.173" x2="115.38" y2="201.258" gradientUnits="userSpaceOnUse">
<stop stop-color="#FFC000"/>
<stop offset="1" stop-color="#FF8A00"/>
</linearGradient>
<linearGradient id="paint3_linear_0_247" x1="163.777" y1="15.8551" x2="201.902" y2="26.6908" gradientUnits="userSpaceOnUse">
<stop stop-color="#FFC000"/>
<stop offset="1" stop-color="#FF8A00"/>
</linearGradient>
<linearGradient id="paint4_linear_0_247" x1="285.797" y1="141.862" x2="284.101" y2="147.016" gradientUnits="userSpaceOnUse">
<stop stop-color="#FFC000"/>
<stop offset="1" stop-color="#FF8A00"/>
</linearGradient>
<linearGradient id="paint5_linear_0_247" x1="291.951" y1="143.769" x2="292.257" y2="147.749" gradientUnits="userSpaceOnUse">
<stop stop-color="#FFC000"/>
<stop offset="1" stop-color="#FF8A00"/>
</linearGradient>
<linearGradient id="paint6_linear_0_247" x1="276.496" y1="124.284" x2="281.38" y2="136.331" gradientUnits="userSpaceOnUse">
<stop stop-color="#FFC000"/>
<stop offset="1" stop-color="#FF8A00"/>
</linearGradient>
<linearGradient id="paint7_linear_0_247" x1="282.153" y1="114.695" x2="295.765" y2="150.779" gradientUnits="userSpaceOnUse">
<stop stop-color="#FFC000"/>
<stop offset="1" stop-color="#FF8A00"/>
</linearGradient>
<linearGradient id="paint8_linear_0_247" x1="220.237" y1="1.05862" x2="272.842" y2="17.8925" gradientUnits="userSpaceOnUse">
<stop stop-color="#FFC000"/>
<stop offset="1" stop-color="#FF8A00"/>
</linearGradient>
<linearGradient id="paint9_linear_0_247" x1="28.6874" y1="165.085" x2="65.0149" y2="176.12" gradientUnits="userSpaceOnUse">
<stop stop-color="#FFC000"/>
<stop offset="1" stop-color="#FF8A00"/>
</linearGradient>
<linearGradient id="paint10_linear_0_247" x1="145.611" y1="133.609" x2="100.889" y2="177.4" gradientUnits="userSpaceOnUse">
<stop stop-color="#FFC000"/>
<stop offset="1" stop-color="#FF8A00"/>
</linearGradient>
<linearGradient id="paint11_linear_0_247" x1="94.5839" y1="36.5642" x2="123.058" y2="18.4396" gradientUnits="userSpaceOnUse">
<stop stop-color="#FFC000"/>
<stop offset="1" stop-color="#FF8A00"/>
</linearGradient>
<linearGradient id="paint12_linear_0_247" x1="116.878" y1="37.0511" x2="118.048" y2="36.2417" gradientUnits="userSpaceOnUse">
<stop stop-color="#FFC000"/>
<stop offset="1" stop-color="#FF8A00"/>
</linearGradient>
<linearGradient id="paint13_linear_0_247" x1="100.521" y1="32.1419" x2="104.913" y2="34.3731" gradientUnits="userSpaceOnUse">
<stop stop-color="#FFC000"/>
<stop offset="1" stop-color="#FF8A00"/>
</linearGradient>
<linearGradient id="paint14_linear_0_247" x1="107.692" y1="27.1312" x2="112.165" y2="28.6068" gradientUnits="userSpaceOnUse">
<stop stop-color="#FFC000"/>
<stop offset="1" stop-color="#FF8A00"/>
</linearGradient>
<linearGradient id="paint15_linear_0_247" x1="107.325" y1="31.4612" x2="111.782" y2="33.3636" gradientUnits="userSpaceOnUse">
<stop stop-color="#FFC000"/>
<stop offset="1" stop-color="#FF8A00"/>
</linearGradient>
<linearGradient id="paint16_linear_0_247" x1="112.231" y1="29.2528" x2="116.689" y2="30.5248" gradientUnits="userSpaceOnUse">
<stop stop-color="#FFC000"/>
<stop offset="1" stop-color="#FF8A00"/>
</linearGradient>
<linearGradient id="paint17_linear_0_247" x1="109.601" y1="36.3856" x2="114.026" y2="38.4757" gradientUnits="userSpaceOnUse">
<stop stop-color="#FFC000"/>
<stop offset="1" stop-color="#FF8A00"/>
</linearGradient>
<linearGradient id="paint18_linear_0_247" x1="118.279" y1="29.5061" x2="122.432" y2="29.8511" gradientUnits="userSpaceOnUse">
<stop stop-color="#FFC000"/>
<stop offset="1" stop-color="#FF8A00"/>
</linearGradient>
<linearGradient id="paint19_linear_0_247" x1="179.774" y1="68.5045" x2="202.654" y2="108.069" gradientUnits="userSpaceOnUse">
<stop stop-color="#FFC000"/>
<stop offset="1" stop-color="#FF8A00"/>
</linearGradient>
<linearGradient id="paint20_linear_0_247" x1="177.832" y1="98.6367" x2="178.86" y2="100.267" gradientUnits="userSpaceOnUse">
<stop stop-color="#FFC000"/>
<stop offset="1" stop-color="#FF8A00"/>
</linearGradient>
<linearGradient id="paint21_linear_0_247" x1="187.227" y1="84.4449" x2="193.396" y2="97.7915" gradientUnits="userSpaceOnUse">
<stop stop-color="#FFC000"/>
<stop offset="1" stop-color="#FF8A00"/>
</linearGradient>
<linearGradient id="paint22_linear_0_247" x1="200.159" y1="91.958" x2="201.187" y2="93.5879" gradientUnits="userSpaceOnUse">
<stop stop-color="#FFC000"/>
<stop offset="1" stop-color="#FF8A00"/>
</linearGradient>
<linearGradient id="paint23_linear_0_247" x1="193.36" y1="85.9758" x2="194.388" y2="87.6057" gradientUnits="userSpaceOnUse">
<stop stop-color="#FFC000"/>
<stop offset="1" stop-color="#FF8A00"/>
</linearGradient>
<linearGradient id="paint24_linear_0_247" x1="186.56" y1="79.9928" x2="187.588" y2="81.6241" gradientUnits="userSpaceOnUse">
<stop stop-color="#FFC000"/>
<stop offset="1" stop-color="#FF8A00"/>
</linearGradient>
<linearGradient id="paint25_linear_0_247" x1="182.208" y1="84.938" x2="183.236" y2="86.5693" gradientUnits="userSpaceOnUse">
<stop stop-color="#FFC000"/>
<stop offset="1" stop-color="#FF8A00"/>
</linearGradient>
<linearGradient id="paint26_linear_0_247" x1="177.855" y1="89.8833" x2="178.884" y2="91.5146" gradientUnits="userSpaceOnUse">
<stop stop-color="#FFC000"/>
<stop offset="1" stop-color="#FF8A00"/>
</linearGradient>
<linearGradient id="paint27_linear_0_247" x1="191.454" y1="101.849" x2="192.482" y2="103.479" gradientUnits="userSpaceOnUse">
<stop stop-color="#FFC000"/>
<stop offset="1" stop-color="#FF8A00"/>
</linearGradient>
<linearGradient id="paint28_linear_0_247" x1="195.807" y1="96.9037" x2="196.834" y2="98.5337" gradientUnits="userSpaceOnUse">
<stop stop-color="#FFC000"/>
<stop offset="1" stop-color="#FF8A00"/>
</linearGradient>
<linearGradient id="paint29_linear_0_247" x1="184.655" y1="95.8669" x2="185.683" y2="97.4968" gradientUnits="userSpaceOnUse">
<stop stop-color="#FFC000"/>
<stop offset="1" stop-color="#FF8A00"/>
</linearGradient>
<linearGradient id="paint30_linear_0_247" x1="38.2671" y1="0.937632" x2="-5.2608" y2="13.7671" gradientUnits="userSpaceOnUse">
<stop stop-color="#FFC000"/>
<stop offset="1" stop-color="#FF8A00"/>
</linearGradient>
<linearGradient id="paint31_linear_0_247" x1="5.2162" y1="205.652" x2="80.6842" y2="235.138" gradientUnits="userSpaceOnUse">
<stop stop-color="#FFC000"/>
<stop offset="1" stop-color="#FF8A00"/>
</linearGradient>
<linearGradient id="paint32_linear_0_247" x1="48.9041" y1="40.9967" x2="25.1359" y2="62.1868" gradientUnits="userSpaceOnUse">
<stop stop-color="#FFC000"/>
<stop offset="1" stop-color="#FF8A00"/>
</linearGradient>
<clipPath id="clip0_0_247">
<rect width="33.7684" height="35.0191" fill="white" transform="matrix(-1 0 0 1 345.768 204)"/>
</clipPath>
<clipPath id="clip1_0_247">
<rect width="33.7684" height="35.0191" fill="white" transform="matrix(-1 0 0 1 197.106 15.0082)"/>
</clipPath>
<clipPath id="clip2_0_247">
<rect width="32.5178" height="32.5178" fill="white" transform="matrix(-1 0 0 1 60.782 163.839)"/>
</clipPath>
<clipPath id="clip3_0_247">
<rect width="53.4772" height="53.4772" fill="white" transform="matrix(0.487562 -0.873088 -0.873088 -0.487562 121.005 180.323)"/>
</clipPath>
</defs>
</svg>
