<svg width="84" height="134" viewBox="0 0 84 134" fill="none" xmlns="http://www.w3.org/2000/svg">
<path d="M26.7951 47.476L22.0006 61.6785L9.50017 62.8841C9.50017 62.8841 19.0545 54.8473 20.3698 45.685C21.6852 36.5227 26.7951 47.476 26.7951 47.476Z" fill="#D4A79A"/>
<path d="M45.1058 20.7853C45.1058 20.7853 46.6564 24.7279 41.475 34.0453C36.2937 43.3626 30.0234 50.8054 27.1802 49.3645C19.321 45.3818 18.0422 38.6865 16.5648 32.8344C14.7529 25.6582 25.9867 12.5185 25.9867 12.5185L33.6211 10.7885L45.1058 20.7853Z" fill="#EAC2AB"/>
<path d="M55.3605 20.7504C56.2316 18.3775 56.0922 15.7136 54.3587 13.1491C53.8569 12.4069 53.1269 11.8215 52.2767 11.6717C51.6373 11.5585 50.9422 11.6909 50.3533 11.4138C48.585 10.588 49.1251 7.79178 47.5588 6.75691C46.3898 5.98511 44.8357 6.80395 43.4402 6.74646C42.3862 6.7029 41.4402 6.15236 40.5046 5.66628C37.8704 4.29865 35.6525 2.23238 32.8807 1.08601C30.5409 0.119077 27.9432 -0.312992 25.4275 0.251485C22.802 0.840353 20.5353 2.63658 18.9343 4.99553C17.9778 6.40673 17.3279 8.09319 17.3018 9.80404C17.3227 8.39808 14.5735 9.14723 14.0456 9.55839C11.9811 11.1647 10.5019 15.4871 10.6413 18.0639C10.7511 20.104 11.3312 22.0466 11.38 24.0989C11.4863 28.5886 11.0037 36.0627 17.652 36.1846C17.476 33.8989 17.3175 31.5695 17.8001 29.3012C18.6625 25.261 20.4587 19.9211 24.1905 17.6248C32.0705 12.7797 34.7222 25.3829 40.6823 27.768C46.2313 29.9928 53.3865 26.1234 55.3605 20.7504Z" fill="#4B369D"/>
<path d="M19.8419 22.0465C19.8419 22.0465 17.7426 17.7293 16.6032 23.1075C15.4655 28.4875 17.929 30.3499 17.929 30.3499L19.8419 22.0465Z" fill="#EAC2AB"/>
<path d="M33.142 98.1152C32.5723 90.7456 31.5531 82.9509 29.8475 75.5744C28.5286 69.8721 27.2899 62.0635 21.68 58.8143C11.1727 52.727 4.41116 67.7554 2.5557 75.665C0.440654 84.6757 0.708955 94.169 0.611391 103.366C0.52428 111.614 -0.636034 120.703 0.485952 128.809C0.684564 130.24 1.20723 131.707 2.32747 132.618C5.17599 134.935 8.11336 131.864 10.5106 130.498C12.7529 129.219 15.1275 129.43 17.5091 128.571C19.6015 127.816 20.6312 126.252 22.3821 125.036C26.9746 121.844 31.919 126.978 36.8965 126.017C47.7156 123.926 39.4558 126.876 35.102 105.14C34.6577 102.925 33.3441 100.739 33.142 98.1152Z" fill="#F44E4E"/>
<path d="M61.2683 81.8707C65.3782 79.2208 66.9706 73.2729 70.7721 70.0846C72.3209 68.7867 74.1572 68.0166 75.9778 67.3041C78.5772 66.2849 81.2027 65.3458 83.8474 64.4886C83.6819 65.8406 82.64 66.8424 81.5581 67.44C80.4762 68.0375 79.2793 68.3773 78.2723 69.1264C77.828 69.4557 77.4204 69.8773 77.1904 70.4191C76.673 71.6369 77.1747 73.1004 76.9569 74.4297C76.5475 76.9228 73.9899 77.9403 72.03 79.1598C67.9828 81.6773 65.3677 86.6374 61.1498 88.7629C61.1498 88.7629 29.4973 115.044 25.5947 114.318C21.6922 113.591 16.307 77.7451 16.307 77.7451C16.307 77.7451 12.5926 59.2707 22.3507 68.1212C32.1089 76.9716 26.1017 106.371 30.9242 103.337C35.7431 100.3 61.2683 81.8707 61.2683 81.8707Z" fill="#EAC2AB"/>
<path d="M29.3771 82.7558C29.3771 82.7558 28.2568 59.9851 18.8123 61.8649C9.36776 63.7448 15.4324 89.3048 15.4324 89.3048L30.844 86.005L29.3771 82.7558Z" fill="#D7384E"/>
</svg>
