<svg width="84" height="134" viewBox="0 0 84 134" fill="none" xmlns="http://www.w3.org/2000/svg">
<path d="M26.7951 47.4758L22.0005 61.6784L9.50012 62.884C9.50012 62.884 19.0544 54.8471 20.3698 45.6848C21.6852 36.5225 26.7951 47.4758 26.7951 47.4758Z" fill="#D4A79A"/>
<path d="M45.1058 20.7852C45.1058 20.7852 46.6564 24.7278 41.475 34.0451C36.2937 43.3625 30.0234 50.8052 27.1802 49.3644C19.321 45.3817 18.0422 38.6864 16.5648 32.8343C14.7529 25.6581 25.9867 12.5183 25.9867 12.5183L33.6211 10.7883L45.1058 20.7852Z" fill="#EAC2AB"/>
<path d="M55.3604 20.7504C56.2315 18.3775 56.0921 15.7136 54.3586 13.1491C53.8569 12.4069 53.1269 11.8215 52.2767 11.6717C51.6373 11.5585 50.9422 11.6909 50.3533 11.4138C48.585 10.588 49.125 7.79178 47.5588 6.75691C46.3898 5.98511 44.8357 6.80395 43.4402 6.74646C42.3862 6.7029 41.4401 6.15236 40.5046 5.66628C37.8703 4.29865 35.6525 2.23238 32.8806 1.08601C30.5408 0.119077 27.9432 -0.312992 25.4275 0.251485C22.8019 0.840353 20.5353 2.63658 18.9342 4.99553C17.9777 6.40673 17.3279 8.09319 17.3018 9.80404C17.3227 8.39808 14.5735 9.14723 14.0456 9.55839C11.9811 11.1647 10.5019 15.4871 10.6413 18.0639C10.751 20.104 11.3312 22.0466 11.38 24.0989C11.4863 28.5886 11.0037 36.0627 17.652 36.1846C17.476 33.8989 17.3174 31.5695 17.8 29.3012C18.6624 25.261 20.4587 19.9211 24.1905 17.6248C32.0705 12.7797 34.7222 25.3829 40.6823 27.768C46.2312 29.9928 53.3865 26.1234 55.3604 20.7504Z" fill="#4B369D"/>
<path d="M19.8419 22.0467C19.8419 22.0467 17.7425 17.7295 16.6031 23.1077C15.4654 28.4876 17.9289 30.35 17.9289 30.35L19.8419 22.0467Z" fill="#EAC2AB"/>
<path d="M33.142 98.115C32.5723 90.7455 31.5531 82.9508 29.8475 75.5743C28.5286 69.872 27.2899 62.0634 21.68 58.8142C11.1727 52.7269 4.41116 67.7552 2.5557 75.6649C0.440654 84.6756 0.708955 94.1689 0.611391 103.366C0.52428 111.614 -0.636034 120.703 0.485952 128.809C0.684564 130.24 1.20723 131.707 2.32747 132.618C5.17599 134.935 8.11336 131.863 10.5106 130.498C12.7529 129.219 15.1275 129.43 17.5091 128.571C19.6015 127.816 20.6312 126.252 22.3821 125.036C26.9746 121.844 31.919 126.978 36.8965 126.017C47.7156 123.926 39.4558 126.875 35.102 105.14C34.6577 102.925 33.3441 100.739 33.142 98.115Z" fill="#F44E4E"/>
<path d="M61.2683 81.8708C65.3782 79.2209 66.9706 73.273 70.7721 70.0848C72.3209 68.7868 74.1572 68.0168 75.9778 67.3042C78.5772 66.285 81.2027 65.3459 83.8474 64.4888C83.6819 65.8407 82.64 66.8425 81.5581 67.4401C80.4762 68.0377 79.2793 68.3774 78.2723 69.1265C77.828 69.4558 77.4204 69.8774 77.1904 70.4193C76.6729 71.6371 77.1747 73.1005 76.9569 74.4298C76.5475 76.9229 73.9899 77.9404 72.0299 79.1599C67.9828 81.6774 65.3677 86.6375 61.1498 88.763C61.1498 88.763 29.4973 115.044 25.5947 114.318C21.6922 113.591 16.307 77.7453 16.307 77.7453C16.307 77.7453 12.5926 59.2708 22.3507 68.1213C32.1089 76.9717 26.1017 106.372 30.9242 103.337C35.7431 100.3 61.2683 81.8708 61.2683 81.8708Z" fill="#EAC2AB"/>
<path d="M29.3771 82.7558C29.3771 82.7558 28.2568 59.9851 18.8123 61.8649C9.36773 63.7448 15.4324 89.3048 15.4324 89.3048L30.844 86.005L29.3771 82.7558Z" fill="#D7384E"/>
</svg>
