<svg width="157" height="250" viewBox="0 0 157 250" fill="none" xmlns="http://www.w3.org/2000/svg">
<path d="M106.828 88.8962L115.806 115.49L139.212 117.747C139.212 117.747 121.322 102.699 118.859 85.5426C116.396 68.3867 106.828 88.8962 106.828 88.8962Z" fill="#D4A79A"/>
<path d="M72.5428 38.9193C72.5428 38.9193 69.6394 46.3017 79.3412 63.7479C89.043 81.1942 100.784 95.1303 106.108 92.4325C120.823 84.9751 123.218 72.4384 125.984 61.4807C129.377 48.0437 108.342 23.4402 108.342 23.4402L94.0472 20.2008L72.5428 38.9193Z" fill="#EAC2AB"/>
<path d="M53.3413 38.854C51.7102 34.4108 51.9712 29.4229 55.2171 24.621C56.1566 23.2313 57.5235 22.1352 59.1154 21.8546C60.3127 21.6426 61.6143 21.8905 62.7169 21.3718C66.028 19.8255 65.0168 14.5897 67.9495 12.652C70.1384 11.2068 73.0483 12.74 75.6613 12.6324C77.635 12.5508 79.4063 11.52 81.1581 10.6098C86.0906 8.04899 90.2434 4.18002 95.4335 2.03349C99.8147 0.222965 104.679 -0.586061 109.389 0.470892C114.305 1.57352 118.549 4.93685 121.547 9.35387C123.338 11.9962 124.555 15.1541 124.604 18.3575C124.565 15.7249 129.713 17.1277 130.701 17.8976C134.567 20.9053 137.336 28.9988 137.076 33.8236C136.87 37.6437 135.784 41.281 135.692 45.1239C135.493 53.5306 136.397 67.5254 123.948 67.7538C124.278 63.4738 124.575 59.1122 123.671 54.8648C122.056 47.2998 118.693 37.3011 111.705 33.0016C96.9504 23.9294 91.9854 47.5281 80.8254 51.9941C70.4353 56.1599 57.0374 48.9146 53.3413 38.854Z" fill="#4B369D"/>
<path d="M119.848 41.281C119.848 41.281 123.779 33.1972 125.912 43.2676C128.042 53.3413 123.43 56.8286 123.43 56.8286L119.848 41.281Z" fill="#EAC2AB"/>
<path d="M94.9436 183.715C96.0104 169.916 97.9188 155.321 101.112 141.509C103.582 130.832 105.901 116.211 116.406 110.127C136.08 98.7285 148.741 126.868 152.215 141.679C156.175 158.551 155.673 176.326 155.855 193.548C156.019 208.991 158.191 226.01 156.09 241.189C155.718 243.867 154.74 246.614 152.642 248.32C147.308 252.659 141.808 246.907 137.32 244.35C133.121 241.955 128.675 242.35 124.215 240.742C120.297 239.329 118.369 236.4 115.091 234.123C106.492 228.147 97.2337 237.76 87.9136 235.96C67.6553 232.045 83.1214 237.568 91.2737 196.869C92.1055 192.722 94.5652 188.628 94.9436 183.715Z" fill="#F44E4E"/>
<path d="M42.2781 153.299C34.5826 148.337 31.6009 137.2 24.4828 131.23C21.5827 128.799 18.1444 127.357 14.7354 126.023C9.86816 124.115 4.95201 122.357 -7.62939e-06 120.752C0.309898 123.283 2.2607 125.159 4.28653 126.278C6.31236 127.397 8.55348 128.033 10.439 129.436C11.2709 130.052 12.0343 130.842 12.4649 131.856C13.4337 134.136 12.4942 136.877 12.902 139.366C13.6686 144.034 18.4575 145.939 22.1275 148.223C29.7056 152.936 34.6022 162.224 42.4999 166.204C42.4999 166.204 101.768 215.414 109.075 214.054C116.382 212.693 126.466 145.574 126.466 145.574C126.466 145.574 133.421 110.981 115.149 127.553C96.8776 144.125 108.126 199.175 99.0959 193.492C90.0726 187.806 42.2781 153.299 42.2781 153.299Z" fill="#EAC2AB"/>
<path d="M101.993 154.956C101.993 154.956 104.09 112.319 121.775 115.839C139.459 119.359 128.103 167.218 128.103 167.218L99.246 161.04L101.993 154.956Z" fill="#D7384E"/>
</svg>
