<svg width="120" height="25" viewBox="0 0 120 25" fill="none" xmlns="http://www.w3.org/2000/svg">
<path fill-rule="evenodd" clip-rule="evenodd" d="M67.7343 8.08417C67.1493 8.34127 66.5248 8.51642 65.8671 8.59639C66.5373 8.19256 67.0528 7.55609 67.2967 6.79668C66.6682 7.16349 65.9716 7.43051 65.23 7.57922C64.6378 6.94539 63.7938 6.54883 62.8566 6.54883C61.0608 6.54883 59.6048 8.00486 59.6048 9.79862C59.6048 10.0564 59.6346 10.3042 59.6888 10.5415C56.9856 10.4139 54.5897 9.11588 52.9863 7.15358C52.7041 7.63077 52.5461 8.18529 52.5461 8.78938C52.5461 9.91957 53.1211 10.9129 53.9922 11.4965C53.4588 11.4794 52.9572 11.3326 52.5197 11.0894V11.1297C52.5197 12.7061 53.6386 14.0206 55.1277 14.32C54.8547 14.3934 54.5666 14.4331 54.2711 14.4331C54.0636 14.4331 53.8646 14.4132 53.6657 14.3762C54.0828 15.667 55.2817 16.6082 56.7086 16.6346C55.5983 17.5064 54.1911 18.0259 52.6756 18.0259C52.4179 18.0259 52.1608 18.0107 51.9023 17.9816C53.3491 18.9029 55.0537 19.4416 56.897 19.4416C62.8811 19.4416 66.1493 14.4873 66.1493 10.1978C66.1493 10.0597 66.1493 9.92023 66.1394 9.78144C66.7746 9.32606 67.3291 8.75039 67.7653 8.09739L67.7343 8.08417Z" fill="#FFF7DF"/>
</svg>
