<svg width="60" height="9" viewBox="0 0 60 9" fill="none" xmlns="http://www.w3.org/2000/svg">
<g clip-path="url(#clip0_0_240)">
<path fill-rule="evenodd" clip-rule="evenodd" d="M4.99992 8.41665C7.30111 8.41665 9.16658 6.55117 9.16658 4.24998C9.16658 1.94879 7.30111 0.083313 4.99992 0.083313C2.69873 0.083313 0.833252 1.94879 0.833252 4.24998C0.833252 6.55117 2.69873 8.41665 4.99992 8.41665Z" fill="#0AD1BD"/>
<path d="M33.6459 4.25004C33.6459 6.26358 32.0136 7.89587 30 7.89587C27.9865 7.89587 26.3542 6.26358 26.3542 4.25004C26.3542 2.2365 27.9865 0.604207 30 0.604207C32.0136 0.604207 33.6459 2.2365 33.6459 4.25004Z" stroke="#1C1C1C" stroke-width="1.04167"/>
<path d="M58.6458 4.25004C58.6458 6.26358 57.0135 7.89587 55 7.89587C52.9865 7.89587 51.3542 6.26358 51.3542 4.25004C51.3542 2.2365 52.9865 0.604207 55 0.604207C57.0135 0.604207 58.6458 2.2365 58.6458 4.25004Z" stroke="#1C1C1C" stroke-width="1.04167"/>
</g>
<defs>
<clipPath id="clip0_0_240">
<rect width="58.3333" height="8.33333" fill="white" transform="translate(0.833252 0.083313)"/>
</clipPath>
</defs>
</svg>
