<svg width="21" height="31" viewBox="0 0 21 31" fill="none" xmlns="http://www.w3.org/2000/svg">
<path fill-rule="evenodd" clip-rule="evenodd" d="M10.1067 0.557617C4.52746 0.563694 0.00607655 5.08508 0 10.6644C0 18.7001 9.02808 29.1983 9.41214 29.643L10.1067 30.4423L10.8014 29.6412C11.1854 29.1983 20.2135 18.7001 20.2135 10.6644C20.2135 5.09095 15.6783 0.557617 10.1067 0.557617ZM10.1068 27.5978C8.00089 24.981 1.83761 16.7946 1.83761 10.6644C1.83761 6.1053 5.54771 2.39521 10.1068 2.39521C14.6658 2.39521 18.3759 6.1053 18.3759 10.6644C18.3759 16.7891 12.2126 24.981 10.1068 27.5978ZM10.1068 5.40702C7.06739 5.40702 4.59399 7.88041 4.59399 10.9198C4.59399 13.9592 7.06739 16.4326 10.1068 16.4326C13.1461 16.4326 15.6195 13.9592 15.6195 10.9198C15.6195 7.88041 13.1461 5.40702 10.1068 5.40702ZM10.1068 14.595C8.07992 14.595 6.4316 12.9467 6.4316 10.9198C6.4316 8.89293 8.07992 7.24461 10.1068 7.24461C12.1336 7.24461 13.782 8.89293 13.782 10.9198C13.782 12.9467 12.1336 14.595 10.1068 14.595Z" fill="#3D3D3D" fill-opacity="0.54"/>
</svg>
