<svg width="21" height="25" viewBox="0 0 21 25" fill="none" xmlns="http://www.w3.org/2000/svg">
<path fill-rule="evenodd" clip-rule="evenodd" d="M10.1068 0.761475C4.52747 0.766248 0.00607655 4.31815 0 8.70111C0 15.0138 9.02808 23.261 9.41214 23.6103L10.1068 24.2383L10.8014 23.6089C11.1854 23.261 20.2135 15.0138 20.2135 8.70111C20.2135 4.32276 15.6783 0.761475 10.1068 0.761475ZM10.1068 22.0036C8.00089 19.948 1.83762 13.5169 1.83762 8.70113C1.83762 5.11963 5.54771 2.20506 10.1068 2.20506C14.6658 2.20506 18.3759 5.11963 18.3759 8.70113C18.3759 13.5126 12.2126 19.948 10.1068 22.0036ZM10.1068 4.57103C7.06739 4.57103 4.59399 6.51408 4.59399 8.90175C4.59399 11.2894 7.06739 13.2325 10.1068 13.2325C13.1461 13.2325 15.6195 11.2894 15.6195 8.90175C15.6195 6.51408 13.1461 4.57103 10.1068 4.57103ZM10.1068 11.7889C8.07992 11.7889 6.43161 10.494 6.43161 8.90176C6.43161 7.3095 8.07992 6.01462 10.1068 6.01462C12.1336 6.01462 13.782 7.3095 13.782 8.90176C13.782 10.494 12.1336 11.7889 10.1068 11.7889Z" fill="#3D3D3D" fill-opacity="0.54"/>
</svg>
